<svg id="Layer_1" data-name="Layer 1" xmlns="http://www.w3.org/2000/svg" viewBox="0 0 206 214"><defs><style>.cls-1{fill:#333;}.cls-2{fill:#666;}.cls-3{fill:#4d4d4d;}.cls-4{fill:gray;}</style></defs><title>jbrowse_logo</title><path class="cls-1" d="M146.668,90.223c.308.133.6.283.908.42l6.746-15.618c-.153-.067-.3-.143-.454-.21a81.36,81.36,0,0,0-71.777,3.5q-2.8,1.544-5.469,3.309l9.249,14.054A63.93,63.93,0,0,1,146.668,90.223Z"/><path d="M118.5,61.5c.168,0,.333.012.5.013V44.506c-.167,0-.333-.006-.5-.006a98.325,98.325,0,0,0-77.4,37.565q-2.664,3.378-5.023,6.994l14.206,9.327Q52.043,95.709,54,93.179A81.363,81.363,0,0,1,118.5,61.5Z"/><path class="cls-2" d="M148.921,154.314c.04.163.07.326.107.489l16.509-4.058c-.039-.163-.067-.326-.107-.489A48.457,48.457,0,0,0,133.575,115.8l-5.515,15.591A32.466,32.466,0,0,1,148.921,154.314Z"/><path class="cls-3" d="M168.894,113.37A63.929,63.929,0,0,0,111.4,92.861l2.336,15.474a48.456,48.456,0,0,1,44.322,15.42c.111.125.214.255.324.381l11.16-10C169.323,113.879,169.118,113.62,168.894,113.37Z"/><path class="cls-4" d="M132.1,142.129l-9.779,13.213a32.486,32.486,0,0,1,7.823,14.463l15.147.852c.012-.166.032-.331.041-.5A32.464,32.464,0,0,0,132.1,142.129Z"/></svg>