<svg width="908" height="248" xmlns="http://www.w3.org/2000/svg" xmlns:xlink="http://www.w3.org/1999/xlink" viewBox="0 0 908 248"><rect width="908" height="248" fill="#ffffff"></rect><g transform="translate(50 0)"><g transform="translate(0)"><g id="header"><text x="0" y="0" dominant-baseline="hanging" font-size="13" fill="#000000">volvox</text><g transform="translate(0 22)"><line x1="0" x2="808" y1="0" y2="0" stroke="#000000"></line><line x1="0" x2="0" y1="-5" y2="5" stroke="#000000"></line><line x1="808" x2="808" y1="-5" y2="5" stroke="#000000"></line><text x="404" y="5" text-anchor="middle" dominant-baseline="hanging" font-size="13" fill="#000000">50Kbp</text></g><g transform="translate(0 44)"><g transform="translate(0 0)"><defs><clipPath id="clip-integration_test-volvox:ctgA:0:50000:0"><rect x="0" y="0" width="808" height="34"></rect></clipPath></defs><g clip-path="url(#clip-integration_test-volvox:ctgA:0:50000:0)"><line x1="-32.33616" x2="-32.33616" y1="27" y2="30" stroke-width="1" stroke="#000000"></line><line x1="-16.17616" x2="-16.17616" y1="27" y2="30" stroke-width="1" stroke="#000000"></line><line x1="-0.01616" x2="-0.01616" y1="27" y2="32" stroke-width="1" stroke="#000000"></line><line x1="16.14384" x2="16.14384" y1="27" y2="30" stroke-width="1" stroke="#000000"></line><line x1="32.30384" x2="32.30384" y1="27" y2="30" stroke-width="1" stroke="#000000"></line><line x1="48.46384" x2="48.46384" y1="27" y2="30" stroke-width="1" stroke="#000000"></line><line x1="64.62384" x2="64.62384" y1="27" y2="30" stroke-width="1" stroke="#000000"></line><line x1="80.78384" x2="80.78384" y1="27" y2="30" stroke-width="1" stroke="#000000"></line><line x1="96.94384" x2="96.94384" y1="27" y2="30" stroke-width="1" stroke="#000000"></line><line x1="113.10383999999999" x2="113.10383999999999" y1="27" y2="30" stroke-width="1" stroke="#000000"></line><line x1="129.26384" x2="129.26384" y1="27" y2="30" stroke-width="1" stroke="#000000"></line><line x1="145.42383999999998" x2="145.42383999999998" y1="27" y2="30" stroke-width="1" stroke="#000000"></line><line x1="161.58383999999998" x2="161.58383999999998" y1="27" y2="32" stroke-width="1" stroke="#000000"></line><line x1="177.74383999999998" x2="177.74383999999998" y1="27" y2="30" stroke-width="1" stroke="#000000"></line><line x1="193.90384" x2="193.90384" y1="27" y2="30" stroke-width="1" stroke="#000000"></line><line x1="210.06384" x2="210.06384" y1="27" y2="30" stroke-width="1" stroke="#000000"></line><line x1="226.22384" x2="226.22384" y1="27" y2="30" stroke-width="1" stroke="#000000"></line><line x1="242.38384" x2="242.38384" y1="27" y2="30" stroke-width="1" stroke="#000000"></line><line x1="258.54384" x2="258.54384" y1="27" y2="30" stroke-width="1" stroke="#000000"></line><line x1="274.70383999999996" x2="274.70383999999996" y1="27" y2="30" stroke-width="1" stroke="#000000"></line><line x1="290.86384" x2="290.86384" y1="27" y2="30" stroke-width="1" stroke="#000000"></line><line x1="307.02384" x2="307.02384" y1="27" y2="30" stroke-width="1" stroke="#000000"></line><line x1="323.18384" x2="323.18384" y1="27" y2="32" stroke-width="1" stroke="#000000"></line><line x1="339.34384" x2="339.34384" y1="27" y2="30" stroke-width="1" stroke="#000000"></line><line x1="355.50383999999997" x2="355.50383999999997" y1="27" y2="30" stroke-width="1" stroke="#000000"></line><line x1="371.66384" x2="371.66384" y1="27" y2="30" stroke-width="1" stroke="#000000"></line><line x1="387.82383999999996" x2="387.82383999999996" y1="27" y2="30" stroke-width="1" stroke="#000000"></line><line x1="403.98384" x2="403.98384" y1="27" y2="30" stroke-width="1" stroke="#000000"></line><line x1="420.14383999999995" x2="420.14383999999995" y1="27" y2="30" stroke-width="1" stroke="#000000"></line><line x1="436.30384" x2="436.30384" y1="27" y2="30" stroke-width="1" stroke="#000000"></line><line x1="452.46383999999995" x2="452.46383999999995" y1="27" y2="30" stroke-width="1" stroke="#000000"></line><line x1="468.62384" x2="468.62384" y1="27" y2="30" stroke-width="1" stroke="#000000"></line><line x1="484.78384" x2="484.78384" y1="27" y2="32" stroke-width="1" stroke="#000000"></line><line x1="500.94383999999997" x2="500.94383999999997" y1="27" y2="30" stroke-width="1" stroke="#000000"></line><line x1="517.10384" x2="517.10384" y1="27" y2="30" stroke-width="1" stroke="#000000"></line><line x1="533.26384" x2="533.26384" y1="27" y2="30" stroke-width="1" stroke="#000000"></line><line x1="549.4238399999999" x2="549.4238399999999" y1="27" y2="30" stroke-width="1" stroke="#000000"></line><line x1="565.58384" x2="565.58384" y1="27" y2="30" stroke-width="1" stroke="#000000"></line><line x1="581.74384" x2="581.74384" y1="27" y2="30" stroke-width="1" stroke="#000000"></line><line x1="597.90384" x2="597.90384" y1="27" y2="30" stroke-width="1" stroke="#000000"></line><line x1="614.0638399999999" x2="614.0638399999999" y1="27" y2="30" stroke-width="1" stroke="#000000"></line><line x1="630.22384" x2="630.22384" y1="27" y2="30" stroke-width="1" stroke="#000000"></line><line x1="646.38384" x2="646.38384" y1="27" y2="32" stroke-width="1" stroke="#000000"></line><line x1="662.5438399999999" x2="662.5438399999999" y1="27" y2="30" stroke-width="1" stroke="#000000"></line><line x1="678.70384" x2="678.70384" y1="27" y2="30" stroke-width="1" stroke="#000000"></line><line x1="694.86384" x2="694.86384" y1="27" y2="30" stroke-width="1" stroke="#000000"></line><line x1="711.02384" x2="711.02384" y1="27" y2="30" stroke-width="1" stroke="#000000"></line><line x1="727.1838399999999" x2="727.1838399999999" y1="27" y2="30" stroke-width="1" stroke="#000000"></line><line x1="743.34384" x2="743.34384" y1="27" y2="30" stroke-width="1" stroke="#000000"></line><line x1="759.50384" x2="759.50384" y1="27" y2="30" stroke-width="1" stroke="#000000"></line><line x1="775.6638399999999" x2="775.6638399999999" y1="27" y2="30" stroke-width="1" stroke="#000000"></line><line x1="791.8238399999999" x2="791.8238399999999" y1="27" y2="30" stroke-width="1" stroke="#000000"></line><line x1="807.98384" x2="807.98384" y1="27" y2="32" stroke-width="1" stroke="#000000"></line><line x1="824.14384" x2="824.14384" y1="27" y2="30" stroke-width="1" stroke="#000000"></line><line x1="840.3038399999999" x2="840.3038399999999" y1="27" y2="30" stroke-width="1" stroke="#000000"></line><text x="161.58383999999998" y="25" text-anchor="middle" font-size="11" fill="#000000">10,000</text><text x="323.18384" y="25" text-anchor="middle" font-size="11" fill="#000000">20,000</text><text x="484.78384" y="25" text-anchor="middle" font-size="11" fill="#000000">30,000</text><text x="646.38384" y="25" text-anchor="middle" font-size="11" fill="#000000">40,000</text></g></g><g transform="translate(0 0)"><defs><clipPath id="reflabel-integration_test-volvox:ctgA:0:49505:0"><rect x="0" y="0" width="807.01616" height="15"></rect></clipPath></defs><g clip-path="url(#reflabel-integration_test-volvox:ctgA:0:49505:0)"><text x="0" y="13" font-size="11" font-weight="bold" fill="#000000">ctgA</text></g></g></g></g></g><g transform="translate(0 78)"><g transform="translate(0 0)"><defs><clipPath id="track-clip-integration_test-volvox_sv_test"><rect x="-50" y="18" width="858" height="100"></rect></clipPath></defs><g clip-path="url(#track-clip-integration_test-volvox_sv_test)"><g transform="translate(0 18)"><defs><clipPath id="arc-Ts1CbMlWv4"><rect x="0" y="0" width="808" height="100"></rect></clipPath></defs><g clip-path="url(#arc-Ts1CbMlWv4)"><path d="M 44 0 C 44 100, 553 100, 553 0" stroke-opacity="1" stroke="#a65628" stroke-width="3" fill="none" pointer-events="stroke"></path><line stroke-opacity="1" stroke="#a65628" stroke-width="3" x1="44" x2="64" y1="1.5" y2="1.5"></line><line stroke-opacity="1" stroke="#a65628" stroke-width="3" x1="553" x2="533" y1="1.5" y2="1.5"></line><path d="M 350 0 C 350 14.5, 379 14.5, 379 0" stroke-opacity="1" stroke="#a65628" stroke-width="3" fill="none" pointer-events="stroke"></path><line stroke-opacity="1" stroke="#a65628" stroke-width="3" x1="350" x2="330" y1="1.5" y2="1.5"></line><line stroke-opacity="1" stroke="#a65628" stroke-width="3" x1="379" x2="399" y1="1.5" y2="1.5"></line><path d="M 379 0 C 379 14.5, 350 14.5, 350 0" stroke-opacity="1" stroke="#a65628" stroke-width="3" fill="none" pointer-events="stroke"></path><line stroke-opacity="1" stroke="#a65628" stroke-width="3" x1="379" x2="399" y1="1.5" y2="1.5"></line><line stroke-opacity="1" stroke="#a65628" stroke-width="3" x1="350" x2="330" y1="1.5" y2="1.5"></line><path d="M 553 0 C 553 100, 44 100, 44 0" stroke-opacity="1" stroke="#a65628" stroke-width="3" fill="none" pointer-events="stroke"></path><line stroke-opacity="1" stroke="#a65628" stroke-width="3" x1="553" x2="533" y1="1.5" y2="1.5"></line><line stroke-opacity="1" stroke="#a65628" stroke-width="3" x1="44" x2="64" y1="1.5" y2="1.5"></line></g></g></g><text x="0" y="5" font-size="13" dominant-baseline="hanging" fill="#000000">volvox structural variant test (HTML italic+link)</text></g></g><g transform="translate(0 78)"><defs><clipPath id="highlight-clip-integration_test"><rect x="0" y="0" width="808" height="120"></rect></clipPath></defs><g clip-path="url(#highlight-clip-integration_test)"></g></g></g></svg>