<svg width="908" height="320" xmlns="http://www.w3.org/2000/svg" xmlns:xlink="http://www.w3.org/1999/xlink" viewBox="0 0 908 320"><rect width="908" height="320" fill="#ffffff"></rect><g transform="translate(50 0)"><g transform="translate(0)"><g id="header"><text x="0" y="0" dominant-baseline="hanging" font-size="13" fill="#000000">volvox</text><g transform="translate(0 13)"><line x1="0" x2="808" y1="10" y2="10" stroke="#000000"></line><line x1="0" x2="0" y1="5" y2="15" stroke="#000000"></line><line x1="808" x2="808" y1="5" y2="15" stroke="#000000"></line><text x="404" y="13" text-anchor="middle" dominant-baseline="hanging" font-size="13" fill="#000000">5Kbp</text></g><g transform="translate(0 50)"><g transform="translate(0 0)"><defs><clipPath id="clip-volvox:ctgA:0:5000:0"><rect x="0" y="0" width="808" height="100"></rect></clipPath></defs><g clip-path="url(#clip-volvox:ctgA:0:5000:0)"><text x="4" y="13" font-size="13" fill="#000000">ctgA</text><g transform="translate(0 20)"><line x1="-32.4816" x2="-32.4816" y1="0" y2="4" stroke-width="1" stroke="#000000"></line><line x1="-16.3216" x2="-16.3216" y1="0" y2="4" stroke-width="1" stroke="#000000"></line><line x1="-0.1616" x2="-0.1616" y1="0" y2="6" stroke-width="1" stroke="#000000"></line><line x1="15.9984" x2="15.9984" y1="0" y2="4" stroke-width="1" stroke="#000000"></line><line x1="32.1584" x2="32.1584" y1="0" y2="4" stroke-width="1" stroke="#000000"></line><line x1="48.3184" x2="48.3184" y1="0" y2="4" stroke-width="1" stroke="#000000"></line><line x1="64.4784" x2="64.4784" y1="0" y2="4" stroke-width="1" stroke="#000000"></line><line x1="80.6384" x2="80.6384" y1="0" y2="4" stroke-width="1" stroke="#000000"></line><line x1="96.7984" x2="96.7984" y1="0" y2="4" stroke-width="1" stroke="#000000"></line><line x1="112.9584" x2="112.9584" y1="0" y2="4" stroke-width="1" stroke="#000000"></line><line x1="129.1184" x2="129.1184" y1="0" y2="4" stroke-width="1" stroke="#000000"></line><line x1="145.2784" x2="145.2784" y1="0" y2="4" stroke-width="1" stroke="#000000"></line><line x1="161.4384" x2="161.4384" y1="0" y2="6" stroke-width="1" stroke="#000000"></line><line x1="177.5984" x2="177.5984" y1="0" y2="4" stroke-width="1" stroke="#000000"></line><line x1="193.7584" x2="193.7584" y1="0" y2="4" stroke-width="1" stroke="#000000"></line><line x1="209.9184" x2="209.9184" y1="0" y2="4" stroke-width="1" stroke="#000000"></line><line x1="226.0784" x2="226.0784" y1="0" y2="4" stroke-width="1" stroke="#000000"></line><line x1="242.23839999999998" x2="242.23839999999998" y1="0" y2="4" stroke-width="1" stroke="#000000"></line><line x1="258.3984" x2="258.3984" y1="0" y2="4" stroke-width="1" stroke="#000000"></line><line x1="274.5584" x2="274.5584" y1="0" y2="4" stroke-width="1" stroke="#000000"></line><line x1="290.7184" x2="290.7184" y1="0" y2="4" stroke-width="1" stroke="#000000"></line><line x1="306.8784" x2="306.8784" y1="0" y2="4" stroke-width="1" stroke="#000000"></line><line x1="323.03839999999997" x2="323.03839999999997" y1="0" y2="6" stroke-width="1" stroke="#000000"></line><line x1="339.1984" x2="339.1984" y1="0" y2="4" stroke-width="1" stroke="#000000"></line><line x1="355.3584" x2="355.3584" y1="0" y2="4" stroke-width="1" stroke="#000000"></line><line x1="371.5184" x2="371.5184" y1="0" y2="4" stroke-width="1" stroke="#000000"></line><line x1="387.6784" x2="387.6784" y1="0" y2="4" stroke-width="1" stroke="#000000"></line><line x1="403.8384" x2="403.8384" y1="0" y2="4" stroke-width="1" stroke="#000000"></line><line x1="419.9984" x2="419.9984" y1="0" y2="4" stroke-width="1" stroke="#000000"></line><line x1="436.1584" x2="436.1584" y1="0" y2="4" stroke-width="1" stroke="#000000"></line><line x1="452.3184" x2="452.3184" y1="0" y2="4" stroke-width="1" stroke="#000000"></line><line x1="468.47839999999997" x2="468.47839999999997" y1="0" y2="4" stroke-width="1" stroke="#000000"></line><line x1="484.6384" x2="484.6384" y1="0" y2="6" stroke-width="1" stroke="#000000"></line><line x1="500.79839999999996" x2="500.79839999999996" y1="0" y2="4" stroke-width="1" stroke="#000000"></line><line x1="516.9584" x2="516.9584" y1="0" y2="4" stroke-width="1" stroke="#000000"></line><line x1="533.1184" x2="533.1184" y1="0" y2="4" stroke-width="1" stroke="#000000"></line><line x1="549.2784" x2="549.2784" y1="0" y2="4" stroke-width="1" stroke="#000000"></line><line x1="565.4384" x2="565.4384" y1="0" y2="4" stroke-width="1" stroke="#000000"></line><line x1="581.5984" x2="581.5984" y1="0" y2="4" stroke-width="1" stroke="#000000"></line><line x1="597.7583999999999" x2="597.7583999999999" y1="0" y2="4" stroke-width="1" stroke="#000000"></line><line x1="613.9184" x2="613.9184" y1="0" y2="4" stroke-width="1" stroke="#000000"></line><line x1="630.0784" x2="630.0784" y1="0" y2="4" stroke-width="1" stroke="#000000"></line><line x1="646.2384" x2="646.2384" y1="0" y2="6" stroke-width="1" stroke="#000000"></line><line x1="662.3984" x2="662.3984" y1="0" y2="4" stroke-width="1" stroke="#000000"></line><line x1="678.5584" x2="678.5584" y1="0" y2="4" stroke-width="1" stroke="#000000"></line><line x1="694.7184" x2="694.7184" y1="0" y2="4" stroke-width="1" stroke="#000000"></line><line x1="710.8783999999999" x2="710.8783999999999" y1="0" y2="4" stroke-width="1" stroke="#000000"></line><line x1="727.0384" x2="727.0384" y1="0" y2="4" stroke-width="1" stroke="#000000"></line><line x1="743.1984" x2="743.1984" y1="0" y2="4" stroke-width="1" stroke="#000000"></line><line x1="759.3584" x2="759.3584" y1="0" y2="4" stroke-width="1" stroke="#000000"></line><line x1="775.5183999999999" x2="775.5183999999999" y1="0" y2="4" stroke-width="1" stroke="#000000"></line><line x1="791.6784" x2="791.6784" y1="0" y2="4" stroke-width="1" stroke="#000000"></line><line x1="807.8384" x2="807.8384" y1="0" y2="6" stroke-width="1" stroke="#000000"></line><line x1="823.9984" x2="823.9984" y1="0" y2="4" stroke-width="1" stroke="#000000"></line><line x1="840.1584" x2="840.1584" y1="0" y2="4" stroke-width="1" stroke="#000000"></line><text x="158.4384" y="18" font-size="11" fill="#000000">1,000</text><text x="320.03839999999997" y="18" font-size="11" fill="#000000">2,000</text><text x="481.6384" y="18" font-size="11" fill="#000000">3,000</text><text x="643.2384" y="18" font-size="11" fill="#000000">4,000</text></g></g></g></g></g></g><g transform="translate(0 100)"><g transform="translate(0 0)"><defs><clipPath id="track-clip-gff3tabix_genes"><rect x="-50" y="18" width="858" height="100"></rect></clipPath></defs><g clip-path="url(#track-clip-gff3tabix_genes)"><g transform="translate(0 18)"><defs><clipPath id="canvas-features-clip-5GfQp_z8Ji"><rect x="0" y="0" width="808" height="100"></rect></clipPath></defs><g clip-path="url(#canvas-features-clip-5GfQp_z8Ji)"><g><clipPath id="svgcanvas-clip-0"><path d="M0,0h808v100h-808Z"></path></clipPath><g clip-path="url(#svgcanvas-clip-0)"><path d="M242.39999999999998,35.5L3151.0384,35.5" fill="none" stroke="rgb(0,0,0)" stroke-width="1"></path><path d="M242.39999999999998,145.5L484.6384,145.5" fill="none" stroke="rgb(0,0,0)" stroke-width="1"></path><path d="M275.00548571428567,143.5L279.00548571428567,145.5L275.00548571428567,147.5" fill="none" stroke="rgb(0,0,0)" stroke-width="0.5"></path><path d="M309.6109714285714,143.5L313.6109714285714,145.5L309.6109714285714,147.5" fill="none" stroke="rgb(0,0,0)" stroke-width="0.5"></path><path d="M344.2164571428571,143.5L348.2164571428571,145.5L344.2164571428571,147.5" fill="none" stroke="rgb(0,0,0)" stroke-width="0.5"></path><path d="M378.82194285714286,143.5L382.82194285714286,145.5L378.82194285714286,147.5" fill="none" stroke="rgb(0,0,0)" stroke-width="0.5"></path><path d="M413.42742857142855,143.5L417.42742857142855,145.5L413.42742857142855,147.5" fill="none" stroke="rgb(0,0,0)" stroke-width="0.5"></path><path d="M448.03291428571424,143.5L452.03291428571424,145.5L448.03291428571424,147.5" fill="none" stroke="rgb(0,0,0)" stroke-width="0.5"></path><path d="M242.39999999999998,175.5L807.8384,175.5" fill="none" stroke="rgb(0,0,0)" stroke-width="1"></path><path d="M278.0958933333333,173.5L282.0958933333333,175.5L278.0958933333333,177.5" fill="none" stroke="rgb(0,0,0)" stroke-width="0.5"></path><path d="M315.79178666666667,173.5L319.79178666666667,175.5L315.79178666666667,177.5" fill="none" stroke="rgb(0,0,0)" stroke-width="0.5"></path><path d="M353.48767999999995,173.5L357.48767999999995,175.5L353.48767999999995,177.5" fill="none" stroke="rgb(0,0,0)" stroke-width="0.5"></path><path d="M391.1835733333333,173.5L395.1835733333333,175.5L391.1835733333333,177.5" fill="none" stroke="rgb(0,0,0)" stroke-width="0.5"></path><path d="M428.87946666666664,173.5L432.87946666666664,175.5L428.87946666666664,177.5" fill="none" stroke="rgb(0,0,0)" stroke-width="0.5"></path><path d="M466.57535999999993,173.5L470.57535999999993,175.5L466.57535999999993,177.5" fill="none" stroke="rgb(0,0,0)" stroke-width="0.5"></path><path d="M504.2712533333333,173.5L508.2712533333333,175.5L504.2712533333333,177.5" fill="none" stroke="rgb(0,0,0)" stroke-width="0.5"></path><path d="M541.9671466666666,173.5L545.9671466666666,175.5L541.9671466666666,177.5" fill="none" stroke="rgb(0,0,0)" stroke-width="0.5"></path><path d="M579.6630399999999,173.5L583.6630399999999,175.5L579.6630399999999,177.5" fill="none" stroke="rgb(0,0,0)" stroke-width="0.5"></path><path d="M617.3589333333333,173.5L621.3589333333333,175.5L617.3589333333333,177.5" fill="none" stroke="rgb(0,0,0)" stroke-width="0.5"></path><path d="M655.0548266666666,173.5L659.0548266666666,175.5L655.0548266666666,177.5" fill="none" stroke="rgb(0,0,0)" stroke-width="0.5"></path><path d="M692.75072,173.5L696.75072,175.5L692.75072,177.5" fill="none" stroke="rgb(0,0,0)" stroke-width="0.5"></path><path d="M730.4466133333333,173.5L734.4466133333333,175.5L730.4466133333333,177.5" fill="none" stroke="rgb(0,0,0)" stroke-width="0.5"></path><path d="M768.1425066666666,173.5L772.1425066666666,175.5L768.1425066666666,177.5" fill="none" stroke="rgb(0,0,0)" stroke-width="0.5"></path><path d="M888.8000000000001,175.5L1131.0384,175.5" fill="none" stroke="rgb(0,0,0)" stroke-width="1"></path><path d="M921.4054857142858,173.5L925.4054857142858,175.5L921.4054857142858,177.5" fill="none" stroke="rgb(0,0,0)" stroke-width="0.5"></path><path d="M956.0109714285715,173.5L960.0109714285715,175.5L956.0109714285715,177.5" fill="none" stroke="rgb(0,0,0)" stroke-width="0.5"></path><path d="M990.6164571428571,173.5L994.6164571428571,175.5L990.6164571428571,177.5" fill="none" stroke="rgb(0,0,0)" stroke-width="0.5"></path><path d="M1025.221942857143,173.5L1029.221942857143,175.5L1025.221942857143,177.5" fill="none" stroke="rgb(0,0,0)" stroke-width="0.5"></path><path d="M1059.8274285714285,173.5L1063.8274285714285,175.5L1059.8274285714285,177.5" fill="none" stroke="rgb(0,0,0)" stroke-width="0.5"></path><path d="M1094.432914285714,173.5L1098.432914285714,175.5L1094.432914285714,177.5" fill="none" stroke="rgb(0,0,0)" stroke-width="0.5"></path><path d="M242.39999999999998,205.5L484.6384,205.5" fill="none" stroke="rgb(0,0,0)" stroke-width="1"></path><path d="M275.00548571428567,203.5L279.00548571428567,205.5L275.00548571428567,207.5" fill="none" stroke="rgb(0,0,0)" stroke-width="0.5"></path><path d="M309.6109714285714,203.5L313.6109714285714,205.5L309.6109714285714,207.5" fill="none" stroke="rgb(0,0,0)" stroke-width="0.5"></path><path d="M344.2164571428571,203.5L348.2164571428571,205.5L344.2164571428571,207.5" fill="none" stroke="rgb(0,0,0)" stroke-width="0.5"></path><path d="M378.82194285714286,203.5L382.82194285714286,205.5L378.82194285714286,207.5" fill="none" stroke="rgb(0,0,0)" stroke-width="0.5"></path><path d="M413.42742857142855,203.5L417.42742857142855,205.5L413.42742857142855,207.5" fill="none" stroke="rgb(0,0,0)" stroke-width="0.5"></path><path d="M448.03291428571424,203.5L452.03291428571424,205.5L448.03291428571424,207.5" fill="none" stroke="rgb(0,0,0)" stroke-width="0.5"></path><path d="M630.5631999999999,205.5L807.8384,205.5" fill="none" stroke="rgb(0,0,0)" stroke-width="1"></path><path d="M664.01824,203.5L668.01824,205.5L664.01824,207.5" fill="none" stroke="rgb(0,0,0)" stroke-width="0.5"></path><path d="M699.4732799999999,203.5L703.4732799999999,205.5L699.4732799999999,207.5" fill="none" stroke="rgb(0,0,0)" stroke-width="0.5"></path><path d="M734.92832,203.5L738.92832,205.5L734.92832,207.5" fill="none" stroke="rgb(0,0,0)" stroke-width="0.5"></path><path d="M770.38336,203.5L774.38336,205.5L770.38336,207.5" fill="none" stroke="rgb(0,0,0)" stroke-width="0.5"></path><path d="M888.8000000000001,205.5L1131.0384,205.5" fill="none" stroke="rgb(0,0,0)" stroke-width="1"></path><path d="M921.4054857142858,203.5L925.4054857142858,205.5L921.4054857142858,207.5" fill="none" stroke="rgb(0,0,0)" stroke-width="0.5"></path><path d="M956.0109714285715,203.5L960.0109714285715,205.5L956.0109714285715,207.5" fill="none" stroke="rgb(0,0,0)" stroke-width="0.5"></path><path d="M990.6164571428571,203.5L994.6164571428571,205.5L990.6164571428571,207.5" fill="none" stroke="rgb(0,0,0)" stroke-width="0.5"></path><path d="M1025.221942857143,203.5L1029.221942857143,205.5L1025.221942857143,207.5" fill="none" stroke="rgb(0,0,0)" stroke-width="0.5"></path><path d="M1059.8274285714285,203.5L1063.8274285714285,205.5L1059.8274285714285,207.5" fill="none" stroke="rgb(0,0,0)" stroke-width="0.5"></path><path d="M1094.432914285714,203.5L1098.432914285714,205.5L1094.432914285714,207.5" fill="none" stroke="rgb(0,0,0)" stroke-width="0.5"></path><path d="M242.39999999999998,217.5L807.8384,217.5" fill="none" stroke="rgb(0,0,0)" stroke-width="1"></path><path d="M278.0958933333333,215.5L282.0958933333333,217.5L278.0958933333333,219.5" fill="none" stroke="rgb(0,0,0)" stroke-width="0.5"></path><path d="M315.79178666666667,215.5L319.79178666666667,217.5L315.79178666666667,219.5" fill="none" stroke="rgb(0,0,0)" stroke-width="0.5"></path><path d="M353.48767999999995,215.5L357.48767999999995,217.5L353.48767999999995,219.5" fill="none" stroke="rgb(0,0,0)" stroke-width="0.5"></path><path d="M391.1835733333333,215.5L395.1835733333333,217.5L391.1835733333333,219.5" fill="none" stroke="rgb(0,0,0)" stroke-width="0.5"></path><path d="M428.87946666666664,215.5L432.87946666666664,217.5L428.87946666666664,219.5" fill="none" stroke="rgb(0,0,0)" stroke-width="0.5"></path><path d="M466.57535999999993,215.5L470.57535999999993,217.5L466.57535999999993,219.5" fill="none" stroke="rgb(0,0,0)" stroke-width="0.5"></path><path d="M504.2712533333333,215.5L508.2712533333333,217.5L504.2712533333333,219.5" fill="none" stroke="rgb(0,0,0)" stroke-width="0.5"></path><path d="M541.9671466666666,215.5L545.9671466666666,217.5L541.9671466666666,219.5" fill="none" stroke="rgb(0,0,0)" stroke-width="0.5"></path><path d="M579.6630399999999,215.5L583.6630399999999,217.5L579.6630399999999,219.5" fill="none" stroke="rgb(0,0,0)" stroke-width="0.5"></path><path d="M617.3589333333333,215.5L621.3589333333333,217.5L617.3589333333333,219.5" fill="none" stroke="rgb(0,0,0)" stroke-width="0.5"></path><path d="M655.0548266666666,215.5L659.0548266666666,217.5L655.0548266666666,219.5" fill="none" stroke="rgb(0,0,0)" stroke-width="0.5"></path><path d="M692.75072,215.5L696.75072,217.5L692.75072,219.5" fill="none" stroke="rgb(0,0,0)" stroke-width="0.5"></path><path d="M730.4466133333333,215.5L734.4466133333333,217.5L730.4466133333333,219.5" fill="none" stroke="rgb(0,0,0)" stroke-width="0.5"></path><path d="M768.1425066666666,215.5L772.1425066666666,217.5L768.1425066666666,219.5" fill="none" stroke="rgb(0,0,0)" stroke-width="0.5"></path><path d="M888.8000000000001,217.5L1131.0384,217.5" fill="none" stroke="rgb(0,0,0)" stroke-width="1"></path><path d="M921.4054857142858,215.5L925.4054857142858,217.5L921.4054857142858,219.5" fill="none" stroke="rgb(0,0,0)" stroke-width="0.5"></path><path d="M956.0109714285715,215.5L960.0109714285715,217.5L956.0109714285715,219.5" fill="none" stroke="rgb(0,0,0)" stroke-width="0.5"></path><path d="M990.6164571428571,215.5L994.6164571428571,217.5L990.6164571428571,219.5" fill="none" stroke="rgb(0,0,0)" stroke-width="0.5"></path><path d="M1025.221942857143,215.5L1029.221942857143,217.5L1025.221942857143,219.5" fill="none" stroke="rgb(0,0,0)" stroke-width="0.5"></path><path d="M1059.8274285714285,215.5L1063.8274285714285,217.5L1059.8274285714285,219.5" fill="none" stroke="rgb(0,0,0)" stroke-width="0.5"></path><path d="M1094.432914285714,215.5L1098.432914285714,217.5L1094.432914285714,219.5" fill="none" stroke="rgb(0,0,0)" stroke-width="0.5"></path><path d="M242.39999999999998,229.5L484.6384,229.5" fill="none" stroke="rgb(0,0,0)" stroke-width="1"></path><path d="M275.00548571428567,227.5L279.00548571428567,229.5L275.00548571428567,231.5" fill="none" stroke="rgb(0,0,0)" stroke-width="0.5"></path><path d="M309.6109714285714,227.5L313.6109714285714,229.5L309.6109714285714,231.5" fill="none" stroke="rgb(0,0,0)" stroke-width="0.5"></path><path d="M344.2164571428571,227.5L348.2164571428571,229.5L344.2164571428571,231.5" fill="none" stroke="rgb(0,0,0)" stroke-width="0.5"></path><path d="M378.82194285714286,227.5L382.82194285714286,229.5L378.82194285714286,231.5" fill="none" stroke="rgb(0,0,0)" stroke-width="0.5"></path><path d="M413.42742857142855,227.5L417.42742857142855,229.5L413.42742857142855,231.5" fill="none" stroke="rgb(0,0,0)" stroke-width="0.5"></path><path d="M448.03291428571424,227.5L452.03291428571424,229.5L448.03291428571424,231.5" fill="none" stroke="rgb(0,0,0)" stroke-width="0.5"></path><path d="M630.5631999999999,229.5L807.8384,229.5" fill="none" stroke="rgb(0,0,0)" stroke-width="1"></path><path d="M664.01824,227.5L668.01824,229.5L664.01824,231.5" fill="none" stroke="rgb(0,0,0)" stroke-width="0.5"></path><path d="M699.4732799999999,227.5L703.4732799999999,229.5L699.4732799999999,231.5" fill="none" stroke="rgb(0,0,0)" stroke-width="0.5"></path><path d="M734.92832,227.5L738.92832,229.5L734.92832,231.5" fill="none" stroke="rgb(0,0,0)" stroke-width="0.5"></path><path d="M770.38336,227.5L774.38336,229.5L770.38336,231.5" fill="none" stroke="rgb(0,0,0)" stroke-width="0.5"></path><path d="M888.8000000000001,229.5L1131.0384,229.5" fill="none" stroke="rgb(0,0,0)" stroke-width="1"></path><path d="M921.4054857142858,227.5L925.4054857142858,229.5L921.4054857142858,231.5" fill="none" stroke="rgb(0,0,0)" stroke-width="0.5"></path><path d="M956.0109714285715,227.5L960.0109714285715,229.5L956.0109714285715,231.5" fill="none" stroke="rgb(0,0,0)" stroke-width="0.5"></path><path d="M990.6164571428571,227.5L994.6164571428571,229.5L990.6164571428571,231.5" fill="none" stroke="rgb(0,0,0)" stroke-width="0.5"></path><path d="M1025.221942857143,227.5L1029.221942857143,229.5L1025.221942857143,231.5" fill="none" stroke="rgb(0,0,0)" stroke-width="0.5"></path><path d="M1059.8274285714285,227.5L1063.8274285714285,229.5L1059.8274285714285,231.5" fill="none" stroke="rgb(0,0,0)" stroke-width="0.5"></path><path d="M1094.432914285714,227.5L1098.432914285714,229.5L1094.432914285714,231.5" fill="none" stroke="rgb(0,0,0)" stroke-width="0.5"></path><path d="M242.39999999999998,305.5L807.8384,305.5" fill="none" stroke="rgb(0,0,0)" stroke-width="1"></path><path d="M278.0958933333333,303.5L282.0958933333333,305.5L278.0958933333333,307.5" fill="none" stroke="rgb(0,0,0)" stroke-width="0.5"></path><path d="M315.79178666666667,303.5L319.79178666666667,305.5L315.79178666666667,307.5" fill="none" stroke="rgb(0,0,0)" stroke-width="0.5"></path><path d="M353.48767999999995,303.5L357.48767999999995,305.5L353.48767999999995,307.5" fill="none" stroke="rgb(0,0,0)" stroke-width="0.5"></path><path d="M391.1835733333333,303.5L395.1835733333333,305.5L391.1835733333333,307.5" fill="none" stroke="rgb(0,0,0)" stroke-width="0.5"></path><path d="M428.87946666666664,303.5L432.87946666666664,305.5L428.87946666666664,307.5" fill="none" stroke="rgb(0,0,0)" stroke-width="0.5"></path><path d="M466.57535999999993,303.5L470.57535999999993,305.5L466.57535999999993,307.5" fill="none" stroke="rgb(0,0,0)" stroke-width="0.5"></path><path d="M504.2712533333333,303.5L508.2712533333333,305.5L504.2712533333333,307.5" fill="none" stroke="rgb(0,0,0)" stroke-width="0.5"></path><path d="M541.9671466666666,303.5L545.9671466666666,305.5L541.9671466666666,307.5" fill="none" stroke="rgb(0,0,0)" stroke-width="0.5"></path><path d="M579.6630399999999,303.5L583.6630399999999,305.5L579.6630399999999,307.5" fill="none" stroke="rgb(0,0,0)" stroke-width="0.5"></path><path d="M617.3589333333333,303.5L621.3589333333333,305.5L617.3589333333333,307.5" fill="none" stroke="rgb(0,0,0)" stroke-width="0.5"></path><path d="M655.0548266666666,303.5L659.0548266666666,305.5L655.0548266666666,307.5" fill="none" stroke="rgb(0,0,0)" stroke-width="0.5"></path><path d="M692.75072,303.5L696.75072,305.5L692.75072,307.5" fill="none" stroke="rgb(0,0,0)" stroke-width="0.5"></path><path d="M730.4466133333333,303.5L734.4466133333333,305.5L730.4466133333333,307.5" fill="none" stroke="rgb(0,0,0)" stroke-width="0.5"></path><path d="M768.1425066666666,303.5L772.1425066666666,305.5L768.1425066666666,307.5" fill="none" stroke="rgb(0,0,0)" stroke-width="0.5"></path><path d="M888.8000000000001,305.5L1131.0384,305.5" fill="none" stroke="rgb(0,0,0)" stroke-width="1"></path><path d="M921.4054857142858,303.5L925.4054857142858,305.5L921.4054857142858,307.5" fill="none" stroke="rgb(0,0,0)" stroke-width="0.5"></path><path d="M956.0109714285715,303.5L960.0109714285715,305.5L956.0109714285715,307.5" fill="none" stroke="rgb(0,0,0)" stroke-width="0.5"></path><path d="M990.6164571428571,303.5L994.6164571428571,305.5L990.6164571428571,307.5" fill="none" stroke="rgb(0,0,0)" stroke-width="0.5"></path><path d="M1025.221942857143,303.5L1029.221942857143,305.5L1025.221942857143,307.5" fill="none" stroke="rgb(0,0,0)" stroke-width="0.5"></path><path d="M1059.8274285714285,303.5L1063.8274285714285,305.5L1059.8274285714285,307.5" fill="none" stroke="rgb(0,0,0)" stroke-width="0.5"></path><path d="M1094.432914285714,303.5L1098.432914285714,305.5L1094.432914285714,307.5" fill="none" stroke="rgb(0,0,0)" stroke-width="0.5"></path><path d="M888.8000000000001,335.5L1131.0384,335.5" fill="none" stroke="rgb(0,0,0)" stroke-width="1"></path><path d="M925.4054857142858,333.5L921.4054857142858,335.5L925.4054857142858,337.5" fill="none" stroke="rgb(0,0,0)" stroke-width="0.5"></path><path d="M960.0109714285715,333.5L956.0109714285715,335.5L960.0109714285715,337.5" fill="none" stroke="rgb(0,0,0)" stroke-width="0.5"></path><path d="M994.6164571428571,333.5L990.6164571428571,335.5L994.6164571428571,337.5" fill="none" stroke="rgb(0,0,0)" stroke-width="0.5"></path><path d="M1029.221942857143,333.5L1025.221942857143,335.5L1029.221942857143,337.5" fill="none" stroke="rgb(0,0,0)" stroke-width="0.5"></path><path d="M1063.8274285714285,333.5L1059.8274285714285,335.5L1063.8274285714285,337.5" fill="none" stroke="rgb(0,0,0)" stroke-width="0.5"></path><path d="M1098.432914285714,333.5L1094.432914285714,335.5L1098.432914285714,337.5" fill="none" stroke="rgb(0,0,0)" stroke-width="0.5"></path><rect x="0" y="0" width="8080.161599999999" height="10" fill="rgb(218,165,32)"></rect><rect x="161.4384" y="30" width="80.96159999999998" height="10" fill="rgb(218,165,32)"></rect><rect x="161.4384" y="70" width="2" height="10" fill="rgb(218,165,32)"></rect><rect x="161.4384" y="110" width="161.76160000000004" height="10" fill="rgb(218,165,32)"></rect><rect x="169.51839999999999" y="140" width="72.88159999999999" height="10" fill="rgb(218,165,32)"></rect><rect x="484.6384" y="140" width="32.80479999999994" height="10" fill="rgb(218,165,32)"></rect><rect x="169.51839999999999" y="170" width="72.88159999999999" height="10" fill="rgb(218,165,32)"></rect><rect x="807.8384" y="170" width="80.96160000000009" height="10" fill="rgb(218,165,32)"></rect><rect x="1131.0384" y="170" width="48.64160000000015" height="10" fill="rgb(218,165,32)"></rect><rect x="169.51839999999999" y="202" width="24.401600000000002" height="7" fill="rgb(53,112,137)"></rect><rect x="193.92" y="200" width="48.47999999999999" height="10" fill="rgb(218,165,32)"></rect><rect x="484.6384" y="200" width="145.92479999999995" height="10" fill="rgb(218,165,32)"></rect><rect x="807.8384" y="200" width="80.96160000000009" height="10" fill="rgb(218,165,32)"></rect><rect x="1131.0384" y="200" width="98.41440000000011" height="10" fill="rgb(218,165,32)"></rect><rect x="169.51839999999999" y="214" width="24.401600000000002" height="7" fill="rgb(53,112,137)"></rect><rect x="193.92" y="212" width="48.47999999999999" height="10" fill="rgb(218,165,32)"></rect><rect x="807.8384" y="212" width="80.96160000000009" height="10" fill="rgb(218,165,32)"></rect><rect x="1131.0384" y="212" width="98.41440000000011" height="10" fill="rgb(218,165,32)"></rect><rect x="209.9184" y="226" width="32.481599999999986" height="7" fill="rgb(53,112,137)"></rect><rect x="484.6384" y="226" width="48.64159999999998" height="7" fill="rgb(53,112,137)"></rect><rect x="533.28" y="224" width="97.28319999999997" height="10" fill="rgb(218,165,32)"></rect><rect x="807.8384" y="224" width="80.96160000000009" height="10" fill="rgb(218,165,32)"></rect><rect x="1131.0384" y="224" width="97.12160000000017" height="10" fill="rgb(218,165,32)"></rect><rect x="177.5984" y="270" width="145.60160000000005" height="10" fill="rgb(218,165,32)"></rect><rect x="185.6784" y="300" width="56.72159999999997" height="10" fill="rgb(218,165,32)"></rect><rect x="807.8384" y="300" width="80.96160000000009" height="10" fill="rgb(218,165,32)"></rect><rect x="1131.0384" y="300" width="32.48160000000007" height="10" fill="rgb(218,165,32)"></rect><rect x="193.75840000000002" y="330" width="113.2816" height="10" fill="rgb(218,165,32)"></rect><rect x="258.3984" y="360" width="226.40159999999997" height="10" fill="rgb(218,165,32)"></rect><rect x="267.9328" y="390" width="52.6816" height="10" fill="rgb(218,165,32)"></rect><rect x="290.71840000000003" y="430" width="177.92159999999996" height="10" fill="rgb(218,165,32)"></rect><rect x="486.9008" y="70" width="503.70719999999994" height="10" fill="rgb(218,165,32)"></rect><rect x="761.7823999999999" y="110" width="202.64640000000009" height="10" fill="rgb(218,165,32)"></rect><rect x="845.4912" y="270" width="11.312000000000012" height="10" fill="rgb(218,165,32)"></rect><rect x="874.0944000000001" y="330" width="14.705600000000004" height="10" fill="rgb(218,165,32)"></rect><rect x="1131.0384" y="330" width="81.44640000000004" height="10" fill="rgb(218,165,32)"></rect><rect x="937.1184" y="270" width="48.80320000000006" height="10" fill="rgb(218,165,32)"></rect><rect x="1040.8656" y="70" width="66.74080000000004" height="10" fill="rgb(218,165,32)"></rect><rect x="1112.4544" y="100" width="57.69119999999975" height="10" fill="rgb(218,165,32)"></rect><rect x="1148.1680000000001" y="70" width="17.129599999999755" height="10" fill="rgb(218,165,32)"></rect><rect x="1197.2944" y="100" width="53.00480000000016" height="10" fill="rgb(218,165,32)"></rect><rect x="1211.8384" y="70" width="80.96160000000009" height="10" fill="rgb(218,165,32)"></rect><rect x="517.4431999999999" y="145" width="3.5" height="1" fill="rgb(0,0,0)"></rect><path d="M520.9431999999999,143L520.9431999999999,148L524.4431999999999,145.5Z" fill="rgb(0,0,0)" stroke="none"></path><rect x="1179.68" y="175" width="3.5" height="1" fill="rgb(0,0,0)"></rect><path d="M1183.18,173L1183.18,178L1186.68,175.5Z" fill="rgb(0,0,0)" stroke="none"></path><rect x="323.20000000000005" y="275" width="3.5" height="1" fill="rgb(0,0,0)"></rect><path d="M326.70000000000005,273L326.70000000000005,278L330.20000000000005,275.5Z" fill="rgb(0,0,0)" stroke="none"></path><rect x="1163.52" y="305" width="3.5" height="1" fill="rgb(0,0,0)"></rect><path d="M1167.02,303L1167.02,308L1170.52,305.5Z" fill="rgb(0,0,0)" stroke="none"></path><rect x="307.04" y="335" width="3.5" height="1" fill="rgb(0,0,0)"></rect><path d="M310.54,333L310.54,338L314.04,335.5Z" fill="rgb(0,0,0)" stroke="none"></path><rect x="254.89839999999998" y="365" width="3.5" height="1" fill="rgb(0,0,0)"></rect><path d="M254.89839999999998,363L254.89839999999998,368L251.39839999999998,365.5Z" fill="rgb(0,0,0)" stroke="none"></path><rect x="320.6144" y="395" width="3.5" height="1" fill="rgb(0,0,0)"></rect><path d="M324.1144,393L324.1144,398L327.6144,395.5Z" fill="rgb(0,0,0)" stroke="none"></path><rect x="287.21840000000003" y="435" width="3.5" height="1" fill="rgb(0,0,0)"></rect><path d="M287.21840000000003,433L287.21840000000003,438L283.71840000000003,435.5Z" fill="rgb(0,0,0)" stroke="none"></path><rect x="990.608" y="75" width="3.5" height="1" fill="rgb(0,0,0)"></rect><path d="M994.108,73L994.108,78L997.608,75.5Z" fill="rgb(0,0,0)" stroke="none"></path><rect x="758.2823999999999" y="115" width="3.5" height="1" fill="rgb(0,0,0)"></rect><path d="M758.2823999999999,113L758.2823999999999,118L754.7823999999999,115.5Z" fill="rgb(0,0,0)" stroke="none"></path><rect x="841.9912" y="275" width="3.5" height="1" fill="rgb(0,0,0)"></rect><path d="M841.9912,273L841.9912,278L838.4912,275.5Z" fill="rgb(0,0,0)" stroke="none"></path><rect x="870.5944000000001" y="335" width="3.5" height="1" fill="rgb(0,0,0)"></rect><path d="M870.5944000000001,333L870.5944000000001,338L867.0944000000001,335.5Z" fill="rgb(0,0,0)" stroke="none"></path><rect x="933.6184" y="275" width="3.5" height="1" fill="rgb(0,0,0)"></rect><path d="M933.6184,273L933.6184,278L930.1184,275.5Z" fill="rgb(0,0,0)" stroke="none"></path><rect x="1037.3656" y="75" width="3.5" height="1" fill="rgb(0,0,0)"></rect><path d="M1037.3656,73L1037.3656,78L1033.8656,75.5Z" fill="rgb(0,0,0)" stroke="none"></path><rect x="1108.9544" y="105" width="3.5" height="1" fill="rgb(0,0,0)"></rect><path d="M1108.9544,103L1108.9544,108L1105.4544,105.5Z" fill="rgb(0,0,0)" stroke="none"></path><rect x="1144.6680000000001" y="75" width="3.5" height="1" fill="rgb(0,0,0)"></rect><path d="M1144.6680000000001,73L1144.6680000000001,78L1141.1680000000001,75.5Z" fill="rgb(0,0,0)" stroke="none"></path><rect x="1193.7944" y="105" width="3.5" height="1" fill="rgb(0,0,0)"></rect><path d="M1193.7944,103L1193.7944,108L1190.2944,105.5Z" fill="rgb(0,0,0)" stroke="none"></path><rect x="1208.3384" y="75" width="3.5" height="1" fill="rgb(0,0,0)"></rect><path d="M1208.3384,73L1208.3384,78L1204.8384,75.5Z" fill="rgb(0,0,0)" stroke="none"></path></g></g><g><text x="0" y="23" fill="black" font-size="11" font-family="sans-serif" text-anchor="start" dominant-baseline="auto">ctgA</text><text x="161.4384" y="53" fill="black" font-size="11" font-family="sans-serif" text-anchor="start" dominant-baseline="auto">b101.2</text><text x="161.4384" y="64" fill="blue" font-size="11" font-family="sans-serif" text-anchor="start" dominant-baseline="auto">Fingerprinted BAC with end reads</text><text x="161.4384" y="93" fill="black" font-size="11" font-family="sans-serif" text-anchor="start" dominant-baseline="auto">FakeSNP</text><text x="161.4384" y="104" fill="blue" font-size="11" font-family="sans-serif" text-anchor="start" dominant-baseline="auto">This is a fake SNP that should appear a…</text><text x="161.4384" y="133" fill="black" font-size="11" font-family="sans-serif" text-anchor="start" dominant-baseline="auto">Remark:hga</text><text x="169.51839999999999" y="163" fill="black" font-size="11" font-family="sans-serif" text-anchor="start" dominant-baseline="auto">agt830.5</text><text x="169.51839999999999" y="193" fill="black" font-size="11" font-family="sans-serif" text-anchor="start" dominant-baseline="auto">agt221.5</text><text x="169.51839999999999" y="247" fill="black" font-size="11" font-family="sans-serif" text-anchor="start" dominant-baseline="auto">EDEN</text><text x="169.51839999999999" y="258" fill="blue" font-size="11" font-family="sans-serif" text-anchor="start" dominant-baseline="auto">protein kinase</text><text x="177.5984" y="293" fill="black" font-size="11" font-family="sans-serif" text-anchor="start" dominant-baseline="auto">Gene:hga</text><text x="185.6784" y="323" fill="black" font-size="11" font-family="sans-serif" text-anchor="start" dominant-baseline="auto">agt767.5</text><text x="193.75840000000002" y="353" fill="black" font-size="11" font-family="sans-serif" text-anchor="start" dominant-baseline="auto">Protein:HGA</text><text x="258.3984" y="383" fill="black" font-size="11" font-family="sans-serif" text-anchor="start" dominant-baseline="auto">Gene:hgb</text><text x="267.9328" y="413" fill="black" font-size="11" font-family="sans-serif" text-anchor="start" dominant-baseline="auto">f07</text><text x="267.9328" y="424" fill="blue" font-size="11" font-family="sans-serif" text-anchor="start" dominant-baseline="auto">This is an example</text><text x="290.71840000000003" y="453" fill="black" font-size="11" font-family="sans-serif" text-anchor="start" dominant-baseline="auto">Protein:HGB</text><text x="486.9008" y="93" fill="black" font-size="11" font-family="sans-serif" text-anchor="start" dominant-baseline="auto">f06</text><text x="486.9008" y="104" fill="blue" font-size="11" font-family="sans-serif" text-anchor="start" dominant-baseline="auto">This is another example</text><text x="761.7823999999999" y="133" fill="black" font-size="11" font-family="sans-serif" text-anchor="start" dominant-baseline="auto">f05</text><text x="761.7823999999999" y="144" fill="blue" font-size="11" font-family="sans-serif" text-anchor="start" dominant-baseline="auto">Ok! Ok! I get the message.</text></g></g></g></g><text x="0" y="5" fill="#000000" font-size="13" dominant-baseline="hanging">GFF3Tabix genes</text></g></g></g></svg>