<svg width="908" height="256" xmlns="http://www.w3.org/2000/svg" xmlns:xlink="http://www.w3.org/1999/xlink" viewBox="0 0 908 256"><rect width="908" height="256" fill="#ffffff"></rect><g transform="translate(50 0)"><g transform="translate(0)"><g id="header"><text x="0" y="13" font-size="13" fill="#000000">volvox</text><g transform="translate(0 25)"><line x1="0" x2="808" y1="0" y2="0" stroke="#000000"></line><line x1="0" x2="0" y1="-5" y2="5" stroke="#000000"></line><line x1="808" x2="808" y1="-5" y2="5" stroke="#000000"></line><text x="404" y="18" text-anchor="middle" font-size="13" fill="#000000">5Kbp</text></g><g transform="translate(0 50)"><defs><clipPath id="ruler-clip-0"><rect x="0" y="0" width="808" height="34"></rect></clipPath></defs><g clip-path="url(#ruler-clip-0)"><path d="M161.44 27V32M323.04 27V32M484.64 27V32M646.24 27V32M807.84 27V32M969.44 27V32M1131.04 27V32M1292.64 27V32M1454.24 27V32M16 27V30M32.16 27V30M48.32 27V30M64.48 27V30M80.64 27V30M96.8 27V30M112.96 27V30M129.12 27V30M145.28 27V30M177.6 27V30M193.76 27V30M209.92 27V30M226.08 27V30M242.24 27V30M258.4 27V30M274.56 27V30M290.72 27V30M306.88 27V30M339.2 27V30M355.36 27V30M371.52 27V30M387.68 27V30M403.84 27V30M420 27V30M436.16 27V30M452.32 27V30M468.48 27V30M500.8 27V30M516.96 27V30M533.12 27V30M549.28 27V30M565.44 27V30M581.6 27V30M597.76 27V30M613.92 27V30M630.08 27V30M662.4 27V30M678.56 27V30M694.72 27V30M710.88 27V30M727.04 27V30M743.2 27V30M759.36 27V30M775.52 27V30M791.68 27V30M824 27V30M840.16 27V30M856.32 27V30M872.48 27V30M888.64 27V30M904.8 27V30M920.96 27V30M937.12 27V30M953.28 27V30M985.6 27V30M1001.76 27V30M1017.92 27V30M1034.08 27V30M1050.24 27V30M1066.4 27V30M1082.56 27V30M1098.72 27V30M1114.88 27V30M1147.2 27V30M1163.36 27V30M1179.52 27V30M1195.68 27V30M1211.84 27V30M1228 27V30M1244.16 27V30M1260.32 27V30M1276.48 27V30M1308.8 27V30M1324.96 27V30M1341.12 27V30M1357.28 27V30M1373.44 27V30M1389.6 27V30M1405.76 27V30M1421.92 27V30M1438.08 27V30M1470.4 27V30M1486.56 27V30M1502.72 27V30M1518.88 27V30M1535.04 27V30M1551.2 27V30M1567.36 27V30M1583.52 27V30M1599.68 27V30" stroke-width="1" stroke="#000000" fill="none"></path><text x="161.44" y="25" text-anchor="middle" font-size="11" fill="#000000">1,000</text><text x="323.04" y="25" text-anchor="middle" font-size="11" fill="#000000">2,000</text><text x="484.64" y="25" text-anchor="middle" font-size="11" fill="#000000">3,000</text><text x="646.24" y="25" text-anchor="middle" font-size="11" fill="#000000">4,000</text><g transform="translate(0 0)"><defs><clipPath id="reflabel-0-volvox:ctgA:0:4951:0"><rect x="0" y="0" width="1599.16" height="13"></rect></clipPath></defs><g clip-path="url(#reflabel-0-volvox:ctgA:0:4951:0)"><text x="0" y="10" font-size="11" font-weight="bold" fill="#000000">ctgA</text></g></g></g></g></g></g><g transform="translate(0 84)"><g transform="translate(0 0)"><defs><clipPath id="track-clip-0-gff3tabix_genes"><rect x="-50" y="20" width="858" height="100"></rect></clipPath></defs><g clip-path="url(#track-clip-0-gff3tabix_genes)"><g transform="translate(0 20)"><defs><clipPath id="canvas-features-clip-0-0-0"><rect x="0" y="0" width="808" height="100"></rect></clipPath></defs><g clip-path="url(#canvas-features-clip-0-0-0)"><g><clipPath id="svgcanvas-clip-0"><path d="M0,0h808v100h-808Z"></path></clipPath><g clip-path="url(#svgcanvas-clip-0)"><path d="M242.4,35.5L3151.04,35.5" fill="none" stroke="rgb(0,0,0)" stroke-opacity="0.6" stroke-width="1"></path><rect x="0" y="0" width="8080" height="10" fill="rgb(218,165,32)"></rect><rect x="161" y="30" width="81" height="10" fill="rgb(218,165,32)"></rect><rect x="161" y="70" width="2" height="10" fill="rgb(218,165,32)"></rect><rect x="487" y="70" width="504" height="10" fill="rgb(218,165,32)"></rect><rect x="1041" y="70" width="67" height="10" fill="rgb(218,165,32)"></rect><rect x="1112" y="100" width="58" height="10" fill="rgb(218,165,32)"></rect><rect x="1148" y="70" width="17" height="10" fill="rgb(218,165,32)"></rect><rect x="1197" y="70" width="53" height="10" fill="rgb(218,165,32)"></rect><rect x="1212" y="100" width="81" height="10" fill="rgb(218,165,32)"></rect><rect x="990.61" y="75" width="3.5" height="1" fill="rgb(0,0,0)" fill-opacity="0.6"></rect><path d="M994.11,73L994.11,78L997.61,75.5Z" fill="rgb(0,0,0)" fill-opacity="0.6" stroke="none"></path><rect x="1037.37" y="75" width="3.5" height="1" fill="rgb(0,0,0)" fill-opacity="0.6"></rect><path d="M1037.37,73L1037.37,78L1033.87,75.5Z" fill="rgb(0,0,0)" fill-opacity="0.6" stroke="none"></path><rect x="1108.95" y="105" width="3.5" height="1" fill="rgb(0,0,0)" fill-opacity="0.6"></rect><path d="M1108.95,103L1108.95,108L1105.45,105.5Z" fill="rgb(0,0,0)" fill-opacity="0.6" stroke="none"></path><rect x="1144.67" y="75" width="3.5" height="1" fill="rgb(0,0,0)" fill-opacity="0.6"></rect><path d="M1144.67,73L1144.67,78L1141.17,75.5Z" fill="rgb(0,0,0)" fill-opacity="0.6" stroke="none"></path><rect x="1193.79" y="75" width="3.5" height="1" fill="rgb(0,0,0)" fill-opacity="0.6"></rect><path d="M1193.79,73L1193.79,78L1190.29,75.5Z" fill="rgb(0,0,0)" fill-opacity="0.6" stroke="none"></path><rect x="1208.34" y="105" width="3.5" height="1" fill="rgb(0,0,0)" fill-opacity="0.6"></rect><path d="M1208.34,103L1208.34,108L1204.84,105.5Z" fill="rgb(0,0,0)" fill-opacity="0.6" stroke="none"></path><path d="M802,1.5L807,5.5L802,9.5" fill="none" stroke="rgb(0,0,0)" stroke-opacity="0.55" stroke-width="1"></path><path d="M798,1.5L803,5.5L798,9.5" fill="none" stroke="rgb(0,0,0)" stroke-opacity="0.55" stroke-width="1"></path><path d="M802,71.5L807,75.5L802,79.5" fill="none" stroke="rgb(0,0,0)" stroke-opacity="0.55" stroke-width="1"></path><path d="M798,71.5L803,75.5L798,79.5" fill="none" stroke="rgb(0,0,0)" stroke-opacity="0.55" stroke-width="1"></path></g></g><g><text x="4" y="21" fill="rgb(0,0,0)" fill-opacity="0.87" font-size="11" text-anchor="start" dominant-baseline="auto">ctgA</text><text x="161.44" y="51" fill="rgb(0,0,0)" fill-opacity="0.87" font-size="11" text-anchor="start" dominant-baseline="auto">b101.2</text><text x="161.44" y="62" fill="blue" font-size="11" text-anchor="start" dominant-baseline="auto">Fingerprinted BAC with end reads</text><text x="161.44" y="91" fill="rgb(0,0,0)" fill-opacity="0.87" font-size="11" text-anchor="start" dominant-baseline="auto">FakeSNP</text><text x="161.44" y="102" fill="blue" font-size="11" text-anchor="start" dominant-baseline="auto">This is a fake SNP that should appear a…</text><text x="161.44" y="131" fill="rgb(0,0,0)" fill-opacity="0.87" font-size="11" text-anchor="start" dominant-baseline="auto">Remark:hga</text><text x="169.52" y="161" fill="rgb(0,0,0)" fill-opacity="0.87" font-size="11" text-anchor="start" dominant-baseline="auto">agt830.5</text><text x="169.52" y="191" fill="rgb(0,0,0)" fill-opacity="0.87" font-size="11" text-anchor="start" dominant-baseline="auto">agt221.5</text><text x="169.52" y="221" fill="rgb(0,0,0)" fill-opacity="0.87" font-size="11" text-anchor="start" dominant-baseline="auto">EDEN</text><text x="206.04" y="221" fill="rgb(0,0,0)" fill-opacity="0.6" font-size="9.35" font-style="italic" text-anchor="start" dominant-baseline="auto">+2 more</text><text x="169.52" y="232" fill="blue" font-size="11" text-anchor="start" dominant-baseline="auto">protein kinase</text><text x="177.6" y="261" fill="rgb(0,0,0)" fill-opacity="0.87" font-size="11" text-anchor="start" dominant-baseline="auto">Gene:hga</text><text x="185.68" y="291" fill="rgb(0,0,0)" fill-opacity="0.87" font-size="11" text-anchor="start" dominant-baseline="auto">agt767.5</text><text x="193.76" y="321" fill="rgb(0,0,0)" fill-opacity="0.87" font-size="11" text-anchor="start" dominant-baseline="auto">Protein:HGA</text><text x="258.4" y="351" fill="rgb(0,0,0)" fill-opacity="0.87" font-size="11" text-anchor="start" dominant-baseline="auto">Gene:hgb</text><text x="267.93" y="381" fill="rgb(0,0,0)" fill-opacity="0.87" font-size="11" text-anchor="start" dominant-baseline="auto">f07</text><text x="267.93" y="392" fill="blue" font-size="11" text-anchor="start" dominant-baseline="auto">This is an example</text><text x="290.72" y="421" fill="rgb(0,0,0)" fill-opacity="0.87" font-size="11" text-anchor="start" dominant-baseline="auto">Protein:HGB</text><text x="486.9" y="91" fill="rgb(0,0,0)" fill-opacity="0.87" font-size="11" text-anchor="start" dominant-baseline="auto">f06</text><text x="486.9" y="102" fill="blue" font-size="11" text-anchor="start" dominant-baseline="auto">This is another example</text><text x="761.78" y="131" fill="rgb(0,0,0)" fill-opacity="0.87" font-size="11" text-anchor="start" dominant-baseline="auto">f05</text><text x="761.78" y="142" fill="blue" font-size="11" text-anchor="start" dominant-baseline="auto">Ok! Ok! I get the message.</text></g></g></g></g><text x="0" y="14" font-size="13" fill="#000000">GFF3Tabix genes</text></g></g><g transform="translate(0 84)"><defs><clipPath id="highlight-clip-0"><rect x="0" y="0" width="808" height="122"></rect></clipPath></defs><g clip-path="url(#highlight-clip-0)"></g></g></g></svg>