<svg width="808" height="470" xmlns="http://www.w3.org/2000/svg" xmlns:xlink="http://www.w3.org/1999/xlink" viewBox="0,0,908,470"><rect width="908" height="470" fill="#ffffff"></rect><g transform="translate(50 0)"><g transform="translate(0)"><g id="header"><text x="0" y="0" dominant-baseline="hanging" font-size="13" fill="#000000">volvox</text><g transform="translate(0 13)"><line x1="0" x2="808.0000000000001" y1="10" y2="10" stroke="#000000"></line><line x1="0" x2="0" y1="5" y2="15" stroke="#000000"></line><line x1="808.0000000000001" x2="808.0000000000001" y1="5" y2="15" stroke="#000000"></line><text x="404.00000000000006" y="13" text-anchor="middle" dominant-baseline="hanging" font-size="13" fill="#000000">80bp</text></g><g transform="translate(0 50)"><g><defs><clipPath id="clip-volvox:ctgA:0.1:80.9:0"><rect x="0" y="0" width="808.0000000000001" height="100"></rect></clipPath></defs><g transform="translate(0 0)"><g clip-path="url(#clip-volvox:ctgA:0.1:80.9:0)"><text x="4" y="13" font-size="13" fill="#000000">ctgA</text><g transform="translate(0 20)"><line x1="-31" x2="-31" y1="0" y2="4" stroke-width="1" stroke="#000000"></line><line x1="-11" x2="-11" y1="0" y2="6" stroke-width="1" stroke="#000000"></line><line x1="9" x2="9" y1="0" y2="4" stroke-width="1" stroke="#000000"></line><line x1="28.999999999999996" x2="28.999999999999996" y1="0" y2="4" stroke-width="1" stroke="#000000"></line><line x1="49" x2="49" y1="0" y2="4" stroke-width="1" stroke="#000000"></line><line x1="69" x2="69" y1="0" y2="4" stroke-width="1" stroke="#000000"></line><line x1="89" x2="89" y1="0" y2="4" stroke-width="1" stroke="#000000"></line><line x1="109" x2="109" y1="0" y2="4" stroke-width="1" stroke="#000000"></line><line x1="129" x2="129" y1="0" y2="4" stroke-width="1" stroke="#000000"></line><line x1="149" x2="149" y1="0" y2="4" stroke-width="1" stroke="#000000"></line><line x1="168.99999999999997" x2="168.99999999999997" y1="0" y2="4" stroke-width="1" stroke="#000000"></line><line x1="188.99999999999997" x2="188.99999999999997" y1="0" y2="6" stroke-width="1" stroke="#000000"></line><line x1="208.99999999999997" x2="208.99999999999997" y1="0" y2="4" stroke-width="1" stroke="#000000"></line><line x1="228.99999999999997" x2="228.99999999999997" y1="0" y2="4" stroke-width="1" stroke="#000000"></line><line x1="248.99999999999997" x2="248.99999999999997" y1="0" y2="4" stroke-width="1" stroke="#000000"></line><line x1="268.99999999999994" x2="268.99999999999994" y1="0" y2="4" stroke-width="1" stroke="#000000"></line><line x1="288.99999999999994" x2="288.99999999999994" y1="0" y2="4" stroke-width="1" stroke="#000000"></line><line x1="308.99999999999994" x2="308.99999999999994" y1="0" y2="4" stroke-width="1" stroke="#000000"></line><line x1="328.99999999999994" x2="328.99999999999994" y1="0" y2="4" stroke-width="1" stroke="#000000"></line><line x1="348.99999999999994" x2="348.99999999999994" y1="0" y2="4" stroke-width="1" stroke="#000000"></line><line x1="368.99999999999994" x2="368.99999999999994" y1="0" y2="4" stroke-width="1" stroke="#000000"></line><line x1="388.99999999999994" x2="388.99999999999994" y1="0" y2="6" stroke-width="1" stroke="#000000"></line><line x1="408.99999999999994" x2="408.99999999999994" y1="0" y2="4" stroke-width="1" stroke="#000000"></line><line x1="428.99999999999994" x2="428.99999999999994" y1="0" y2="4" stroke-width="1" stroke="#000000"></line><line x1="448.99999999999994" x2="448.99999999999994" y1="0" y2="4" stroke-width="1" stroke="#000000"></line><line x1="468.99999999999994" x2="468.99999999999994" y1="0" y2="4" stroke-width="1" stroke="#000000"></line><line x1="488.99999999999994" x2="488.99999999999994" y1="0" y2="4" stroke-width="1" stroke="#000000"></line><line x1="508.99999999999994" x2="508.99999999999994" y1="0" y2="4" stroke-width="1" stroke="#000000"></line><line x1="529" x2="529" y1="0" y2="4" stroke-width="1" stroke="#000000"></line><line x1="549" x2="549" y1="0" y2="4" stroke-width="1" stroke="#000000"></line><line x1="569" x2="569" y1="0" y2="4" stroke-width="1" stroke="#000000"></line><line x1="589" x2="589" y1="0" y2="6" stroke-width="1" stroke="#000000"></line><line x1="609" x2="609" y1="0" y2="4" stroke-width="1" stroke="#000000"></line><line x1="629" x2="629" y1="0" y2="4" stroke-width="1" stroke="#000000"></line><line x1="649" x2="649" y1="0" y2="4" stroke-width="1" stroke="#000000"></line><line x1="669" x2="669" y1="0" y2="4" stroke-width="1" stroke="#000000"></line><line x1="689" x2="689" y1="0" y2="4" stroke-width="1" stroke="#000000"></line><line x1="709" x2="709" y1="0" y2="4" stroke-width="1" stroke="#000000"></line><line x1="729" x2="729" y1="0" y2="4" stroke-width="1" stroke="#000000"></line><line x1="749" x2="749" y1="0" y2="4" stroke-width="1" stroke="#000000"></line><line x1="769" x2="769" y1="0" y2="4" stroke-width="1" stroke="#000000"></line><line x1="789" x2="789" y1="0" y2="6" stroke-width="1" stroke="#000000"></line><line x1="809" x2="809" y1="0" y2="4" stroke-width="1" stroke="#000000"></line><line x1="829" x2="829" y1="0" y2="4" stroke-width="1" stroke="#000000"></line><text x="185.99999999999997" y="18" font-size="11" fill="#000000">20</text><text x="385.99999999999994" y="18" font-size="11" fill="#000000">40</text><text x="586" y="18" font-size="11" fill="#000000">60</text><text x="786" y="18" font-size="11" fill="#000000">80</text></g></g></g></g></g></g></g><g transform="translate(0 100)"><g transform="translate(0 0)"><defs><clipPath id="track-clip-volvox_alignments_pileup_coverage"><rect x="0" y="18" width="808" height="250"></rect></clipPath></defs><g clip-path="url(#track-clip-volvox_alignments_pileup_coverage)"><g transform="translate(0 18)"><defs><clipPath id="alignments-clip-iLuhK0DKxq"><rect x="0" y="0" width="808" height="250"></rect></clipPath></defs><g clip-path="url(#alignments-clip-iLuhK0DKxq)"><g><clipPath id="svgcanvas-clip-0"><path d="M0,0h808v250h-808Z"></path></clipPath><g clip-path="url(#svgcanvas-clip-0)"><rect x="-1" y="40" width="10" height="0" fill="rgb(189,189,189)"></rect><rect x="9" y="40" width="10" height="0" fill="rgb(189,189,189)"></rect><rect x="19" y="36.81818181818182" width="10.000000000000004" height="3.18181818181818" fill="rgb(189,189,189)"></rect><rect x="29.000000000000004" y="36.81818181818182" width="9.999999999999996" height="3.18181818181818" fill="rgb(189,189,189)"></rect><rect x="39" y="36.81818181818182" width="10.000000000000007" height="3.18181818181818" fill="rgb(189,189,189)"></rect><rect x="49.00000000000001" y="36.81818181818182" width="10" height="3.18181818181818" fill="rgb(189,189,189)"></rect><rect x="59.00000000000001" y="36.81818181818182" width="9.999999999999993" height="3.18181818181818" fill="rgb(189,189,189)"></rect><rect x="69" y="33.63636363636363" width="10" height="6.363636363636367" fill="rgb(189,189,189)"></rect><rect x="79" y="33.63636363636363" width="10" height="6.363636363636367" fill="rgb(189,189,189)"></rect><rect x="89" y="33.63636363636363" width="10" height="6.363636363636367" fill="rgb(189,189,189)"></rect><rect x="99" y="33.63636363636363" width="10" height="6.363636363636367" fill="rgb(189,189,189)"></rect><rect x="109" y="33.63636363636363" width="10.000000000000014" height="6.363636363636367" fill="rgb(189,189,189)"></rect><rect x="119.00000000000001" y="33.63636363636363" width="9.999999999999986" height="6.363636363636367" fill="rgb(189,189,189)"></rect><rect x="129" y="33.63636363636363" width="10" height="6.363636363636367" fill="rgb(189,189,189)"></rect><rect x="139" y="33.63636363636363" width="10" height="6.363636363636367" fill="rgb(189,189,189)"></rect><rect x="149" y="30.454545454545453" width="10" height="9.545454545454547" fill="rgb(189,189,189)"></rect><rect x="159" y="27.272727272727273" width="10" height="12.727272727272727" fill="rgb(189,189,189)"></rect><rect x="169" y="24.09090909090909" width="9.999999999999972" height="15.90909090909091" fill="rgb(189,189,189)"></rect><rect x="178.99999999999997" y="24.09090909090909" width="10.000000000000028" height="15.90909090909091" fill="rgb(189,189,189)"></rect><rect x="189" y="24.09090909090909" width="9.999999999999972" height="15.90909090909091" fill="rgb(189,189,189)"></rect><rect x="198.99999999999997" y="24.09090909090909" width="10.000000000000028" height="15.90909090909091" fill="rgb(189,189,189)"></rect><rect x="209" y="24.09090909090909" width="10" height="15.90909090909091" fill="rgb(189,189,189)"></rect><rect x="219" y="24.09090909090909" width="9.999999999999972" height="15.90909090909091" fill="rgb(189,189,189)"></rect><rect x="228.99999999999997" y="24.09090909090909" width="10" height="15.90909090909091" fill="rgb(189,189,189)"></rect><rect x="238.99999999999997" y="24.09090909090909" width="10.000000000000028" height="15.90909090909091" fill="rgb(189,189,189)"></rect><rect x="249" y="24.09090909090909" width="10" height="15.90909090909091" fill="rgb(189,189,189)"></rect><rect x="259" y="24.09090909090909" width="10" height="15.90909090909091" fill="rgb(189,189,189)"></rect><rect x="269" y="24.09090909090909" width="10" height="15.90909090909091" fill="rgb(189,189,189)"></rect><rect x="279" y="24.09090909090909" width="10" height="15.90909090909091" fill="rgb(189,189,189)"></rect><rect x="289" y="24.09090909090909" width="10" height="15.90909090909091" fill="rgb(189,189,189)"></rect><rect x="299" y="24.09090909090909" width="10" height="15.90909090909091" fill="rgb(189,189,189)"></rect><rect x="309" y="24.09090909090909" width="9.999999999999943" height="15.90909090909091" fill="rgb(189,189,189)"></rect><rect x="318.99999999999994" y="24.09090909090909" width="10.000000000000057" height="15.90909090909091" fill="rgb(189,189,189)"></rect><rect x="329" y="24.09090909090909" width="10" height="15.90909090909091" fill="rgb(189,189,189)"></rect><rect x="339" y="24.09090909090909" width="10" height="15.90909090909091" fill="rgb(189,189,189)"></rect><rect x="349" y="24.09090909090909" width="9.999999999999943" height="15.90909090909091" fill="rgb(189,189,189)"></rect><rect x="358.99999999999994" y="24.09090909090909" width="10.000000000000057" height="15.90909090909091" fill="rgb(189,189,189)"></rect><rect x="369" y="24.09090909090909" width="10" height="15.90909090909091" fill="rgb(189,189,189)"></rect><rect x="379" y="24.09090909090909" width="10" height="15.90909090909091" fill="rgb(189,189,189)"></rect><rect x="389" y="24.09090909090909" width="10" height="15.90909090909091" fill="rgb(189,189,189)"></rect><rect x="399" y="24.09090909090909" width="10" height="15.90909090909091" fill="rgb(189,189,189)"></rect><rect x="409" y="24.09090909090909" width="10" height="15.90909090909091" fill="rgb(189,189,189)"></rect><rect x="419" y="20.90909090909091" width="10" height="19.09090909090909" fill="rgb(189,189,189)"></rect><rect x="429" y="17.727272727272727" width="10" height="22.272727272727273" fill="rgb(189,189,189)"></rect><rect x="439" y="17.727272727272727" width="10" height="22.272727272727273" fill="rgb(189,189,189)"></rect><rect x="449" y="17.727272727272727" width="10" height="22.272727272727273" fill="rgb(189,189,189)"></rect><rect x="459" y="17.727272727272727" width="9.999999999999943" height="22.272727272727273" fill="rgb(189,189,189)"></rect><rect x="468.99999999999994" y="14.545454545454543" width="10" height="25.454545454545457" fill="rgb(189,189,189)"></rect><rect x="478.99999999999994" y="14.545454545454543" width="10" height="25.454545454545457" fill="rgb(189,189,189)"></rect><rect x="488.99999999999994" y="14.545454545454543" width="10.000000000000057" height="25.454545454545457" fill="rgb(189,189,189)"></rect><rect x="499" y="14.545454545454543" width="10" height="25.454545454545457" fill="rgb(189,189,189)"></rect><rect x="509" y="14.545454545454543" width="10" height="25.454545454545457" fill="rgb(189,189,189)"></rect><rect x="519" y="14.545454545454543" width="10" height="25.454545454545457" fill="rgb(189,189,189)"></rect><rect x="529" y="14.545454545454543" width="10" height="25.454545454545457" fill="rgb(189,189,189)"></rect><rect x="539" y="14.545454545454543" width="10" height="25.454545454545457" fill="rgb(189,189,189)"></rect><rect x="549" y="11.363636363636363" width="10" height="28.636363636363637" fill="rgb(189,189,189)"></rect><rect x="559" y="11.363636363636363" width="10" height="28.636363636363637" fill="rgb(189,189,189)"></rect><rect x="569" y="11.363636363636363" width="10" height="28.636363636363637" fill="rgb(189,189,189)"></rect><rect x="579" y="11.363636363636363" width="10" height="28.636363636363637" fill="rgb(189,189,189)"></rect><rect x="589" y="11.363636363636363" width="10" height="28.636363636363637" fill="rgb(189,189,189)"></rect><rect x="599" y="11.363636363636363" width="10" height="28.636363636363637" fill="rgb(189,189,189)"></rect><rect x="609" y="11.363636363636363" width="10" height="28.636363636363637" fill="rgb(189,189,189)"></rect><rect x="619" y="11.363636363636363" width="10" height="28.636363636363637" fill="rgb(189,189,189)"></rect><rect x="629" y="11.363636363636363" width="10" height="28.636363636363637" fill="rgb(189,189,189)"></rect><rect x="639" y="11.363636363636363" width="10" height="28.636363636363637" fill="rgb(189,189,189)"></rect><rect x="649" y="8.18181818181818" width="10" height="31.81818181818182" fill="rgb(189,189,189)"></rect><rect x="659" y="8.18181818181818" width="10.000000000000114" height="31.81818181818182" fill="rgb(189,189,189)"></rect><rect x="669.0000000000001" y="8.18181818181818" width="10" height="31.81818181818182" fill="rgb(189,189,189)"></rect><rect x="679.0000000000001" y="8.18181818181818" width="10" height="31.81818181818182" fill="rgb(189,189,189)"></rect><rect x="689.0000000000001" y="8.18181818181818" width="10" height="31.81818181818182" fill="rgb(189,189,189)"></rect><rect x="699.0000000000001" y="8.18181818181818" width="10" height="31.81818181818182" fill="rgb(189,189,189)"></rect><rect x="709.0000000000001" y="8.18181818181818" width="9.999999999999886" height="31.81818181818182" fill="rgb(189,189,189)"></rect><rect x="719" y="8.18181818181818" width="10" height="31.81818181818182" fill="rgb(189,189,189)"></rect><rect x="729" y="8.18181818181818" width="10" height="31.81818181818182" fill="rgb(189,189,189)"></rect><rect x="739" y="8.18181818181818" width="10" height="31.81818181818182" fill="rgb(189,189,189)"></rect><rect x="749" y="8.18181818181818" width="10.000000000000114" height="31.81818181818182" fill="rgb(189,189,189)"></rect><rect x="759.0000000000001" y="5" width="10" height="35" fill="rgb(189,189,189)"></rect><rect x="769.0000000000001" y="5" width="10" height="35" fill="rgb(189,189,189)"></rect><rect x="779.0000000000001" y="5" width="10" height="35" fill="rgb(189,189,189)"></rect><rect x="789.0000000000001" y="5" width="9.999999999999886" height="35" fill="rgb(189,189,189)"></rect><rect x="799" y="5" width="10" height="35" fill="rgb(189,189,189)"></rect><rect x="169" y="36.818181699649855" width="9.999999999999972" height="3.1818183003501446" fill="rgb(255,152,0)"></rect><rect x="549" y="36.818181699649855" width="10" height="3.1818183003501446" fill="rgb(244,67,54)"></rect><rect x="629" y="36.818181699649855" width="10" height="3.1818183003501446" fill="rgb(76,175,80)"></rect><rect x="409" y="36.818181699649855" width="10" height="3.1818183003501446" fill="rgb(76,175,80)"></rect><rect x="729" y="36.818181699649855" width="10" height="3.1818183003501446" fill="rgb(255,152,0)"></rect><rect x="689.0000000000001" y="36.818181699649855" width="10" height="3.1818183003501446" fill="rgb(255,152,0)"></rect><rect x="749" y="36.818181699649855" width="10.000000000000114" height="3.1818183003501446" fill="rgb(244,67,54)"></rect><rect x="779.0000000000001" y="36.818181699649855" width="10" height="3.1818183003501446" fill="rgb(255,152,0)"></rect><rect x="228.99999999999997" y="36.818181699649855" width="10" height="3.1818183003501446" fill="rgb(33,150,243)"></rect><rect x="429" y="36.818181699649855" width="10" height="3.1818183003501446" fill="rgb(33,150,243)"></rect><rect x="478.99999999999994" y="36.818181699649855" width="10" height="3.1818183003501446" fill="rgb(76,175,80)"></rect><rect x="509" y="36.818181699649855" width="10" height="3.1818183003501446" fill="rgb(76,175,80)"></rect><rect x="609" y="36.818181699649855" width="10" height="3.1818183003501446" fill="rgb(255,152,0)"></rect><clipPath id="svgcanvas-clip-1"><path d="M0,45h808v205h-808Z"></path></clipPath><g clip-path="url(#svgcanvas-clip-1)"><rect x="19" y="45" width="1000.0000000000001" height="7" fill="rgb(211,211,211)"></rect><rect x="69" y="53" width="1000" height="7" fill="rgb(211,211,211)"></rect><rect x="149" y="61" width="1000" height="7" fill="rgb(211,211,211)"></rect><rect x="159" y="69" width="1000" height="7" fill="rgb(211,211,211)"></rect><rect x="169" y="77" width="1000" height="7" fill="rgb(211,211,211)"></rect><rect x="419" y="85" width="1000.0000000000002" height="7" fill="rgb(211,211,211)"></rect><rect x="429" y="93" width="1000.0000000000002" height="7" fill="rgb(211,211,211)"></rect><rect x="468.99999999999994" y="101" width="1000" height="7" fill="rgb(211,211,211)"></rect><rect x="549" y="109" width="1000" height="7" fill="rgb(211,211,211)"></rect><rect x="649" y="117" width="1000.0000000000002" height="7" fill="rgb(211,211,211)"></rect><rect x="759.0000000000001" y="125" width="999.9999999999999" height="7" fill="rgb(211,211,211)"></rect><rect x="899.0000000000001" y="133" width="999.9999999999999" height="7" fill="rgb(211,211,211)"></rect><rect x="939" y="141" width="1000" height="7" fill="rgb(211,211,211)"></rect><rect x="1089.0000000000002" y="45" width="999.9999999999998" height="7" fill="rgb(211,211,211)"></rect><rect x="169" y="53" width="10" height="7" fill="rgb(255,152,0)"></rect><rect x="549" y="53" width="10" height="7" fill="rgb(244,67,54)"></rect><rect x="629" y="53" width="10" height="7" fill="rgb(76,175,80)"></rect><rect x="829" y="53" width="10" height="7" fill="rgb(33,150,243)"></rect><rect x="409" y="61" width="10" height="7" fill="rgb(76,175,80)"></rect><rect x="729" y="61" width="10" height="7" fill="rgb(255,152,0)"></rect><rect x="1029" y="61" width="10" height="7" fill="rgb(76,175,80)"></rect><rect x="689.0000000000001" y="69" width="10" height="7" fill="rgb(255,152,0)"></rect><rect x="749" y="69" width="10" height="7" fill="rgb(244,67,54)"></rect><rect x="779.0000000000001" y="69" width="10" height="7" fill="rgb(255,152,0)"></rect><rect x="849.0000000000001" y="69" width="10" height="7" fill="rgb(76,175,80)"></rect><rect x="228.99999999999997" y="77" width="10" height="7" fill="rgb(33,150,243)"></rect><rect x="859.0000000000001" y="77" width="10" height="7" fill="rgb(255,152,0)"></rect><rect x="1109" y="77" width="10" height="7" fill="rgb(33,150,243)"></rect><rect x="1039" y="85" width="10" height="7" fill="rgb(244,67,54)"></rect><rect x="429" y="93" width="10" height="7" fill="rgb(33,150,243)"></rect><rect x="1339" y="93" width="10" height="7" fill="rgb(76,175,80)"></rect><rect x="478.99999999999994" y="101" width="10" height="7" fill="rgb(76,175,80)"></rect><rect x="509" y="101" width="10" height="7" fill="rgb(76,175,80)"></rect><rect x="609" y="109" width="10" height="7" fill="rgb(255,152,0)"></rect><rect x="1039" y="117" width="10" height="7" fill="rgb(33,150,243)"></rect></g></g></g><line x1="0" y1="45" x2="808" y2="45" stroke="#9e9e9e" stroke-width="1"></line><g transform="translate(0,5)"></g></g><g transform="translate(0)"><g fill="none" font-size="10" font-family="sans-serif" text-anchor="end" stroke-width="1"><path stroke="rgb(0, 0, 0)" d="M-6,5H0.5V40H-6"></path><g transform="translate(0,40)"><line stroke="rgb(0, 0, 0)" x2="-6" y1="0.5" y2="0.5"></line><text stroke="#fff" stroke-width="2.5" paint-order="stroke" fill="rgb(0, 0, 0)" dy="0.32em" x="-9" y="0.5">0</text></g><g transform="translate(0,5)"><line stroke="rgb(0, 0, 0)" x2="-6" y1="0.5" y2="0.5"></line><text stroke="#fff" stroke-width="2.5" paint-order="stroke" fill="rgb(0, 0, 0)" dy="0.32em" x="-9" y="0.5">11</text></g></g></g></g></g><g><text x="0" y="5" fill="#000000" font-size="13" dominant-baseline="hanging">volvox-sorted.bam (ctgA, canvas)</text></g></g></g></g></svg>