<svg width="908" height="788" xmlns="http://www.w3.org/2000/svg" xmlns:xlink="http://www.w3.org/1999/xlink" viewBox="0 0 908 788"><rect width="908" height="788" fill="#ffffff"></rect><g transform="translate(50 0)"><g transform="translate(0)"><g id="header"><text x="0" y="0" dominant-baseline="hanging" font-size="13" fill="#000000">volvox</text><g transform="translate(0 22)"><line x1="0" x2="808" y1="0" y2="0" stroke="#000000"></line><line x1="0" x2="0" y1="-5" y2="5" stroke="#000000"></line><line x1="808" x2="808" y1="-5" y2="5" stroke="#000000"></line><text x="404" y="5" text-anchor="middle" dominant-baseline="hanging" font-size="13" fill="#000000">80bp</text></g><g transform="translate(0 44)"><defs><clipPath id="ruler-clip-integration_test"><rect x="0" y="0" width="808" height="34"></rect></clipPath></defs><g clip-path="url(#ruler-clip-integration_test)"><path d="M189 27V32M389 27V32M589 27V32M789 27V32M989 27V32M1189 27V32M1389 27V32M1589 27V32M9 27V30M29 27V30M49 27V30M69 27V30M89 27V30M109 27V30M129 27V30M149 27V30M169 27V30M209 27V30M229 27V30M249 27V30M269 27V30M289 27V30M309 27V30M329 27V30M349 27V30M369 27V30M409 27V30M429 27V30M449 27V30M469 27V30M489 27V30M509 27V30M529 27V30M549 27V30M569 27V30M609 27V30M629 27V30M649 27V30M669 27V30M689 27V30M709 27V30M729 27V30M749 27V30M769 27V30M809 27V30M829 27V30M849 27V30M869 27V30M889 27V30M909 27V30M929 27V30M949 27V30M969 27V30M1009 27V30M1029 27V30M1049 27V30M1069 27V30M1089 27V30M1109 27V30M1129 27V30M1149 27V30M1169 27V30M1209 27V30M1229 27V30M1249 27V30M1269 27V30M1289 27V30M1309 27V30M1329 27V30M1349 27V30M1369 27V30M1409 27V30M1429 27V30M1449 27V30M1469 27V30M1489 27V30M1509 27V30M1529 27V30M1549 27V30M1569 27V30" stroke-width="1" stroke="#000000" fill="none"></path><text x="189" y="25" text-anchor="middle" font-size="11" fill="#000000">20</text><text x="389" y="25" text-anchor="middle" font-size="11" fill="#000000">40</text><text x="589" y="25" text-anchor="middle" font-size="11" fill="#000000">60</text><text x="789" y="25" text-anchor="middle" font-size="11" fill="#000000">80</text></g><g transform="translate(0 0)"><defs><clipPath id="reflabel-integration_test-volvox:ctgA:0:80:0"><rect x="0" y="0" width="1598" height="15"></rect></clipPath></defs><g clip-path="url(#reflabel-integration_test-volvox:ctgA:0:80:0)"><text x="0" y="13" font-size="11" font-weight="bold" fill="#000000">ctgA</text></g></g></g></g></g><g transform="translate(0 78)"><g transform="translate(0 0)"><defs><clipPath id="track-clip-integration_test-volvox_alignments_pileup_coverage"><rect x="-50" y="18" width="858" height="250"></rect></clipPath></defs><g clip-path="url(#track-clip-integration_test-volvox_alignments_pileup_coverage)"><g transform="translate(0 18)"><defs><clipPath id="alignments-clip-5GfQp_z8Ji"><rect x="0" y="0" width="808" height="250"></rect></clipPath></defs><g clip-path="url(#alignments-clip-5GfQp_z8Ji)"><g><clipPath id="svgcanvas-clip-0"><path d="M0,0h808v250h-808Z"></path></clipPath><g clip-path="url(#svgcanvas-clip-0)"><clipPath id="svgcanvas-clip-1"><path d="M0,0h808v250h-808Z"></path></clipPath><g clip-path="url(#svgcanvas-clip-1)"><rect x="-1" y="40" width="10.8" height="0" fill="rgb(189,189,189)"></rect><rect x="9" y="40" width="10.8" height="0" fill="rgb(189,189,189)"></rect><rect x="19" y="36.82" width="10.8" height="3.18" fill="rgb(189,189,189)"></rect><rect x="29" y="36.82" width="10.8" height="3.18" fill="rgb(189,189,189)"></rect><rect x="39" y="36.82" width="10.8" height="3.18" fill="rgb(189,189,189)"></rect><rect x="49" y="36.82" width="10.8" height="3.18" fill="rgb(189,189,189)"></rect><rect x="59" y="36.82" width="10.8" height="3.18" fill="rgb(189,189,189)"></rect><rect x="69" y="33.64" width="10.8" height="6.36" fill="rgb(189,189,189)"></rect><rect x="79" y="33.64" width="10.8" height="6.36" fill="rgb(189,189,189)"></rect><rect x="89" y="33.64" width="10.8" height="6.36" fill="rgb(189,189,189)"></rect><rect x="99" y="33.64" width="10.8" height="6.36" fill="rgb(189,189,189)"></rect><rect x="109" y="33.64" width="10.8" height="6.36" fill="rgb(189,189,189)"></rect><rect x="119" y="33.64" width="10.8" height="6.36" fill="rgb(189,189,189)"></rect><rect x="129" y="33.64" width="10.8" height="6.36" fill="rgb(189,189,189)"></rect><rect x="139" y="33.64" width="10.8" height="6.36" fill="rgb(189,189,189)"></rect><rect x="149" y="30.45" width="10.8" height="9.55" fill="rgb(189,189,189)"></rect><rect x="159" y="27.27" width="10.8" height="12.73" fill="rgb(189,189,189)"></rect><rect x="169" y="24.09" width="10.8" height="15.91" fill="rgb(189,189,189)"></rect><rect x="179" y="24.09" width="10.8" height="15.91" fill="rgb(189,189,189)"></rect><rect x="189" y="24.09" width="10.8" height="15.91" fill="rgb(189,189,189)"></rect><rect x="199" y="24.09" width="10.8" height="15.91" fill="rgb(189,189,189)"></rect><rect x="209" y="24.09" width="10.8" height="15.91" fill="rgb(189,189,189)"></rect><rect x="219" y="24.09" width="10.8" height="15.91" fill="rgb(189,189,189)"></rect><rect x="229" y="24.09" width="10.8" height="15.91" fill="rgb(189,189,189)"></rect><rect x="239" y="24.09" width="10.8" height="15.91" fill="rgb(189,189,189)"></rect><rect x="249" y="24.09" width="10.8" height="15.91" fill="rgb(189,189,189)"></rect><rect x="259" y="24.09" width="10.8" height="15.91" fill="rgb(189,189,189)"></rect><rect x="269" y="24.09" width="10.8" height="15.91" fill="rgb(189,189,189)"></rect><rect x="279" y="24.09" width="10.8" height="15.91" fill="rgb(189,189,189)"></rect><rect x="289" y="24.09" width="10.8" height="15.91" fill="rgb(189,189,189)"></rect><rect x="299" y="24.09" width="10.8" height="15.91" fill="rgb(189,189,189)"></rect><rect x="309" y="24.09" width="10.8" height="15.91" fill="rgb(189,189,189)"></rect><rect x="319" y="24.09" width="10.8" height="15.91" fill="rgb(189,189,189)"></rect><rect x="329" y="24.09" width="10.8" height="15.91" fill="rgb(189,189,189)"></rect><rect x="339" y="24.09" width="10.8" height="15.91" fill="rgb(189,189,189)"></rect><rect x="349" y="24.09" width="10.8" height="15.91" fill="rgb(189,189,189)"></rect><rect x="359" y="24.09" width="10.8" height="15.91" fill="rgb(189,189,189)"></rect><rect x="369" y="24.09" width="10.8" height="15.91" fill="rgb(189,189,189)"></rect><rect x="379" y="24.09" width="10.8" height="15.91" fill="rgb(189,189,189)"></rect><rect x="389" y="24.09" width="10.8" height="15.91" fill="rgb(189,189,189)"></rect><rect x="399" y="24.09" width="10.8" height="15.91" fill="rgb(189,189,189)"></rect><rect x="409" y="24.09" width="10.8" height="15.91" fill="rgb(189,189,189)"></rect><rect x="419" y="20.91" width="10.8" height="19.09" fill="rgb(189,189,189)"></rect><rect x="429" y="17.73" width="10.8" height="22.27" fill="rgb(189,189,189)"></rect><rect x="439" y="17.73" width="10.8" height="22.27" fill="rgb(189,189,189)"></rect><rect x="449" y="17.73" width="10.8" height="22.27" fill="rgb(189,189,189)"></rect><rect x="459" y="17.73" width="10.8" height="22.27" fill="rgb(189,189,189)"></rect><rect x="469" y="14.55" width="10.8" height="25.45" fill="rgb(189,189,189)"></rect><rect x="479" y="14.55" width="10.8" height="25.45" fill="rgb(189,189,189)"></rect><rect x="489" y="14.55" width="10.8" height="25.45" fill="rgb(189,189,189)"></rect><rect x="499" y="14.55" width="10.8" height="25.45" fill="rgb(189,189,189)"></rect><rect x="509" y="14.55" width="10.8" height="25.45" fill="rgb(189,189,189)"></rect><rect x="519" y="14.55" width="10.8" height="25.45" fill="rgb(189,189,189)"></rect><rect x="529" y="14.55" width="10.8" height="25.45" fill="rgb(189,189,189)"></rect><rect x="539" y="14.55" width="10.8" height="25.45" fill="rgb(189,189,189)"></rect><rect x="549" y="11.36" width="10.8" height="28.64" fill="rgb(189,189,189)"></rect><rect x="559" y="11.36" width="10.8" height="28.64" fill="rgb(189,189,189)"></rect><rect x="569" y="11.36" width="10.8" height="28.64" fill="rgb(189,189,189)"></rect><rect x="579" y="11.36" width="10.8" height="28.64" fill="rgb(189,189,189)"></rect><rect x="589" y="11.36" width="10.8" height="28.64" fill="rgb(189,189,189)"></rect><rect x="599" y="11.36" width="10.8" height="28.64" fill="rgb(189,189,189)"></rect><rect x="609" y="11.36" width="10.8" height="28.64" fill="rgb(189,189,189)"></rect><rect x="619" y="11.36" width="10.8" height="28.64" fill="rgb(189,189,189)"></rect><rect x="629" y="11.36" width="10.8" height="28.64" fill="rgb(189,189,189)"></rect><rect x="639" y="11.36" width="10.8" height="28.64" fill="rgb(189,189,189)"></rect><rect x="649" y="8.18" width="10.8" height="31.82" fill="rgb(189,189,189)"></rect><rect x="659" y="8.18" width="10.8" height="31.82" fill="rgb(189,189,189)"></rect><rect x="669" y="8.18" width="10.8" height="31.82" fill="rgb(189,189,189)"></rect><rect x="679" y="8.18" width="10.8" height="31.82" fill="rgb(189,189,189)"></rect><rect x="689" y="8.18" width="10.8" height="31.82" fill="rgb(189,189,189)"></rect><rect x="699" y="8.18" width="10.8" height="31.82" fill="rgb(189,189,189)"></rect><rect x="709" y="8.18" width="10.8" height="31.82" fill="rgb(189,189,189)"></rect><rect x="719" y="8.18" width="10.8" height="31.82" fill="rgb(189,189,189)"></rect><rect x="729" y="8.18" width="10.8" height="31.82" fill="rgb(189,189,189)"></rect><rect x="739" y="8.18" width="10.8" height="31.82" fill="rgb(189,189,189)"></rect><rect x="749" y="8.18" width="10.8" height="31.82" fill="rgb(189,189,189)"></rect><rect x="759" y="5" width="10.8" height="35" fill="rgb(189,189,189)"></rect><rect x="769" y="5" width="10.8" height="35" fill="rgb(189,189,189)"></rect><rect x="779" y="5" width="10.8" height="35" fill="rgb(189,189,189)"></rect><rect x="789" y="5" width="10.8" height="35" fill="rgb(189,189,189)"></rect><rect x="799" y="5" width="10.8" height="35" fill="rgb(189,189,189)"></rect><rect x="169" y="36.82" width="10" height="3.18" fill="rgb(255,152,0)"></rect><rect x="549" y="36.82" width="10" height="3.18" fill="rgb(244,67,54)"></rect><rect x="629" y="36.82" width="10" height="3.18" fill="rgb(76,175,80)"></rect><rect x="409" y="36.82" width="10" height="3.18" fill="rgb(76,175,80)"></rect><rect x="729" y="36.82" width="10" height="3.18" fill="rgb(255,152,0)"></rect><rect x="689" y="36.82" width="10" height="3.18" fill="rgb(255,152,0)"></rect><rect x="749" y="36.82" width="10" height="3.18" fill="rgb(244,67,54)"></rect><rect x="779" y="36.82" width="10" height="3.18" fill="rgb(255,152,0)"></rect><rect x="229" y="36.82" width="10" height="3.18" fill="rgb(33,150,243)"></rect><rect x="429" y="36.82" width="10" height="3.18" fill="rgb(33,150,243)"></rect><rect x="479" y="36.82" width="10" height="3.18" fill="rgb(76,175,80)"></rect><rect x="509" y="36.82" width="10" height="3.18" fill="rgb(76,175,80)"></rect><rect x="609" y="36.82" width="10" height="3.18" fill="rgb(255,152,0)"></rect></g><clipPath id="svgcanvas-clip-2"><path d="M0,45h808v205h-808Z"></path></clipPath><g clip-path="url(#svgcanvas-clip-2)"><path d="M19,45L1019,45L1027,48.5L1019,52L19,52Z" fill="rgb(211,211,211)" stroke="none"></path><path d="M69,53L1069,53L1077,56.5L1069,60L69,60Z" fill="rgb(211,211,211)" stroke="none"></path><path d="M149,61L1149,61L1157,64.5L1149,68L149,68Z" fill="rgb(211,211,211)" stroke="none"></path><path d="M159,69L1159,69L1167,72.5L1159,76L159,76Z" fill="rgb(211,211,211)" stroke="none"></path><path d="M169,77L1169,77L1177,80.5L1169,84L169,84Z" fill="rgb(211,211,211)" stroke="none"></path><rect x="419" y="85" width="1000" height="7" fill="rgb(211,211,211)"></rect><rect x="429" y="93" width="1000" height="7" fill="rgb(211,211,211)"></rect><rect x="469" y="101" width="1000" height="7" fill="rgb(211,211,211)"></rect><rect x="549" y="109" width="1000" height="7" fill="rgb(211,211,211)"></rect><rect x="649" y="117" width="1000" height="7" fill="rgb(211,211,211)"></rect><rect x="759" y="125" width="1000" height="7" fill="rgb(211,211,211)"></rect><rect x="899" y="133" width="1000" height="7" fill="rgb(211,211,211)"></rect><rect x="939" y="141" width="1000" height="7" fill="rgb(211,211,211)"></rect><rect x="1089" y="45" width="1000" height="7" fill="rgb(211,211,211)"></rect><rect x="169" y="53" width="10" height="7" fill="rgb(255,152,0)"></rect><rect x="549" y="53" width="10" height="7" fill="rgb(244,67,54)"></rect><rect x="629" y="53" width="10" height="7" fill="rgb(76,175,80)"></rect><rect x="829" y="53" width="10" height="7" fill="rgb(33,150,243)"></rect><rect x="409" y="61" width="10" height="7" fill="rgb(76,175,80)"></rect><rect x="729" y="61" width="10" height="7" fill="rgb(255,152,0)"></rect><rect x="1029" y="61" width="10" height="7" fill="rgb(76,175,80)"></rect><rect x="689" y="69" width="10" height="7" fill="rgb(255,152,0)"></rect><rect x="749" y="69" width="10" height="7" fill="rgb(244,67,54)"></rect><rect x="779" y="69" width="10" height="7" fill="rgb(255,152,0)"></rect><rect x="849" y="69" width="10" height="7" fill="rgb(76,175,80)"></rect><rect x="229" y="77" width="10" height="7" fill="rgb(33,150,243)"></rect><rect x="859" y="77" width="10" height="7" fill="rgb(255,152,0)"></rect><rect x="1109" y="77" width="10" height="7" fill="rgb(33,150,243)"></rect><rect x="1039" y="85" width="10" height="7" fill="rgb(244,67,54)"></rect><rect x="429" y="93" width="10" height="7" fill="rgb(33,150,243)"></rect><rect x="479" y="101" width="10" height="7" fill="rgb(76,175,80)"></rect><rect x="509" y="101" width="10" height="7" fill="rgb(76,175,80)"></rect><rect x="609" y="109" width="10" height="7" fill="rgb(255,152,0)"></rect><rect x="1039" y="117" width="10" height="7" fill="rgb(33,150,243)"></rect></g></g><text x="174" y="56.5" fill="rgb(0,0,0)" fill-opacity="0.87" font-size="8" text-anchor="middle" dominant-baseline="middle">G</text><text x="554" y="56.5" fill="#fff" font-size="8" text-anchor="middle" dominant-baseline="middle">T</text><text x="634" y="56.5" fill="rgb(0,0,0)" fill-opacity="0.87" font-size="8" text-anchor="middle" dominant-baseline="middle">A</text><text x="414" y="64.5" fill="rgb(0,0,0)" fill-opacity="0.87" font-size="8" text-anchor="middle" dominant-baseline="middle">A</text><text x="734" y="64.5" fill="rgb(0,0,0)" fill-opacity="0.87" font-size="8" text-anchor="middle" dominant-baseline="middle">G</text><text x="694" y="72.5" fill="rgb(0,0,0)" fill-opacity="0.87" font-size="8" text-anchor="middle" dominant-baseline="middle">G</text><text x="754" y="72.5" fill="#fff" font-size="8" text-anchor="middle" dominant-baseline="middle">T</text><text x="784" y="72.5" fill="rgb(0,0,0)" fill-opacity="0.87" font-size="8" text-anchor="middle" dominant-baseline="middle">G</text><text x="234" y="80.5" fill="#fff" font-size="8" text-anchor="middle" dominant-baseline="middle">C</text><text x="434" y="96.5" fill="#fff" font-size="8" text-anchor="middle" dominant-baseline="middle">C</text><text x="484" y="104.5" fill="rgb(0,0,0)" fill-opacity="0.87" font-size="8" text-anchor="middle" dominant-baseline="middle">A</text><text x="514" y="104.5" fill="rgb(0,0,0)" fill-opacity="0.87" font-size="8" text-anchor="middle" dominant-baseline="middle">A</text><text x="614" y="112.5" fill="rgb(0,0,0)" fill-opacity="0.87" font-size="8" text-anchor="middle" dominant-baseline="middle">G</text></g><g></g></g><g transform="translate(0, 0)"><g font-size="10" text-anchor="end" stroke="rgb(0, 0, 0)" stroke-width="1"><path fill="none" d="M-6 5.5H0.5V40.5H-6"></path><g transform="translate(0,40)"><line x2="-6" y1="0.5" y2="0.5"></line><text stroke="#fff" stroke-width="2.5" paint-order="stroke" fill="rgb(0, 0, 0)" dy="0.32em" x="-9" y="0.5">0</text></g><g transform="translate(0,5)"><line x2="-6" y1="0.5" y2="0.5"></line><text stroke="#fff" stroke-width="2.5" paint-order="stroke" fill="rgb(0, 0, 0)" dy="0.32em" x="-9" y="0.5">11</text></g></g></g></g></g><text x="0" y="5" font-size="13" dominant-baseline="hanging" fill="#000000">volvox-sorted.bam (ctgA, canvas)</text></g><g transform="translate(0 270)"><defs><clipPath id="track-clip-integration_test-volvox_alignments_bai_nonexist"><rect x="-50" y="18" width="858" height="250"></rect></clipPath></defs><g clip-path="url(#track-clip-integration_test-volvox_alignments_bai_nonexist)"><g transform="translate(0 18)"><rect x="0" y="0" width="808" height="250" fill="#ffdddd"></rect><text x="10" y="125" fill="#cc0000" font-size="14">Error: HTTP 404 fetching volvox-sorted.bam.bai.nonexist</text></g></g><text x="0" y="5" font-size="13" dominant-baseline="hanging" fill="#000000">volvox-sorted.bam (bai nonexist 404)</text></g><g transform="translate(0 540)"><defs><clipPath id="track-clip-integration_test-volvox_bigwig_nonexist"><rect x="-50" y="18" width="858" height="100"></rect></clipPath></defs><g clip-path="url(#track-clip-integration_test-volvox_bigwig_nonexist)"><g transform="translate(0 18)"><rect x="0" y="0" width="808" height="100" fill="#ffdddd"></rect><text x="10" y="50" fill="#cc0000" font-size="14">Error: HTTP 404 fetching volvox.bw.nonexist bytes 0-262143</text></g></g><text x="0" y="5" font-size="13" dominant-baseline="hanging" fill="#000000">wiggle_track 404</text></g></g><g transform="translate(0 78)"><defs><clipPath id="highlight-clip-integration_test"><rect x="0" y="0" width="808" height="660"></rect></clipPath></defs><g clip-path="url(#highlight-clip-integration_test)"></g></g></g></svg>