<svg width="908" height="320" xmlns="http://www.w3.org/2000/svg" xmlns:xlink="http://www.w3.org/1999/xlink" viewBox="0 0 908 320"><rect width="908" height="320" fill="#ffffff"></rect><g transform="translate(50 0)"><g transform="translate(0)"><g id="header"><text x="0" y="0" dominant-baseline="hanging" font-size="13" fill="#000000">volvox</text><g transform="translate(0 13)"><line x1="0" x2="808" y1="10" y2="10" stroke="#000000"></line><line x1="0" x2="0" y1="5" y2="15" stroke="#000000"></line><line x1="808" x2="808" y1="5" y2="15" stroke="#000000"></line><text x="404" y="13" text-anchor="middle" dominant-baseline="hanging" font-size="13" fill="#000000">7.72Kbp</text></g><g transform="translate(0 50)"><g><defs><clipPath id="clip-volvox:ctgA:2.534653465343581:7722.534653465344:0:rev"><rect x="0" y="0" width="808" height="100"></rect></clipPath></defs><g transform="translate(0 0)"><g clip-path="url(#clip-volvox:ctgA:2.534653465343581:7722.534653465344:0:rev)"><text x="4" y="13" font-size="13" fill="#000000">ctgA</text><g transform="translate(0 20)"><line x1="829.3025906735747" x2="829.3025906735747" y1="0" y2="4" stroke-width="1" stroke="#000000"></line><line x1="808.3699481865282" x2="808.3699481865282" y1="0" y2="6" stroke-width="1" stroke="#000000"></line><line x1="787.4373056994815" x2="787.4373056994815" y1="0" y2="4" stroke-width="1" stroke="#000000"></line><line x1="766.5046632124349" x2="766.5046632124349" y1="0" y2="4" stroke-width="1" stroke="#000000"></line><line x1="745.5720207253883" x2="745.5720207253883" y1="0" y2="4" stroke-width="1" stroke="#000000"></line><line x1="724.6393782383416" x2="724.6393782383416" y1="0" y2="4" stroke-width="1" stroke="#000000"></line><line x1="703.706735751295" x2="703.706735751295" y1="0" y2="4" stroke-width="1" stroke="#000000"></line><line x1="682.7740932642483" x2="682.7740932642483" y1="0" y2="4" stroke-width="1" stroke="#000000"></line><line x1="661.8414507772018" x2="661.8414507772018" y1="0" y2="4" stroke-width="1" stroke="#000000"></line><line x1="640.9088082901551" x2="640.9088082901551" y1="0" y2="4" stroke-width="1" stroke="#000000"></line><line x1="619.9761658031084" x2="619.9761658031084" y1="0" y2="4" stroke-width="1" stroke="#000000"></line><line x1="599.0435233160619" x2="599.0435233160619" y1="0" y2="6" stroke-width="1" stroke="#000000"></line><line x1="578.1108808290152" x2="578.1108808290152" y1="0" y2="4" stroke-width="1" stroke="#000000"></line><line x1="557.1782383419686" x2="557.1782383419686" y1="0" y2="4" stroke-width="1" stroke="#000000"></line><line x1="536.2455958549219" x2="536.2455958549219" y1="0" y2="4" stroke-width="1" stroke="#000000"></line><line x1="515.3129533678754" x2="515.3129533678754" y1="0" y2="4" stroke-width="1" stroke="#000000"></line><line x1="494.3803108808287" x2="494.3803108808287" y1="0" y2="4" stroke-width="1" stroke="#000000"></line><line x1="473.44766839378207" x2="473.44766839378207" y1="0" y2="4" stroke-width="1" stroke="#000000"></line><line x1="452.51502590673545" x2="452.51502590673545" y1="0" y2="4" stroke-width="1" stroke="#000000"></line><line x1="431.58238341968877" x2="431.58238341968877" y1="0" y2="4" stroke-width="1" stroke="#000000"></line><line x1="410.64974093264215" x2="410.64974093264215" y1="0" y2="4" stroke-width="1" stroke="#000000"></line><line x1="389.7170984455955" x2="389.7170984455955" y1="0" y2="6" stroke-width="1" stroke="#000000"></line><line x1="368.7844559585489" x2="368.7844559585489" y1="0" y2="4" stroke-width="1" stroke="#000000"></line><line x1="347.8518134715023" x2="347.8518134715023" y1="0" y2="4" stroke-width="1" stroke="#000000"></line><line x1="326.9191709844556" x2="326.9191709844556" y1="0" y2="4" stroke-width="1" stroke="#000000"></line><line x1="305.986528497409" x2="305.986528497409" y1="0" y2="4" stroke-width="1" stroke="#000000"></line><line x1="285.05388601036236" x2="285.05388601036236" y1="0" y2="4" stroke-width="1" stroke="#000000"></line><line x1="264.12124352331574" x2="264.12124352331574" y1="0" y2="4" stroke-width="1" stroke="#000000"></line><line x1="243.18860103626912" x2="243.18860103626912" y1="0" y2="4" stroke-width="1" stroke="#000000"></line><line x1="222.25595854922247" x2="222.25595854922247" y1="0" y2="4" stroke-width="1" stroke="#000000"></line><line x1="201.32331606217585" x2="201.32331606217585" y1="0" y2="4" stroke-width="1" stroke="#000000"></line><line x1="180.39067357512923" x2="180.39067357512923" y1="0" y2="6" stroke-width="1" stroke="#000000"></line><line x1="159.45803108808258" x2="159.45803108808258" y1="0" y2="4" stroke-width="1" stroke="#000000"></line><line x1="138.52538860103596" x2="138.52538860103596" y1="0" y2="4" stroke-width="1" stroke="#000000"></line><line x1="117.59274611398932" x2="117.59274611398932" y1="0" y2="4" stroke-width="1" stroke="#000000"></line><line x1="96.66010362694269" x2="96.66010362694269" y1="0" y2="4" stroke-width="1" stroke="#000000"></line><line x1="75.72746113989606" x2="75.72746113989606" y1="0" y2="4" stroke-width="1" stroke="#000000"></line><line x1="54.79481865284943" x2="54.79481865284943" y1="0" y2="4" stroke-width="1" stroke="#000000"></line><line x1="33.8621761658028" x2="33.8621761658028" y1="0" y2="4" stroke-width="1" stroke="#000000"></line><line x1="12.929533678756167" x2="12.929533678756167" y1="0" y2="4" stroke-width="1" stroke="#000000"></line><line x1="-8.003108808290465" x2="-8.003108808290465" y1="0" y2="4" stroke-width="1" stroke="#000000"></line><line x1="-28.935751295337095" x2="-28.935751295337095" y1="0" y2="6" stroke-width="1" stroke="#000000"></line><text x="596.0435233160619" y="18" font-size="11" fill="#000000">2,000</text><text x="386.7170984455955" y="18" font-size="11" fill="#000000">4,000</text><text x="177.39067357512923" y="18" font-size="11" fill="#000000">6,000</text></g></g></g></g></g></g></g><g transform="translate(0 100)"><g transform="translate(0 0)"><defs><clipPath id="track-clip-gff3tabix_genes"><rect x="-50" y="18" width="858" height="100"></rect></clipPath></defs><g clip-path="url(#track-clip-gff3tabix_genes)"><g transform="translate(0 18)"><defs><clipPath id="canvas-features-clip-5GfQp_z8Ji"><rect x="0" y="0" width="808" height="100"></rect></clipPath></defs><g clip-path="url(#canvas-features-clip-5GfQp_z8Ji)"><g><clipPath id="svgcanvas-clip-0"><path d="M0,0h808v100h-808Z"></path></clipPath><g clip-path="url(#svgcanvas-clip-0)"><path d="M651.2704663212432,25.5L-1232.5626943005184,25.5" fill="none" stroke="rgb(0,0,0)" stroke-width="1"></path><path d="M651.2704663212432,65.5L494.3803108808287,65.5" fill="none" stroke="rgb(0,0,0)" stroke-width="1"></path><path d="M535.6028497409324,63.5L531.6028497409324,65.5L535.6028497409324,67.5" fill="none" stroke="rgb(0,0,0)" stroke-width="0.5"></path><path d="M574.8253886010359,63.5L570.8253886010359,65.5L574.8253886010359,67.5" fill="none" stroke="rgb(0,0,0)" stroke-width="0.5"></path><path d="M614.0479274611396,63.5L610.0479274611396,65.5L614.0479274611396,67.5" fill="none" stroke="rgb(0,0,0)" stroke-width="0.5"></path><path d="M651.2704663212432,85.5L285.05388601036236,85.5" fill="none" stroke="rgb(0,0,0)" stroke-width="1"></path><path d="M323.67554404145045,83.5L319.67554404145045,85.5L323.67554404145045,87.5" fill="none" stroke="rgb(0,0,0)" stroke-width="0.5"></path><path d="M360.29720207253854,83.5L356.29720207253854,85.5L360.29720207253854,87.5" fill="none" stroke="rgb(0,0,0)" stroke-width="0.5"></path><path d="M396.9188601036266,83.5L392.9188601036266,85.5L396.9188601036266,87.5" fill="none" stroke="rgb(0,0,0)" stroke-width="0.5"></path><path d="M433.5405181347147,83.5L429.5405181347147,85.5L433.5405181347147,87.5" fill="none" stroke="rgb(0,0,0)" stroke-width="0.5"></path><path d="M470.1621761658028,83.5L466.1621761658028,85.5L470.1621761658028,87.5" fill="none" stroke="rgb(0,0,0)" stroke-width="0.5"></path><path d="M506.7838341968909,83.5L502.7838341968909,85.5L506.7838341968909,87.5" fill="none" stroke="rgb(0,0,0)" stroke-width="0.5"></path><path d="M543.405492227979,83.5L539.405492227979,85.5L543.405492227979,87.5" fill="none" stroke="rgb(0,0,0)" stroke-width="0.5"></path><path d="M580.0271502590671,83.5L576.0271502590671,85.5L580.0271502590671,87.5" fill="none" stroke="rgb(0,0,0)" stroke-width="0.5"></path><path d="M616.6488082901551,83.5L612.6488082901551,85.5L616.6488082901551,87.5" fill="none" stroke="rgb(0,0,0)" stroke-width="0.5"></path><path d="M232.6176165803106,85.5L75.72746113989615,85.5" fill="none" stroke="rgb(0,0,0)" stroke-width="1"></path><path d="M116.94999999999976,83.5L112.94999999999976,85.5L116.94999999999976,87.5" fill="none" stroke="rgb(0,0,0)" stroke-width="0.5"></path><path d="M156.17253886010337,83.5L152.17253886010337,85.5L156.17253886010337,87.5" fill="none" stroke="rgb(0,0,0)" stroke-width="0.5"></path><path d="M195.39507772020698,83.5L191.39507772020698,85.5L195.39507772020698,87.5" fill="none" stroke="rgb(0,0,0)" stroke-width="0.5"></path><path d="M651.2704663212432,105.5L494.3803108808287,105.5" fill="none" stroke="rgb(0,0,0)" stroke-width="1"></path><path d="M535.6028497409324,103.5L531.6028497409324,105.5L535.6028497409324,107.5" fill="none" stroke="rgb(0,0,0)" stroke-width="0.5"></path><path d="M574.8253886010359,103.5L570.8253886010359,105.5L574.8253886010359,107.5" fill="none" stroke="rgb(0,0,0)" stroke-width="0.5"></path><path d="M614.0479274611396,103.5L610.0479274611396,105.5L614.0479274611396,107.5" fill="none" stroke="rgb(0,0,0)" stroke-width="0.5"></path><path d="M399.86943005181314,105.5L285.05388601036236,105.5" fill="none" stroke="rgb(0,0,0)" stroke-width="1"></path><path d="M325.32573402417927,103.5L321.32573402417927,105.5L325.32573402417927,107.5" fill="none" stroke="rgb(0,0,0)" stroke-width="0.5"></path><path d="M363.59758203799623,103.5L359.59758203799623,105.5L363.59758203799623,107.5" fill="none" stroke="rgb(0,0,0)" stroke-width="0.5"></path><path d="M232.6176165803106,105.5L75.72746113989615,105.5" fill="none" stroke="rgb(0,0,0)" stroke-width="1"></path><path d="M116.94999999999976,103.5L112.94999999999976,105.5L116.94999999999976,107.5" fill="none" stroke="rgb(0,0,0)" stroke-width="0.5"></path><path d="M156.17253886010337,103.5L152.17253886010337,105.5L156.17253886010337,107.5" fill="none" stroke="rgb(0,0,0)" stroke-width="0.5"></path><path d="M195.39507772020698,103.5L191.39507772020698,105.5L195.39507772020698,107.5" fill="none" stroke="rgb(0,0,0)" stroke-width="0.5"></path><path d="M651.2704663212432,117.5L285.05388601036236,117.5" fill="none" stroke="rgb(0,0,0)" stroke-width="1"></path><path d="M323.67554404145045,115.5L319.67554404145045,117.5L323.67554404145045,119.5" fill="none" stroke="rgb(0,0,0)" stroke-width="0.5"></path><path d="M360.29720207253854,115.5L356.29720207253854,117.5L360.29720207253854,119.5" fill="none" stroke="rgb(0,0,0)" stroke-width="0.5"></path><path d="M396.9188601036266,115.5L392.9188601036266,117.5L396.9188601036266,119.5" fill="none" stroke="rgb(0,0,0)" stroke-width="0.5"></path><path d="M433.5405181347147,115.5L429.5405181347147,117.5L433.5405181347147,119.5" fill="none" stroke="rgb(0,0,0)" stroke-width="0.5"></path><path d="M470.1621761658028,115.5L466.1621761658028,117.5L470.1621761658028,119.5" fill="none" stroke="rgb(0,0,0)" stroke-width="0.5"></path><path d="M506.7838341968909,115.5L502.7838341968909,117.5L506.7838341968909,119.5" fill="none" stroke="rgb(0,0,0)" stroke-width="0.5"></path><path d="M543.405492227979,115.5L539.405492227979,117.5L543.405492227979,119.5" fill="none" stroke="rgb(0,0,0)" stroke-width="0.5"></path><path d="M580.0271502590671,115.5L576.0271502590671,117.5L580.0271502590671,119.5" fill="none" stroke="rgb(0,0,0)" stroke-width="0.5"></path><path d="M616.6488082901551,115.5L612.6488082901551,117.5L616.6488082901551,119.5" fill="none" stroke="rgb(0,0,0)" stroke-width="0.5"></path><path d="M232.6176165803106,117.5L75.72746113989615,117.5" fill="none" stroke="rgb(0,0,0)" stroke-width="1"></path><path d="M116.94999999999976,115.5L112.94999999999976,117.5L116.94999999999976,119.5" fill="none" stroke="rgb(0,0,0)" stroke-width="0.5"></path><path d="M156.17253886010337,115.5L152.17253886010337,117.5L156.17253886010337,119.5" fill="none" stroke="rgb(0,0,0)" stroke-width="0.5"></path><path d="M195.39507772020698,115.5L191.39507772020698,117.5L195.39507772020698,119.5" fill="none" stroke="rgb(0,0,0)" stroke-width="0.5"></path><path d="M651.2704663212432,129.5L494.3803108808287,129.5" fill="none" stroke="rgb(0,0,0)" stroke-width="1"></path><path d="M535.6028497409324,127.5L531.6028497409324,129.5L535.6028497409324,131.5" fill="none" stroke="rgb(0,0,0)" stroke-width="0.5"></path><path d="M574.8253886010359,127.5L570.8253886010359,129.5L574.8253886010359,131.5" fill="none" stroke="rgb(0,0,0)" stroke-width="0.5"></path><path d="M614.0479274611396,127.5L610.0479274611396,129.5L614.0479274611396,131.5" fill="none" stroke="rgb(0,0,0)" stroke-width="0.5"></path><path d="M399.86943005181314,129.5L285.05388601036236,129.5" fill="none" stroke="rgb(0,0,0)" stroke-width="1"></path><path d="M325.32573402417927,127.5L321.32573402417927,129.5L325.32573402417927,131.5" fill="none" stroke="rgb(0,0,0)" stroke-width="0.5"></path><path d="M363.59758203799623,127.5L359.59758203799623,129.5L363.59758203799623,131.5" fill="none" stroke="rgb(0,0,0)" stroke-width="0.5"></path><path d="M232.6176165803106,129.5L75.72746113989615,129.5" fill="none" stroke="rgb(0,0,0)" stroke-width="1"></path><path d="M116.94999999999976,127.5L112.94999999999976,129.5L116.94999999999976,131.5" fill="none" stroke="rgb(0,0,0)" stroke-width="0.5"></path><path d="M156.17253886010337,127.5L152.17253886010337,129.5L156.17253886010337,131.5" fill="none" stroke="rgb(0,0,0)" stroke-width="0.5"></path><path d="M195.39507772020698,127.5L191.39507772020698,129.5L195.39507772020698,131.5" fill="none" stroke="rgb(0,0,0)" stroke-width="0.5"></path><path d="M651.2704663212432,165.5L285.05388601036236,165.5" fill="none" stroke="rgb(0,0,0)" stroke-width="1"></path><path d="M323.67554404145045,163.5L319.67554404145045,165.5L323.67554404145045,167.5" fill="none" stroke="rgb(0,0,0)" stroke-width="0.5"></path><path d="M360.29720207253854,163.5L356.29720207253854,165.5L360.29720207253854,167.5" fill="none" stroke="rgb(0,0,0)" stroke-width="0.5"></path><path d="M396.9188601036266,163.5L392.9188601036266,165.5L396.9188601036266,167.5" fill="none" stroke="rgb(0,0,0)" stroke-width="0.5"></path><path d="M433.5405181347147,163.5L429.5405181347147,165.5L433.5405181347147,167.5" fill="none" stroke="rgb(0,0,0)" stroke-width="0.5"></path><path d="M470.1621761658028,163.5L466.1621761658028,165.5L470.1621761658028,167.5" fill="none" stroke="rgb(0,0,0)" stroke-width="0.5"></path><path d="M506.7838341968909,163.5L502.7838341968909,165.5L506.7838341968909,167.5" fill="none" stroke="rgb(0,0,0)" stroke-width="0.5"></path><path d="M543.405492227979,163.5L539.405492227979,165.5L543.405492227979,167.5" fill="none" stroke="rgb(0,0,0)" stroke-width="0.5"></path><path d="M580.0271502590671,163.5L576.0271502590671,165.5L580.0271502590671,167.5" fill="none" stroke="rgb(0,0,0)" stroke-width="0.5"></path><path d="M616.6488082901551,163.5L612.6488082901551,165.5L616.6488082901551,167.5" fill="none" stroke="rgb(0,0,0)" stroke-width="0.5"></path><path d="M232.6176165803106,165.5L75.72746113989615,165.5" fill="none" stroke="rgb(0,0,0)" stroke-width="1"></path><path d="M116.94999999999976,163.5L112.94999999999976,165.5L116.94999999999976,167.5" fill="none" stroke="rgb(0,0,0)" stroke-width="0.5"></path><path d="M156.17253886010337,163.5L152.17253886010337,165.5L156.17253886010337,167.5" fill="none" stroke="rgb(0,0,0)" stroke-width="0.5"></path><path d="M195.39507772020698,163.5L191.39507772020698,165.5L195.39507772020698,167.5" fill="none" stroke="rgb(0,0,0)" stroke-width="0.5"></path><path d="M232.6176165803106,185.5L75.72746113989615,185.5" fill="none" stroke="rgb(0,0,0)" stroke-width="1"></path><path d="M112.94999999999976,183.5L116.94999999999976,185.5L112.94999999999976,187.5" fill="none" stroke="rgb(0,0,0)" stroke-width="0.5"></path><path d="M152.17253886010337,183.5L156.17253886010337,185.5L152.17253886010337,187.5" fill="none" stroke="rgb(0,0,0)" stroke-width="0.5"></path><path d="M191.39507772020698,183.5L195.39507772020698,185.5L191.39507772020698,187.5" fill="none" stroke="rgb(0,0,0)" stroke-width="0.5"></path><rect x="-4425.000000000001" y="0" width="5233.265284974093" height="10" fill="rgb(218,165,32)"></rect><rect x="651.2704663212432" y="20" width="52.436269430051766" height="10" fill="rgb(218,165,32)"></rect><rect x="703.6020725388598" y="20" width="2" height="10" fill="rgb(218,165,32)"></rect><rect x="598.9388601036267" y="40" width="104.76787564766835" height="10" fill="rgb(218,165,32)"></rect><rect x="651.2704663212432" y="60" width="47.20310880829015" height="10" fill="rgb(218,165,32)"></rect><rect x="473.13367875647634" y="60" width="21.246632124352345" height="10" fill="rgb(218,165,32)"></rect><rect x="651.2704663212432" y="80" width="47.20310880829015" height="10" fill="rgb(218,165,32)"></rect><rect x="232.6176165803106" y="80" width="52.436269430051766" height="10" fill="rgb(218,165,32)"></rect><rect x="44.22383419689095" y="80" width="31.5036269430052" height="10" fill="rgb(218,165,32)"></rect><rect x="682.6694300518132" y="102" width="15.80414507772025" height="7" fill="rgb(53,112,137)"></rect><rect x="651.2704663212432" y="100" width="31.398963730569903" height="10" fill="rgb(218,165,32)"></rect><rect x="399.86943005181314" y="100" width="94.51088082901555" height="10" fill="rgb(218,165,32)"></rect><rect x="232.6176165803106" y="100" width="52.436269430051766" height="10" fill="rgb(218,165,32)"></rect><rect x="11.987564766839" y="100" width="63.73989637305715" height="10" fill="rgb(218,165,32)"></rect><rect x="-133.7036269430056" y="102" width="145.6911917098446" height="7" fill="rgb(53,112,137)"></rect><rect x="682.6694300518132" y="114" width="15.80414507772025" height="7" fill="rgb(53,112,137)"></rect><rect x="651.2704663212432" y="112" width="31.398963730569903" height="10" fill="rgb(218,165,32)"></rect><rect x="232.6176165803106" y="112" width="52.436269430051766" height="10" fill="rgb(218,165,32)"></rect><rect x="11.987564766839" y="112" width="63.73989637305715" height="10" fill="rgb(218,165,32)"></rect><rect x="-133.7036269430056" y="114" width="145.6911917098446" height="7" fill="rgb(53,112,137)"></rect><rect x="651.2704663212432" y="126" width="21.037305699481863" height="7" fill="rgb(53,112,137)"></rect><rect x="462.87668393782354" y="126" width="31.503626943005145" height="7" fill="rgb(53,112,137)"></rect><rect x="399.86943005181314" y="124" width="63.0072538860104" height="10" fill="rgb(218,165,32)"></rect><rect x="232.6176165803106" y="124" width="52.436269430051766" height="10" fill="rgb(218,165,32)"></rect><rect x="12.824870466320931" y="124" width="62.90259067357522" height="10" fill="rgb(218,165,32)"></rect><rect x="-133.7036269430056" y="126" width="146.52849740932652" height="7" fill="rgb(53,112,137)"></rect><rect x="598.9388601036267" y="140" width="94.30155440414501" height="10" fill="rgb(218,165,32)"></rect><rect x="651.2704663212432" y="160" width="36.736787564766814" height="10" fill="rgb(218,165,32)"></rect><rect x="232.6176165803106" y="160" width="52.436269430051766" height="10" fill="rgb(218,165,32)"></rect><rect x="54.69015544041417" y="160" width="21.037305699481976" height="10" fill="rgb(218,165,32)"></rect><rect x="609.4051813471499" y="180" width="73.36891191709856" height="10" fill="rgb(218,165,32)"></rect><rect x="494.27564766839345" y="200" width="146.63316062176165" height="10" fill="rgb(218,165,32)"></rect><rect x="600.6134715025903" y="220" width="34.120207253886065" height="10" fill="rgb(218,165,32)"></rect><rect x="504.7419689119168" y="240" width="115.23419689119174" height="10" fill="rgb(218,165,32)"></rect><rect x="166.67979274611366" y="40" width="326.23523316062176" height="10" fill="rgb(218,165,32)"></rect><rect x="183.6352331606214" y="60" width="131.24766839378242" height="10" fill="rgb(218,165,32)"></rect><rect x="253.3409326424868" y="140" width="7.326424870466326" height="10" fill="rgb(218,165,32)"></rect><rect x="232.6176165803106" y="180" width="9.524352331606224" height="10" fill="rgb(218,165,32)"></rect><rect x="22.977202072538603" y="180" width="52.75025906735755" height="10" fill="rgb(218,165,32)"></rect><rect x="169.71502590673538" y="140" width="31.6082901554405" height="10" fill="rgb(218,165,32)"></rect><rect x="90.90362694300484" y="40" width="43.22590673575132" height="10" fill="rgb(218,165,32)"></rect><rect x="50.398963730569676" y="60" width="37.36476683937815" height="10" fill="rgb(218,165,32)"></rect><rect x="53.53886010362669" y="40" width="11.094300518134673" height="10" fill="rgb(218,165,32)"></rect><rect x="-1.5139896373060537" y="140" width="34.32953367875655" height="10" fill="rgb(218,165,32)"></rect><rect x="-29.040414507772425" y="40" width="52.43626943005199" height="10" fill="rgb(218,165,32)"></rect><rect x="-47.56580310880872" y="60" width="50.55233160621765" height="10" fill="rgb(218,165,32)"></rect><rect x="-133.7036269430056" y="80" width="104.76787564766857" height="10" fill="rgb(218,165,32)"></rect><rect x="-37.41347150259105" y="140" width="2.7212435233161614" height="10" fill="rgb(218,165,32)"></rect><rect x="-133.5989637305703" y="40" width="72.63626943005193" height="10" fill="rgb(218,165,32)"></rect><rect x="-110.99170984455986" y="60" width="25.014507772020693" height="10" fill="rgb(218,165,32)"></rect><rect x="-126.90051813471541" y="140" width="7.012435233160659" height="10" fill="rgb(218,165,32)"></rect><rect x="-220.05077720207282" y="40" width="44.167875647668325" height="10" fill="rgb(218,165,32)"></rect><rect x="-395.3616580310884" y="60" width="157.09948186528504" height="10" fill="rgb(218,165,32)"></rect><rect x="-395.3616580310884" y="80" width="157.09948186528504" height="10" fill="rgb(218,165,32)"></rect><rect x="469.63367875647634" y="65" width="3.5" height="1" fill="rgb(0,0,0)"></rect><path d="M469.63367875647634,63L469.63367875647634,68L466.13367875647634,65.5Z" fill="rgb(0,0,0)" stroke="none"></path><rect x="40.72383419689095" y="85" width="3.5" height="1" fill="rgb(0,0,0)"></rect><path d="M40.72383419689095,83L40.72383419689095,88L37.22383419689095,85.5Z" fill="rgb(0,0,0)" stroke="none"></path><rect x="-137.2036269430056" y="105" width="3.5" height="1" fill="rgb(0,0,0)"></rect><path d="M-137.2036269430056,103L-137.2036269430056,108L-140.7036269430056,105.5Z" fill="rgb(0,0,0)" stroke="none"></path><rect x="-137.2036269430056" y="117" width="3.5" height="1" fill="rgb(0,0,0)"></rect><path d="M-137.2036269430056,115L-137.2036269430056,120L-140.7036269430056,117.5Z" fill="rgb(0,0,0)" stroke="none"></path><rect x="-137.2036269430056" y="129" width="3.5" height="1" fill="rgb(0,0,0)"></rect><path d="M-137.2036269430056,127L-137.2036269430056,132L-140.7036269430056,129.5Z" fill="rgb(0,0,0)" stroke="none"></path><rect x="595.4388601036267" y="145" width="3.5" height="1" fill="rgb(0,0,0)"></rect><path d="M595.4388601036267,143L595.4388601036267,148L591.9388601036267,145.5Z" fill="rgb(0,0,0)" stroke="none"></path><rect x="51.19015544041417" y="165" width="3.5" height="1" fill="rgb(0,0,0)"></rect><path d="M51.19015544041417,163L51.19015544041417,168L47.69015544041417,165.5Z" fill="rgb(0,0,0)" stroke="none"></path><rect x="605.9051813471499" y="185" width="3.5" height="1" fill="rgb(0,0,0)"></rect><path d="M605.9051813471499,183L605.9051813471499,188L602.4051813471499,185.5Z" fill="rgb(0,0,0)" stroke="none"></path><rect x="640.9088082901551" y="205" width="3.5" height="1" fill="rgb(0,0,0)"></rect><path d="M644.4088082901551,203L644.4088082901551,208L647.9088082901551,205.5Z" fill="rgb(0,0,0)" stroke="none"></path><rect x="597.1134715025903" y="225" width="3.5" height="1" fill="rgb(0,0,0)"></rect><path d="M597.1134715025903,223L597.1134715025903,228L593.6134715025903,225.5Z" fill="rgb(0,0,0)" stroke="none"></path><rect x="619.9761658031085" y="245" width="3.5" height="1" fill="rgb(0,0,0)"></rect><path d="M623.4761658031085,243L623.4761658031085,248L626.9761658031085,245.5Z" fill="rgb(0,0,0)" stroke="none"></path><rect x="163.17979274611366" y="45" width="3.5" height="1" fill="rgb(0,0,0)"></rect><path d="M163.17979274611366,43L163.17979274611366,48L159.67979274611366,45.5Z" fill="rgb(0,0,0)" stroke="none"></path><rect x="314.8829015544038" y="65" width="3.5" height="1" fill="rgb(0,0,0)"></rect><path d="M318.3829015544038,63L318.3829015544038,68L321.8829015544038,65.5Z" fill="rgb(0,0,0)" stroke="none"></path><rect x="260.6673575129531" y="145" width="3.5" height="1" fill="rgb(0,0,0)"></rect><path d="M264.1673575129531,143L264.1673575129531,148L267.6673575129531,145.5Z" fill="rgb(0,0,0)" stroke="none"></path><rect x="242.14196891191682" y="185" width="3.5" height="1" fill="rgb(0,0,0)"></rect><path d="M245.64196891191682,183L245.64196891191682,188L249.14196891191682,185.5Z" fill="rgb(0,0,0)" stroke="none"></path><rect x="201.32331606217588" y="145" width="3.5" height="1" fill="rgb(0,0,0)"></rect><path d="M204.82331606217588,143L204.82331606217588,148L208.32331606217588,145.5Z" fill="rgb(0,0,0)" stroke="none"></path><rect x="134.12953367875616" y="45" width="3.5" height="1" fill="rgb(0,0,0)"></rect><path d="M137.62953367875616,43L137.62953367875616,48L141.12953367875616,45.5Z" fill="rgb(0,0,0)" stroke="none"></path><rect x="87.76373056994782" y="65" width="3.5" height="1" fill="rgb(0,0,0)"></rect><path d="M91.26373056994782,63L91.26373056994782,68L94.76373056994782,65.5Z" fill="rgb(0,0,0)" stroke="none"></path><rect x="64.63316062176136" y="45" width="3.5" height="1" fill="rgb(0,0,0)"></rect><path d="M68.13316062176136,43L68.13316062176136,48L71.63316062176136,45.5Z" fill="rgb(0,0,0)" stroke="none"></path><rect x="32.815544041450494" y="145" width="3.5" height="1" fill="rgb(0,0,0)"></rect><path d="M36.315544041450494,143L36.315544041450494,148L39.815544041450494,145.5Z" fill="rgb(0,0,0)" stroke="none"></path><rect x="23.395854922279568" y="45" width="3.5" height="1" fill="rgb(0,0,0)"></rect><path d="M26.895854922279568,43L26.895854922279568,48L30.395854922279568,45.5Z" fill="rgb(0,0,0)" stroke="none"></path><rect x="2.9865284974089263" y="65" width="3.5" height="1" fill="rgb(0,0,0)"></rect><path d="M6.486528497408926,63L6.486528497408926,68L9.986528497408926,65.5Z" fill="rgb(0,0,0)" stroke="none"></path><rect x="-28.935751295337013" y="85" width="3.5" height="1" fill="rgb(0,0,0)"></rect><path d="M-25.435751295337013,83L-25.435751295337013,88L-21.935751295337013,85.5Z" fill="rgb(0,0,0)" stroke="none"></path><rect x="-34.69222797927489" y="145" width="3.5" height="1" fill="rgb(0,0,0)"></rect><path d="M-31.19222797927489,143L-31.19222797927489,148L-27.69222797927489,145.5Z" fill="rgb(0,0,0)" stroke="none"></path><rect x="-60.962694300518365" y="45" width="3.5" height="1" fill="rgb(0,0,0)"></rect><path d="M-57.462694300518365,43L-57.462694300518365,48L-53.962694300518365,45.5Z" fill="rgb(0,0,0)" stroke="none"></path><rect x="-85.97720207253917" y="65" width="3.5" height="1" fill="rgb(0,0,0)"></rect><path d="M-82.47720207253917,63L-82.47720207253917,68L-78.97720207253917,65.5Z" fill="rgb(0,0,0)" stroke="none"></path><rect x="-119.88808290155475" y="145" width="3.5" height="1" fill="rgb(0,0,0)"></rect><path d="M-116.38808290155475,143L-116.38808290155475,148L-112.88808290155475,145.5Z" fill="rgb(0,0,0)" stroke="none"></path><rect x="-175.8829015544045" y="45" width="3.5" height="1" fill="rgb(0,0,0)"></rect><path d="M-172.3829015544045,43L-172.3829015544045,48L-168.8829015544045,45.5Z" fill="rgb(0,0,0)" stroke="none"></path><rect x="-398.8616580310884" y="65" width="3.5" height="1" fill="rgb(0,0,0)"></rect><path d="M-398.8616580310884,63L-398.8616580310884,68L-402.3616580310884,65.5Z" fill="rgb(0,0,0)" stroke="none"></path><rect x="-398.8616580310884" y="85" width="3.5" height="1" fill="rgb(0,0,0)"></rect><path d="M-398.8616580310884,83L-398.8616580310884,88L-402.3616580310884,85.5Z" fill="rgb(0,0,0)" stroke="none"></path></g></g><g></g></g></g></g><text x="0" y="5" fill="#000000" font-size="13" dominant-baseline="hanging">GFF3Tabix genes</text></g></g></g></svg>