<svg width="908" height="800" xmlns="http://www.w3.org/2000/svg" xmlns:xlink="http://www.w3.org/1999/xlink" viewBox="0,0,908,800"><rect width="908" height="800" fill="#ffffff"></rect><g transform="translate(50 13)"><g transform="translate(0)"><text x="0" font-size="13" fill-opacity="0.8705882352941177" fill="#000000">volvox</text><g transform="translate(0 0)"><defs><clipPath id="clip-volvox:ctgA:1755.4618436724566:2141.2146774193548:0"><rect x="0" y="0" width="807.9999999999999" height="100"></rect></clipPath></defs><g clip-path="url(#clip-volvox:ctgA:1755.4618436724566:2141.2146774193548:0)"><text x="4" y="13" font-size="13" fill="#000000">ctgA</text><g transform="translate(0 20)"><line x1="-34.48106798891881" x2="-34.48106798891881" y1="0" y2="4" stroke-width="1" stroke="#000000"></line><line x1="-13.535013175744108" x2="-13.535013175744108" y1="0" y2="4" stroke-width="1" stroke="#000000"></line><line x1="7.411041637430596" x2="7.411041637430596" y1="0" y2="4" stroke-width="1" stroke="#000000"></line><line x1="28.3570964506053" x2="28.3570964506053" y1="0" y2="4" stroke-width="1" stroke="#000000"></line><line x1="49.30315126378" x2="49.30315126378" y1="0" y2="4" stroke-width="1" stroke="#000000"></line><line x1="70.2492060769547" x2="70.2492060769547" y1="0" y2="4" stroke-width="1" stroke="#000000"></line><line x1="91.19526089012942" x2="91.19526089012942" y1="0" y2="6" stroke-width="1" stroke="#000000"></line><line x1="112.14131570330412" x2="112.14131570330412" y1="0" y2="4" stroke-width="1" stroke="#000000"></line><line x1="133.0873705164788" x2="133.0873705164788" y1="0" y2="4" stroke-width="1" stroke="#000000"></line><line x1="154.0334253296535" x2="154.0334253296535" y1="0" y2="4" stroke-width="1" stroke="#000000"></line><line x1="174.97948014282824" x2="174.97948014282824" y1="0" y2="4" stroke-width="1" stroke="#000000"></line><line x1="195.92553495600293" x2="195.92553495600293" y1="0" y2="4" stroke-width="1" stroke="#000000"></line><line x1="216.87158976917763" x2="216.87158976917763" y1="0" y2="4" stroke-width="1" stroke="#000000"></line><line x1="237.81764458235233" x2="237.81764458235233" y1="0" y2="4" stroke-width="1" stroke="#000000"></line><line x1="258.76369939552706" x2="258.76369939552706" y1="0" y2="4" stroke-width="1" stroke="#000000"></line><line x1="279.7097542087017" x2="279.7097542087017" y1="0" y2="4" stroke-width="1" stroke="#000000"></line><line x1="300.65580902187645" x2="300.65580902187645" y1="0" y2="6" stroke-width="1" stroke="#000000"></line><line x1="321.6018638350512" x2="321.6018638350512" y1="0" y2="4" stroke-width="1" stroke="#000000"></line><line x1="342.54791864822585" x2="342.54791864822585" y1="0" y2="4" stroke-width="1" stroke="#000000"></line><line x1="363.49397346140057" x2="363.49397346140057" y1="0" y2="4" stroke-width="1" stroke="#000000"></line><line x1="384.44002827457524" x2="384.44002827457524" y1="0" y2="4" stroke-width="1" stroke="#000000"></line><line x1="405.38608308774997" x2="405.38608308774997" y1="0" y2="4" stroke-width="1" stroke="#000000"></line><line x1="426.3321379009247" x2="426.3321379009247" y1="0" y2="4" stroke-width="1" stroke="#000000"></line><line x1="447.27819271409936" x2="447.27819271409936" y1="0" y2="4" stroke-width="1" stroke="#000000"></line><line x1="468.2242475272741" x2="468.2242475272741" y1="0" y2="4" stroke-width="1" stroke="#000000"></line><line x1="489.1703023404488" x2="489.1703023404488" y1="0" y2="4" stroke-width="1" stroke="#000000"></line><line x1="510.1163571536235" x2="510.1163571536235" y1="0" y2="6" stroke-width="1" stroke="#000000"></line><line x1="531.0624119667982" x2="531.0624119667982" y1="0" y2="4" stroke-width="1" stroke="#000000"></line><line x1="552.0084667799729" x2="552.0084667799729" y1="0" y2="4" stroke-width="1" stroke="#000000"></line><line x1="572.9545215931475" x2="572.9545215931475" y1="0" y2="4" stroke-width="1" stroke="#000000"></line><line x1="593.9005764063223" x2="593.9005764063223" y1="0" y2="4" stroke-width="1" stroke="#000000"></line><line x1="614.846631219497" x2="614.846631219497" y1="0" y2="4" stroke-width="1" stroke="#000000"></line><line x1="635.7926860326717" x2="635.7926860326717" y1="0" y2="4" stroke-width="1" stroke="#000000"></line><line x1="656.7387408458465" x2="656.7387408458465" y1="0" y2="4" stroke-width="1" stroke="#000000"></line><line x1="677.6847956590211" x2="677.6847956590211" y1="0" y2="4" stroke-width="1" stroke="#000000"></line><line x1="698.6308504721958" x2="698.6308504721958" y1="0" y2="4" stroke-width="1" stroke="#000000"></line><line x1="719.5769052853706" x2="719.5769052853706" y1="0" y2="6" stroke-width="1" stroke="#000000"></line><line x1="740.5229600985452" x2="740.5229600985452" y1="0" y2="4" stroke-width="1" stroke="#000000"></line><line x1="761.4690149117199" x2="761.4690149117199" y1="0" y2="4" stroke-width="1" stroke="#000000"></line><line x1="782.4150697248947" x2="782.4150697248947" y1="0" y2="4" stroke-width="1" stroke="#000000"></line><line x1="803.3611245380694" x2="803.3611245380694" y1="0" y2="4" stroke-width="1" stroke="#000000"></line><line x1="824.307179351244" x2="824.307179351244" y1="0" y2="4" stroke-width="1" stroke="#000000"></line><line x1="845.2532341644187" x2="845.2532341644187" y1="0" y2="4" stroke-width="1" stroke="#000000"></line><text x="88.19526089012942" y="18" font-size="11" fill="#000000">1,800</text><text x="297.65580902187645" y="18" font-size="11" fill="#000000">1,900</text><text x="507.1163571536235" y="18" font-size="11" fill="#000000">2,000</text><text x="716.5769052853706" y="18" font-size="11" fill="#000000">2,100</text></g></g></g></g><g transform="translate(0 43)"><g transform="translate(0 0)"><defs><clipPath id="gridline-clip-volvox:ctgA:1755.4618436724566:2141.2146774193548:0"><rect x="0" y="0" width="807.9999999999999" height="270"></rect></clipPath></defs><g clip-path="url(#gridline-clip-volvox:ctgA:1755.4618436724566:2141.2146774193548:0)"><line x1="-34.48106798891881" x2="-34.48106798891881" y1="0" y2="270" stroke-width="1" stroke-opacity="0.12156862745098039" stroke="#000000"></line><line x1="-13.535013175744108" x2="-13.535013175744108" y1="0" y2="270" stroke-width="1" stroke-opacity="0.12156862745098039" stroke="#000000"></line><line x1="7.411041637430596" x2="7.411041637430596" y1="0" y2="270" stroke-width="1" stroke-opacity="0.12156862745098039" stroke="#000000"></line><line x1="28.3570964506053" x2="28.3570964506053" y1="0" y2="270" stroke-width="1" stroke-opacity="0.12156862745098039" stroke="#000000"></line><line x1="49.30315126378" x2="49.30315126378" y1="0" y2="270" stroke-width="1" stroke-opacity="0.12156862745098039" stroke="#000000"></line><line x1="70.2492060769547" x2="70.2492060769547" y1="0" y2="270" stroke-width="1" stroke-opacity="0.12156862745098039" stroke="#000000"></line><line x1="91.19526089012942" x2="91.19526089012942" y1="0" y2="270" stroke-width="1" stroke-opacity="0.25882352941176473" stroke="#000000"></line><line x1="112.14131570330412" x2="112.14131570330412" y1="0" y2="270" stroke-width="1" stroke-opacity="0.12156862745098039" stroke="#000000"></line><line x1="133.0873705164788" x2="133.0873705164788" y1="0" y2="270" stroke-width="1" stroke-opacity="0.12156862745098039" stroke="#000000"></line><line x1="154.0334253296535" x2="154.0334253296535" y1="0" y2="270" stroke-width="1" stroke-opacity="0.12156862745098039" stroke="#000000"></line><line x1="174.97948014282824" x2="174.97948014282824" y1="0" y2="270" stroke-width="1" stroke-opacity="0.12156862745098039" stroke="#000000"></line><line x1="195.92553495600293" x2="195.92553495600293" y1="0" y2="270" stroke-width="1" stroke-opacity="0.12156862745098039" stroke="#000000"></line><line x1="216.87158976917763" x2="216.87158976917763" y1="0" y2="270" stroke-width="1" stroke-opacity="0.12156862745098039" stroke="#000000"></line><line x1="237.81764458235233" x2="237.81764458235233" y1="0" y2="270" stroke-width="1" stroke-opacity="0.12156862745098039" stroke="#000000"></line><line x1="258.76369939552706" x2="258.76369939552706" y1="0" y2="270" stroke-width="1" stroke-opacity="0.12156862745098039" stroke="#000000"></line><line x1="279.7097542087017" x2="279.7097542087017" y1="0" y2="270" stroke-width="1" stroke-opacity="0.12156862745098039" stroke="#000000"></line><line x1="300.65580902187645" x2="300.65580902187645" y1="0" y2="270" stroke-width="1" stroke-opacity="0.25882352941176473" stroke="#000000"></line><line x1="321.6018638350512" x2="321.6018638350512" y1="0" y2="270" stroke-width="1" stroke-opacity="0.12156862745098039" stroke="#000000"></line><line x1="342.54791864822585" x2="342.54791864822585" y1="0" y2="270" stroke-width="1" stroke-opacity="0.12156862745098039" stroke="#000000"></line><line x1="363.49397346140057" x2="363.49397346140057" y1="0" y2="270" stroke-width="1" stroke-opacity="0.12156862745098039" stroke="#000000"></line><line x1="384.44002827457524" x2="384.44002827457524" y1="0" y2="270" stroke-width="1" stroke-opacity="0.12156862745098039" stroke="#000000"></line><line x1="405.38608308774997" x2="405.38608308774997" y1="0" y2="270" stroke-width="1" stroke-opacity="0.12156862745098039" stroke="#000000"></line><line x1="426.3321379009247" x2="426.3321379009247" y1="0" y2="270" stroke-width="1" stroke-opacity="0.12156862745098039" stroke="#000000"></line><line x1="447.27819271409936" x2="447.27819271409936" y1="0" y2="270" stroke-width="1" stroke-opacity="0.12156862745098039" stroke="#000000"></line><line x1="468.2242475272741" x2="468.2242475272741" y1="0" y2="270" stroke-width="1" stroke-opacity="0.12156862745098039" stroke="#000000"></line><line x1="489.1703023404488" x2="489.1703023404488" y1="0" y2="270" stroke-width="1" stroke-opacity="0.12156862745098039" stroke="#000000"></line><line x1="510.1163571536235" x2="510.1163571536235" y1="0" y2="270" stroke-width="1" stroke-opacity="0.25882352941176473" stroke="#000000"></line><line x1="531.0624119667982" x2="531.0624119667982" y1="0" y2="270" stroke-width="1" stroke-opacity="0.12156862745098039" stroke="#000000"></line><line x1="552.0084667799729" x2="552.0084667799729" y1="0" y2="270" stroke-width="1" stroke-opacity="0.12156862745098039" stroke="#000000"></line><line x1="572.9545215931475" x2="572.9545215931475" y1="0" y2="270" stroke-width="1" stroke-opacity="0.12156862745098039" stroke="#000000"></line><line x1="593.9005764063223" x2="593.9005764063223" y1="0" y2="270" stroke-width="1" stroke-opacity="0.12156862745098039" stroke="#000000"></line><line x1="614.846631219497" x2="614.846631219497" y1="0" y2="270" stroke-width="1" stroke-opacity="0.12156862745098039" stroke="#000000"></line><line x1="635.7926860326717" x2="635.7926860326717" y1="0" y2="270" stroke-width="1" stroke-opacity="0.12156862745098039" stroke="#000000"></line><line x1="656.7387408458465" x2="656.7387408458465" y1="0" y2="270" stroke-width="1" stroke-opacity="0.12156862745098039" stroke="#000000"></line><line x1="677.6847956590211" x2="677.6847956590211" y1="0" y2="270" stroke-width="1" stroke-opacity="0.12156862745098039" stroke="#000000"></line><line x1="698.6308504721958" x2="698.6308504721958" y1="0" y2="270" stroke-width="1" stroke-opacity="0.12156862745098039" stroke="#000000"></line><line x1="719.5769052853706" x2="719.5769052853706" y1="0" y2="270" stroke-width="1" stroke-opacity="0.25882352941176473" stroke="#000000"></line><line x1="740.5229600985452" x2="740.5229600985452" y1="0" y2="270" stroke-width="1" stroke-opacity="0.12156862745098039" stroke="#000000"></line><line x1="761.4690149117199" x2="761.4690149117199" y1="0" y2="270" stroke-width="1" stroke-opacity="0.12156862745098039" stroke="#000000"></line><line x1="782.4150697248947" x2="782.4150697248947" y1="0" y2="270" stroke-width="1" stroke-opacity="0.12156862745098039" stroke="#000000"></line><line x1="803.3611245380694" x2="803.3611245380694" y1="0" y2="270" stroke-width="1" stroke-opacity="0.12156862745098039" stroke="#000000"></line><line x1="824.307179351244" x2="824.307179351244" y1="0" y2="270" stroke-width="1" stroke-opacity="0.12156862745098039" stroke="#000000"></line><line x1="845.2532341644187" x2="845.2532341644187" y1="0" y2="270" stroke-width="1" stroke-opacity="0.12156862745098039" stroke="#000000"></line></g></g></g><g transform="translate(0 43)"><g transform="translate(0 0)"><defs><clipPath id="track-clip-volvox_inv_indels"><rect x="0" y="18" width="808" height="250"></rect></clipPath></defs><g clip-path="url(#track-clip-volvox_inv_indels)"><g transform="translate(0 18)"><defs><clipPath id="alignments-clip-t1-display"><rect x="0" y="0" width="808" height="250"></rect></clipPath></defs><g clip-path="url(#alignments-clip-t1-display)"><g><clipPath id="svgcanvas-clip-0"><path d="M0,0h808v250h-808Z"></path></clipPath><g clip-path="url(#svgcanvas-clip-0)"><clipPath id="svgcanvas-clip-1"><path d="M0,0h808v250h-808Z"></path></clipPath><g clip-path="url(#svgcanvas-clip-1)"><path d="M956.2673246742447,0L30251.41958638039,0L30259.41958638039,3.5L30251.41958638039,7L956.2673246742447,7Z" fill="rgb(236,139,139)" stroke="none"></path><path d="M-405.2262381821111,0L216.87158976917763,0L224.87158976917763,3.5L216.87158976917763,7L-405.2262381821111,7Z" fill="rgb(236,139,139)" stroke="none"></path><path d="M914.3752150478953,8L216.87158976917763,8L208.87158976917763,11.5L216.87158976917763,15L914.3752150478953,15Z" fill="rgb(143,143,216)" stroke="none"></path></g></g></g></g></g></g><text x="0" y="5" fill="#000000" font-size="13" dominant-baseline="hanging">volvox_inv_indels</text></g></g><g transform="translate(0 43)"><defs><clipPath id="highlight-clip-view1"><rect x="0" y="0" width="808" height="270"></rect></clipPath></defs><g clip-path="url(#highlight-clip-view1)"></g></g></g><g transform="translate(0 343)"><defs><clipPath id="synclip-1"><rect x="0" y="0" width="808" height="100"></rect></clipPath></defs><g transform="translate(50 13)" clip-path="url(#synclip-1)"><defs><clipPath id="synteny-clip-s1-display"><rect x="0" y="0" width="808" height="100"></rect></clipPath></defs><g clip-path="url(#synteny-clip-s1-display)"><g><path d="M914.3752150478953,0C914.3752150478953,50 268.9661952504948,50 268.9661952504948,100L1010.4565356368793,100C1010.4565356368793,50 216.87158976917763,50 216.87158976917763,0Z" fill="rgb(255,0,0)" fill-opacity="0.2" stroke="none"></path><path d="M-3677,0C-3677,50 -3620.716183556048,50 -3620.716183556048,100L250.11474591863757,100C250.11474591863757,50 216.87158976917763,50 216.87158976917763,0Z" fill="rgb(255,0,0)" fill-opacity="0.2" stroke="none"></path><path d="M956.2673246742447,0C956.2673246742447,50 1010.4565356368793,50 1010.4565356368793,100L29729.592289980716,100C29729.592289980716,50 30251.419586380387,50 30251.419586380387,0Z" fill="rgb(255,0,0)" fill-opacity="0.2" stroke="none"></path><path d="M247.24336924828094,0C247.24336924828094,50 981.1320588984347,50 981.1320588984347,100" fill="none" stroke="rgb(204,204,255)" stroke-width="1"></path><path d="M257.7163966548683,0C257.7163966548683,50 972.7536369731648,50 972.7536369731648,100" fill="none" stroke="rgb(204,204,255)" stroke-width="1"></path><path d="M266.09481858013817,0C266.09481858013817,50 966.4698205292125,50 966.4698205292125,100" fill="none" stroke="rgb(204,204,255)" stroke-width="1"></path><path d="M285.99357065265417,0C285.99357065265417,50 946.5710684566964,50 946.5710684566964,100" fill="none" stroke="rgb(255,255,204)" stroke-width="1"></path><path d="M311.1288364284638,0C311.1288364284638,50 920.388499940228,50 920.388499940228,100L920.388499940228,100C920.388499940228,50 321.6018638350512,50 321.6018638350512,0Z" fill="rgb(204,204,255)" stroke="none"></path><path d="M363.49397346140057,0C363.49397346140057,50 876.4017848325611,50 876.4017848325611,100" fill="none" stroke="rgb(255,255,204)" stroke-width="1"></path><path d="M453.5620091580518,0C453.5620091580518,50 783.1918409139337,50 783.1918409139337,100" fill="none" stroke="rgb(255,255,204)" stroke-width="1"></path><path d="M474.5080639712265,0C474.5080639712265,50 760.1511806194417,50 760.1511806194417,100" fill="none" stroke="rgb(255,255,204)" stroke-width="1"></path><path d="M489.17030234044876,0C489.17030234044876,50 744.4416395095606,50 744.4416395095606,100L744.4416395095606,100C744.4416395095606,50 493.3595133030837,50 493.3595133030837,0Z" fill="rgb(204,204,255)" stroke="none"></path><path d="M498.5960270063774,0C498.5960270063774,50 740.2524285469257,50 740.2524285469257,100" fill="none" stroke="rgb(204,204,255)" stroke-width="1"></path><path d="M516.4001735975759,0C516.4001735975759,50 722.4482819557272,50 722.4482819557272,100" fill="none" stroke="rgb(255,255,204)" stroke-width="1"></path><path d="M579.2383380371,0C579.2383380371,50 658.5628147755443,50 658.5628147755443,100L656.4682092942268,100C656.4682092942268,50 579.2383380371,50 579.2383380371,0Z" fill="rgb(255,255,204)" stroke="none"></path><path d="M598.0897873689572,0C598.0897873689572,50 637.6167599623695,50 637.6167599623695,100L635.5221544810521,100C635.5221544810521,50 598.0897873689572,50 598.0897873689572,0Z" fill="rgb(255,255,204)" stroke="none"></path><path d="M602.2789983315922,0C602.2789983315922,50 631.3329435184172,50 631.3329435184172,100L629.2383380370997,100C629.2383380370997,50 602.2789983315922,50 602.2789983315922,0Z" fill="rgb(255,255,204)" stroke="none"></path><path d="M614.846631219497,0C614.846631219497,50 616.6707051491949,50 616.6707051491949,100L585.2516229294329,100C585.2516229294329,50 614.846631219497,50 614.846631219497,0Z" fill="rgb(255,255,204)" stroke="none"></path><path d="M696.5362449908783,0C696.5362449908783,50 503.56200915805147,50 503.56200915805147,100L499.3727981954165,100C499.3727981954165,50 696.5362449908783,50 696.5362449908783,0Z" fill="rgb(255,255,204)" stroke="none"></path><path d="M730.0499326919579,0C730.0499326919579,50 465.859110494337,50 465.859110494337,100L457.4806885690671,100C457.4806885690671,50 730.0499326919579,50 730.0499326919579,0Z" fill="rgb(255,255,204)" stroke="none"></path><path d="M734.2391436545928,0C734.2391436545928,50 452.24417486577346,50 452.24417486577346,100" fill="none" stroke="rgb(255,255,204)" stroke-width="1"></path><path d="M807.5503355007043,0C807.5503355007043,50 376.8383775383445,50 376.8383775383445,100" fill="none" stroke="rgb(255,255,204)" stroke-width="1"></path><path d="M811.7395464633393,0C811.7395464633393,50 370.5545610943921,50 370.5545610943921,100" fill="none" stroke="rgb(255,255,204)" stroke-width="1"></path><path d="M825.3544820919028,0C825.3544820919028,50 356.93962546582856,50 356.93962546582856,100" fill="none" stroke="rgb(204,204,255)" stroke-width="1"></path><path d="M-962.3912962125581,0C-962.3912962125581,50 -975.2294606520826,50 -975.2294606520826,100L-973.1348551707651,100C-973.1348551707651,50 -962.3912962125581,50 -962.3912962125581,0Z" fill="rgb(255,255,204)" stroke="none"></path><path d="M-903.742342735669,0C-903.742342735669,50 -914.4859016938759,50 -914.4859016938759,100L-914.4859016938759,100C-914.4859016938759,50 -901.6477372543516,50 -901.6477372543516,0Z" fill="rgb(204,204,255)" stroke="none"></path><path d="M-859.7556276280021,0C-859.7556276280021,50 -872.5937920675266,50 -872.5937920675266,100L-868.4045811048916,100C-868.4045811048916,50 -859.7556276280021,50 -859.7556276280021,0Z" fill="rgb(255,255,204)" stroke="none"></path><path d="M-721.5116658610491,0C-721.5116658610491,50 -730.1606193379386,50 -730.1606193379386,100L-728.0660138566211,100C-728.0660138566211,50 -721.5116658610491,50 -721.5116658610491,0Z" fill="rgb(255,255,204)" stroke="none"></path><path d="M-715.2278494170966,0C-715.2278494170966,50 -721.7821974126687,50 -721.7821974126687,100L-717.5929864500338,100C-717.5929864500338,50 -715.2278494170966,50 -715.2278494170966,0Z" fill="rgb(255,255,204)" stroke="none"></path><path d="M-700.5656110478744,0C-700.5656110478744,50 -702.9307480808114,50 -702.9307480808114,100L-702.9307480808114,100C-702.9307480808114,50 -698.4710055665569,50 -698.4710055665569,0Z" fill="rgb(204,204,255)" stroke="none"></path><path d="M-683.8087671973346,0C-683.8087671973346,50 -688.2685097115892,50 -688.2685097115892,100L-688.2685097115892,100C-688.2685097115892,50 -679.6195562346996,50 -679.6195562346996,0Z" fill="rgb(204,204,255)" stroke="none"></path><path d="M-660.7681069028424,0C-660.7681069028424,50 -669.4170603797319,50 -669.4170603797319,100L-669.4170603797319,100C-669.4170603797319,50 -658.673501421525,50 -658.673501421525,0Z" fill="rgb(204,204,255)" stroke="none"></path><path d="M-635.6328411270329,0C-635.6328411270329,50 -646.3764000852398,50 -646.3764000852398,100L-646.3764000852398,100C-646.3764000852398,50 -633.5382356457153,50 -633.5382356457153,0Z" fill="rgb(204,204,255)" stroke="none"></path><path d="M-610.4975753512232,0C-610.4975753512232,50 -623.3357397907475,50 -623.3357397907475,100L-623.3357397907475,100C-623.3357397907475,50 -608.4029698699057,50 -608.4029698699057,0Z" fill="rgb(204,204,255)" stroke="none"></path><path d="M-593.7407315006834,0C-593.7407315006834,50 -608.6735014215253,50 -608.6735014215253,100L-606.5788959402079,100C-606.5788959402079,50 -593.7407315006834,50 -593.7407315006834,0Z" fill="rgb(255,255,204)" stroke="none"></path><path d="M-587.456915056731,0C-587.456915056731,50 -600.2950794962554,50 -600.2950794962554,100L-598.200474014938,100C-598.200474014938,50 -587.456915056731,50 -587.456915056731,0Z" fill="rgb(255,255,204)" stroke="none"></path><path d="M-524.6187506172068,0C-524.6187506172068,50 -535.3623095754139,50 -535.3623095754139,100L-535.3623095754139,100C-535.3623095754139,50 -522.5241451358894,50 -522.5241451358894,0Z" fill="rgb(204,204,255)" stroke="none"></path><path d="M-499.4834848413972,0C-499.4834848413972,50 -512.3216492809216,50 -512.3216492809216,100L-512.3216492809216,100C-512.3216492809216,50 -497.3888793600798,50 -497.3888793600798,0Z" fill="rgb(204,204,255)" stroke="none"></path><path d="M-465.9697971403177,0C-465.9697971403177,50 -480.9025670611596,50 -480.9025670611596,100L-476.7133560985246,100C-476.7133560985246,50 -465.9697971403177,50 -465.9697971403177,0Z" fill="rgb(255,255,204)" stroke="none"></path><path d="M-451.30755877109544,0C-451.30755877109544,50 -462.05111772930235,50 -462.05111772930235,100L-462.05111772930235,100C-462.05111772930235,50 -445.023742327143,50 -445.023742327143,0Z" fill="rgb(204,204,255)" stroke="none"></path><path d="M-438.7399258831906,0C-438.7399258831906,50 -455.76730128534996,50 -455.76730128534996,100L-453.67269580403246,100C-453.67269580403246,50 -438.7399258831906,50 -438.7399258831906,0Z" fill="rgb(255,255,204)" stroke="none"></path><path d="M-413.60466010738094,0C-413.60466010738094,50 -428.53743002822284,50 -428.53743002822284,100L-415.969797140318,100C-415.969797140318,50 -413.60466010738094,50 -413.60466010738094,0Z" fill="rgb(255,255,204)" stroke="none"></path><path d="M-340.2934682612695,0C-340.2934682612695,50 -342.65860529420655,50 -342.65860529420655,100L-342.65860529420655,100C-342.65860529420655,50 -338.19886277995204,50 -338.19886277995204,0Z" fill="rgb(204,204,255)" stroke="none"></path><path d="M-329.82044085468215,0C-329.82044085468215,50 -334.28018336893666,50 -334.28018336893666,100L-334.28018336893666,100C-334.28018336893666,50 -327.72583537336465,50 -327.72583537336465,0Z" fill="rgb(204,204,255)" stroke="none"></path><path d="M-292.11754219096764,0C-292.11754219096764,50 -298.67189018653966,50 -298.67189018653966,100L-298.67189018653966,100C-298.67189018653966,50 -290.0229367096502,50 -290.0229367096502,0Z" fill="rgb(204,204,255)" stroke="none"></path><path d="M-258.60385448988814,0C-258.60385448988814,50 -267.2528079667776,50 -267.2528079667776,100L-265.15820248546015,100C-265.15820248546015,50 -258.60385448988814,50 -258.60385448988814,0Z" fill="rgb(255,255,204)" stroke="none"></path><path d="M-248.1308270833008,0C-248.1308270833008,50 -254.6851750788728,50 -254.6851750788728,100L-254.6851750788728,100C-254.6851750788728,50 -246.03622160198333,50 -246.03622160198333,0Z" fill="rgb(204,204,255)" stroke="none"></path><path d="M-237.65779967671344,0C-237.65779967671344,50 -246.30675315360293,50 -246.30675315360293,100L-244.21214767228545,100C-244.21214767228545,50 -237.65779967671344,50 -237.65779967671344,0Z" fill="rgb(255,255,204)" stroke="none"></path><path d="M-227.18477227012608,0C-227.18477227012608,50 -233.7391202656981,50 -233.7391202656981,100L-231.64451478438062,100C-231.64451478438062,50 -227.18477227012608,50 -227.18477227012608,0Z" fill="rgb(255,255,204)" stroke="none"></path><path d="M-220.90095582617369,0C-220.90095582617369,50 -225.3606983404282,50 -225.3606983404282,100L-225.3606983404282,100C-225.3606983404282,50 -210.42792841958632,50 -210.42792841958632,0Z" fill="rgb(204,204,255)" stroke="none"></path><path d="M-189.48187360641163,0C-189.48187360641163,50 -204.4146435272535,50 -204.4146435272535,100L-204.4146435272535,100C-204.4146435272535,50 -187.38726812509415,50 -187.38726812509415,0Z" fill="rgb(204,204,255)" stroke="none"></path><path d="M-183.1980571624592,0C-183.1980571624592,50 -200.22543256461856,50 -200.22543256461856,100L-200.22543256461856,100C-200.22543256461856,50 -181.10345168114173,50 -181.10345168114173,0Z" fill="rgb(204,204,255)" stroke="none"></path><path d="M-164.34660783060198,0C-164.34660783060198,50 -183.4685887140788,50 -183.4685887140788,100L-168.8063503448565,100C-168.8063503448565,50 -164.34660783060198,50 -164.34660783060198,0Z" fill="rgb(255,255,204)" stroke="none"></path><path d="M-137.11673657347487,0C-137.11673657347487,50 -141.57647908772938,50 -141.57647908772938,100L-131.10345168114205,100C-131.10345168114205,50 -137.11673657347487,50 -137.11673657347487,0Z" fill="rgb(255,255,204)" stroke="none"></path><path d="M-118.26528724161763,0C-118.26528724161763,50 -112.25200234928481,50 -112.25200234928481,100L-112.25200234928481,100C-112.25200234928481,50 -116.17068176030016,50 -116.17068176030016,0Z" fill="rgb(204,204,255)" stroke="none"></path><path d="M-107.79225983503028,0C-107.79225983503028,50 -103.87358042401493,50 -103.87358042401493,100L-101.77897494269746,100C-101.77897494269746,50 -107.79225983503028,50 -107.79225983503028,0Z" fill="rgb(255,255,204)" stroke="none"></path><path d="M-13.535013175744108,0C-13.535013175744108,50 -7.521728283411291,50 -7.521728283411291,100L5.045904604493531,100C5.045904604493531,50 -13.535013175744108,50 -13.535013175744108,0Z" fill="rgb(255,255,204)" stroke="none"></path><path d="M-5.156591250474226,0C-5.156591250474226,50 13.424326529763412,50 13.424326529763412,100L15.518932011080883,100C15.518932011080883,50 -5.156591250474226,50 -5.156591250474226,0Z" fill="rgb(255,255,204)" stroke="none"></path><path d="M34.64091289455771,0C34.64091289455771,50 55.31643615611282,50 55.31643615611282,100L55.31643615611282,100C55.31643615611282,50 38.83012385719265,50 38.83012385719265,0Z" fill="rgb(204,204,255)" stroke="none"></path><path d="M72.34381155827218,0C72.34381155827218,50 88.83012385719235,50 88.83012385719235,100L88.83012385719235,100C88.83012385719235,50 74.43841703958965,50 74.43841703958965,0Z" fill="rgb(204,204,255)" stroke="none"></path><path d="M76.53302252090712,0C76.53302252090712,50 90.92472933850982,50 90.92472933850982,100L95.11394030114475,100C95.11394030114475,50 76.53302252090712,50 76.53302252090712,0Z" fill="rgb(255,255,204)" stroke="none"></path><path d="M124.70894859120894,0C124.70894859120894,50 143.28986637144658,50 143.28986637144658,100L157.95210474066886,100C157.95210474066886,50 124.70894859120894,50 124.70894859120894,0Z" fill="rgb(255,255,204)" stroke="none"></path><path d="M147.74960888570112,0C147.74960888570112,50 180.99276503516103,50 180.99276503516103,100L183.0873705164785,100C183.0873705164785,50 147.74960888570112,50 147.74960888570112,0Z" fill="rgb(255,255,204)" stroke="none"></path><path d="M187.54711303073304,0C187.54711303073304,50 222.88487466151045,50 222.88487466151045,100L222.88487466151045,100C222.88487466151045,50 189.64171851205052,50 189.64171851205052,0Z" fill="rgb(204,204,255)" stroke="none"></path><path d="M977.2133794874194,0C977.2133794874194,50 1031.402590450054,50 1031.402590450054,100L1033.4971959313714,100C1033.4971959313714,50 977.2133794874194,50 977.2133794874194,0Z" fill="rgb(255,255,204)" stroke="none"></path><path d="M985.5918014126893,0C985.5918014126893,50 1041.8756178566414,50 1041.8756178566414,100L1046.0648288192763,100C1046.0648288192763,50 985.5918014126893,50 985.5918014126893,0Z" fill="rgb(255,255,204)" stroke="none"></path><path d="M1029.578516520356,0C1029.578516520356,50 1090.0515439269432,50 1090.0515439269432,100L1092.1461494082607,100C1092.1461494082607,50 1029.578516520356,50 1029.578516520356,0Z" fill="rgb(255,255,204)" stroke="none"></path><path d="M1050.5245713335307,0C1050.5245713335307,50 1113.0922042214354,50 1113.0922042214354,100L1115.1868097027527,100C1115.1868097027527,50 1050.5245713335307,50 1050.5245713335307,0Z" fill="rgb(255,255,204)" stroke="none"></path><path d="M1079.8490480719754,0C1079.8490480719754,50 1144.5112864411974,50 1144.5112864411974,100L1146.605891922515,100C1146.605891922515,50 1079.8490480719754,50 1079.8490480719754,0Z" fill="rgb(255,255,204)" stroke="none"></path><path d="M1090.3220754785627,0C1090.3220754785627,50 1157.0789193291023,50 1157.0789193291023,100L1157.0789193291023,100C1157.0789193291023,50 1092.4166809598803,50 1092.4166809598803,0Z" fill="rgb(204,204,255)" stroke="none"></path><path d="M1153.160239918087,0C1153.160239918087,50 1217.822478287309,50 1217.822478287309,100L1217.822478287309,100C1217.822478287309,50 1157.3494508807219,50 1157.3494508807219,0Z" fill="rgb(204,204,255)" stroke="none"></path><path d="M1176.200900212579,0C1176.200900212579,50 1236.673927619166,50 1236.673927619166,100L1238.7685331004836,100C1238.7685331004836,50 1176.200900212579,50 1176.200900212579,0Z" fill="rgb(255,255,204)" stroke="none"></path><path d="M1207.6199824323412,0C1207.6199824323412,50 1270.1876153202456,50 1270.1876153202456,100L1272.2822208015632,100C1272.2822208015632,50 1207.6199824323412,50 1207.6199824323412,0Z" fill="rgb(255,255,204)" stroke="none"></path><path d="M1264.1743304279128,0C1264.1743304279128,50 1328.8365687971348,50 1328.8365687971348,100L1330.9311742784523,100C1330.9311742784523,50 1264.1743304279128,50 1264.1743304279128,0Z" fill="rgb(255,255,204)" stroke="none"></path><path d="M1289.3095962037225,0C1289.3095962037225,50 1356.0664400542619,50 1356.0664400542619,100L1356.0664400542619,100C1356.0664400542619,50 1291.4042016850399,50 1291.4042016850399,0Z" fill="rgb(204,204,255)" stroke="none"></path><path d="M1301.8772290916272,0C1301.8772290916272,50 1366.5394674608492,50 1366.5394674608492,100L1368.6340729421668,100C1368.6340729421668,50 1301.8772290916272,50 1301.8772290916272,0Z" fill="rgb(255,255,204)" stroke="none"></path><path d="M1324.9178893861194,0C1324.9178893861194,50 1391.674733236659,50 1391.674733236659,100L1391.674733236659,100C1391.674733236659,50 1327.012494867437,50 1327.012494867437,0Z" fill="rgb(204,204,255)" stroke="none"></path><path d="M1341.6747332366592,0C1341.6747332366592,50 1406.3369716058812,50 1406.3369716058812,100L1410.526182568516,100C1410.526182568516,50 1341.6747332366592,50 1341.6747332366592,0Z" fill="rgb(255,255,204)" stroke="none"></path><path d="M1350.053155161929,0C1350.053155161929,50 1418.904604493786,50 1418.904604493786,100L1418.904604493786,100C1418.904604493786,50 1354.2423661245641,50 1354.2423661245641,0Z" fill="rgb(204,204,255)" stroke="none"></path><path d="M1373.0938154564212,0C1373.0938154564212,50 1437.7560538256432,50 1437.7560538256432,100L1437.7560538256432,100C1437.7560538256432,50 1375.1884209377388,50 1375.1884209377388,0Z" fill="rgb(204,204,255)" stroke="none"></path><path d="M1383.5668428630086,0C1383.5668428630086,50 1446.1344757509132,50 1446.1344757509132,100L1446.1344757509132,100C1446.1344757509132,50 1396.1344757509135,50 1396.1344757509135,0Z" fill="rgb(204,204,255)" stroke="none"></path><path d="M1463.1618511530726,0C1463.1618511530726,50 1513.1618511530721,50 1513.1618511530721,100L1513.1618511530721,100C1513.1618511530721,50 1465.25645663439,50 1465.25645663439,0Z" fill="rgb(204,204,255)" stroke="none"></path><path d="M1492.486327891517,0C1492.486327891517,50 1540.3917224101992,50 1540.3917224101992,100L1542.4863278915168,100C1542.4863278915168,50 1492.486327891517,50 1492.486327891517,0Z" fill="rgb(255,255,204)" stroke="none"></path><path d="M1607.689629363978,0C1607.689629363978,50 1657.6896293639777,50 1657.6896293639777,100L1659.784234845295,100C1659.784234845295,50 1607.689629363978,50 1607.689629363978,0Z" fill="rgb(255,255,204)" stroke="none"></path><path d="M1624.4464732145177,0C1624.4464732145177,50 1676.5410786958348,50 1676.5410786958348,100L1678.6356841771524,100C1678.6356841771524,50 1624.4464732145177,50 1624.4464732145177,0Z" fill="rgb(255,255,204)" stroke="none"></path><path d="M1626.5410786958353,0C1626.5410786958353,50 1680.73028965847,50 1680.73028965847,100L1682.8248951397873,100C1682.8248951397873,50 1626.5410786958353,50 1626.5410786958353,0Z" fill="rgb(255,255,204)" stroke="none"></path><path d="M1651.6763444716448,0C1651.6763444716448,50 1707.960160915597,50 1707.960160915597,100L1710.0547663969144,100C1710.0547663969144,50 1651.6763444716448,50 1651.6763444716448,0Z" fill="rgb(255,255,204)" stroke="none"></path><path d="M1655.8655554342797,0C1655.8655554342797,50 1714.2439773595493,50 1714.2439773595493,100L1714.2439773595493,100C1714.2439773595493,50 1657.9601609155973,50 1657.9601609155973,0Z" fill="rgb(204,204,255)" stroke="none"></path><path d="M1704.0414815045815,0C1704.0414815045815,50 1760.3252979485337,50 1760.3252979485337,100L1764.5145089111686,100C1764.5145089111686,50 1704.0414815045815,50 1704.0414815045815,0Z" fill="rgb(255,255,204)" stroke="none"></path></g></g></g><g transform="translate(0 100)"><g transform="translate(50 13)"><g transform="translate(0)"><text x="0" font-size="13" fill-opacity="0.8705882352941177" fill="#000000">volvox_random_inv</text><g transform="translate(0 0)"><defs><clipPath id="clip-volvox_random_inv:ctgA:1731.5910000000001:2117.3438337468983:0"><rect x="0" y="0" width="807.9999999999999" height="100"></rect></clipPath></defs><g clip-path="url(#clip-volvox_random_inv:ctgA:1731.5910000000001:2117.3438337468983:0)"><text x="4" y="13" font-size="13" fill="#000000">ctgA</text><g transform="translate(0 20)"><line x1="-26.373177615268524" x2="-26.373177615268524" y1="0" y2="4" stroke-width="1" stroke="#000000"></line><line x1="-5.427122802093821" x2="-5.427122802093821" y1="0" y2="4" stroke-width="1" stroke="#000000"></line><line x1="15.518932011080883" x2="15.518932011080883" y1="0" y2="4" stroke-width="1" stroke="#000000"></line><line x1="36.46498682425559" x2="36.46498682425559" y1="0" y2="4" stroke-width="1" stroke="#000000"></line><line x1="57.411041637430294" x2="57.411041637430294" y1="0" y2="4" stroke-width="1" stroke="#000000"></line><line x1="78.357096450605" x2="78.357096450605" y1="0" y2="4" stroke-width="1" stroke="#000000"></line><line x1="99.3031512637797" x2="99.3031512637797" y1="0" y2="4" stroke-width="1" stroke="#000000"></line><line x1="120.24920607695441" x2="120.24920607695441" y1="0" y2="4" stroke-width="1" stroke="#000000"></line><line x1="141.1952608901291" x2="141.1952608901291" y1="0" y2="6" stroke-width="1" stroke="#000000"></line><line x1="162.1413157033038" x2="162.1413157033038" y1="0" y2="4" stroke-width="1" stroke="#000000"></line><line x1="183.0873705164785" x2="183.0873705164785" y1="0" y2="4" stroke-width="1" stroke="#000000"></line><line x1="204.03342532965323" x2="204.03342532965323" y1="0" y2="4" stroke-width="1" stroke="#000000"></line><line x1="224.97948014282792" x2="224.97948014282792" y1="0" y2="4" stroke-width="1" stroke="#000000"></line><line x1="245.92553495600262" x2="245.92553495600262" y1="0" y2="4" stroke-width="1" stroke="#000000"></line><line x1="266.8715897691773" x2="266.8715897691773" y1="0" y2="4" stroke-width="1" stroke="#000000"></line><line x1="287.81764458235205" x2="287.81764458235205" y1="0" y2="4" stroke-width="1" stroke="#000000"></line><line x1="308.7636993955267" x2="308.7636993955267" y1="0" y2="4" stroke-width="1" stroke="#000000"></line><line x1="329.70975420870144" x2="329.70975420870144" y1="0" y2="4" stroke-width="1" stroke="#000000"></line><line x1="350.65580902187617" x2="350.65580902187617" y1="0" y2="6" stroke-width="1" stroke="#000000"></line><line x1="371.60186383505084" x2="371.60186383505084" y1="0" y2="4" stroke-width="1" stroke="#000000"></line><line x1="392.54791864822556" x2="392.54791864822556" y1="0" y2="4" stroke-width="1" stroke="#000000"></line><line x1="413.49397346140023" x2="413.49397346140023" y1="0" y2="4" stroke-width="1" stroke="#000000"></line><line x1="434.44002827457496" x2="434.44002827457496" y1="0" y2="4" stroke-width="1" stroke="#000000"></line><line x1="455.3860830877497" x2="455.3860830877497" y1="0" y2="4" stroke-width="1" stroke="#000000"></line><line x1="476.33213790092435" x2="476.33213790092435" y1="0" y2="4" stroke-width="1" stroke="#000000"></line><line x1="497.2781927140991" x2="497.2781927140991" y1="0" y2="4" stroke-width="1" stroke="#000000"></line><line x1="518.2242475272737" x2="518.2242475272737" y1="0" y2="4" stroke-width="1" stroke="#000000"></line><line x1="539.1703023404485" x2="539.1703023404485" y1="0" y2="4" stroke-width="1" stroke="#000000"></line><line x1="560.1163571536232" x2="560.1163571536232" y1="0" y2="6" stroke-width="1" stroke="#000000"></line><line x1="581.0624119667979" x2="581.0624119667979" y1="0" y2="4" stroke-width="1" stroke="#000000"></line><line x1="602.0084667799727" x2="602.0084667799727" y1="0" y2="4" stroke-width="1" stroke="#000000"></line><line x1="622.9545215931473" x2="622.9545215931473" y1="0" y2="4" stroke-width="1" stroke="#000000"></line><line x1="643.900576406322" x2="643.900576406322" y1="0" y2="4" stroke-width="1" stroke="#000000"></line><line x1="664.8466312194967" x2="664.8466312194967" y1="0" y2="4" stroke-width="1" stroke="#000000"></line><line x1="685.7926860326714" x2="685.7926860326714" y1="0" y2="4" stroke-width="1" stroke="#000000"></line><line x1="706.7387408458461" x2="706.7387408458461" y1="0" y2="4" stroke-width="1" stroke="#000000"></line><line x1="727.6847956590208" x2="727.6847956590208" y1="0" y2="4" stroke-width="1" stroke="#000000"></line><line x1="748.6308504721956" x2="748.6308504721956" y1="0" y2="4" stroke-width="1" stroke="#000000"></line><line x1="769.5769052853702" x2="769.5769052853702" y1="0" y2="6" stroke-width="1" stroke="#000000"></line><line x1="790.5229600985449" x2="790.5229600985449" y1="0" y2="4" stroke-width="1" stroke="#000000"></line><line x1="811.4690149117197" x2="811.4690149117197" y1="0" y2="4" stroke-width="1" stroke="#000000"></line><line x1="832.4150697248944" x2="832.4150697248944" y1="0" y2="4" stroke-width="1" stroke="#000000"></line><text x="138.1952608901291" y="18" font-size="11" fill="#000000">1,800</text><text x="347.65580902187617" y="18" font-size="11" fill="#000000">1,900</text><text x="557.1163571536232" y="18" font-size="11" fill="#000000">2,000</text><text x="766.5769052853702" y="18" font-size="11" fill="#000000">2,100</text></g></g></g></g><g transform="translate(0 43)"><g transform="translate(0 0)"><defs><clipPath id="gridline-clip-volvox_random_inv:ctgA:1731.5910000000001:2117.3438337468983:0"><rect x="0" y="0" width="807.9999999999999" height="270"></rect></clipPath></defs><g clip-path="url(#gridline-clip-volvox_random_inv:ctgA:1731.5910000000001:2117.3438337468983:0)"><line x1="-26.373177615268524" x2="-26.373177615268524" y1="0" y2="270" stroke-width="1" stroke-opacity="0.12156862745098039" stroke="#000000"></line><line x1="-5.427122802093821" x2="-5.427122802093821" y1="0" y2="270" stroke-width="1" stroke-opacity="0.12156862745098039" stroke="#000000"></line><line x1="15.518932011080883" x2="15.518932011080883" y1="0" y2="270" stroke-width="1" stroke-opacity="0.12156862745098039" stroke="#000000"></line><line x1="36.46498682425559" x2="36.46498682425559" y1="0" y2="270" stroke-width="1" stroke-opacity="0.12156862745098039" stroke="#000000"></line><line x1="57.411041637430294" x2="57.411041637430294" y1="0" y2="270" stroke-width="1" stroke-opacity="0.12156862745098039" stroke="#000000"></line><line x1="78.357096450605" x2="78.357096450605" y1="0" y2="270" stroke-width="1" stroke-opacity="0.12156862745098039" stroke="#000000"></line><line x1="99.3031512637797" x2="99.3031512637797" y1="0" y2="270" stroke-width="1" stroke-opacity="0.12156862745098039" stroke="#000000"></line><line x1="120.24920607695441" x2="120.24920607695441" y1="0" y2="270" stroke-width="1" stroke-opacity="0.12156862745098039" stroke="#000000"></line><line x1="141.1952608901291" x2="141.1952608901291" y1="0" y2="270" stroke-width="1" stroke-opacity="0.25882352941176473" stroke="#000000"></line><line x1="162.1413157033038" x2="162.1413157033038" y1="0" y2="270" stroke-width="1" stroke-opacity="0.12156862745098039" stroke="#000000"></line><line x1="183.0873705164785" x2="183.0873705164785" y1="0" y2="270" stroke-width="1" stroke-opacity="0.12156862745098039" stroke="#000000"></line><line x1="204.03342532965323" x2="204.03342532965323" y1="0" y2="270" stroke-width="1" stroke-opacity="0.12156862745098039" stroke="#000000"></line><line x1="224.97948014282792" x2="224.97948014282792" y1="0" y2="270" stroke-width="1" stroke-opacity="0.12156862745098039" stroke="#000000"></line><line x1="245.92553495600262" x2="245.92553495600262" y1="0" y2="270" stroke-width="1" stroke-opacity="0.12156862745098039" stroke="#000000"></line><line x1="266.8715897691773" x2="266.8715897691773" y1="0" y2="270" stroke-width="1" stroke-opacity="0.12156862745098039" stroke="#000000"></line><line x1="287.81764458235205" x2="287.81764458235205" y1="0" y2="270" stroke-width="1" stroke-opacity="0.12156862745098039" stroke="#000000"></line><line x1="308.7636993955267" x2="308.7636993955267" y1="0" y2="270" stroke-width="1" stroke-opacity="0.12156862745098039" stroke="#000000"></line><line x1="329.70975420870144" x2="329.70975420870144" y1="0" y2="270" stroke-width="1" stroke-opacity="0.12156862745098039" stroke="#000000"></line><line x1="350.65580902187617" x2="350.65580902187617" y1="0" y2="270" stroke-width="1" stroke-opacity="0.25882352941176473" stroke="#000000"></line><line x1="371.60186383505084" x2="371.60186383505084" y1="0" y2="270" stroke-width="1" stroke-opacity="0.12156862745098039" stroke="#000000"></line><line x1="392.54791864822556" x2="392.54791864822556" y1="0" y2="270" stroke-width="1" stroke-opacity="0.12156862745098039" stroke="#000000"></line><line x1="413.49397346140023" x2="413.49397346140023" y1="0" y2="270" stroke-width="1" stroke-opacity="0.12156862745098039" stroke="#000000"></line><line x1="434.44002827457496" x2="434.44002827457496" y1="0" y2="270" stroke-width="1" stroke-opacity="0.12156862745098039" stroke="#000000"></line><line x1="455.3860830877497" x2="455.3860830877497" y1="0" y2="270" stroke-width="1" stroke-opacity="0.12156862745098039" stroke="#000000"></line><line x1="476.33213790092435" x2="476.33213790092435" y1="0" y2="270" stroke-width="1" stroke-opacity="0.12156862745098039" stroke="#000000"></line><line x1="497.2781927140991" x2="497.2781927140991" y1="0" y2="270" stroke-width="1" stroke-opacity="0.12156862745098039" stroke="#000000"></line><line x1="518.2242475272737" x2="518.2242475272737" y1="0" y2="270" stroke-width="1" stroke-opacity="0.12156862745098039" stroke="#000000"></line><line x1="539.1703023404485" x2="539.1703023404485" y1="0" y2="270" stroke-width="1" stroke-opacity="0.12156862745098039" stroke="#000000"></line><line x1="560.1163571536232" x2="560.1163571536232" y1="0" y2="270" stroke-width="1" stroke-opacity="0.25882352941176473" stroke="#000000"></line><line x1="581.0624119667979" x2="581.0624119667979" y1="0" y2="270" stroke-width="1" stroke-opacity="0.12156862745098039" stroke="#000000"></line><line x1="602.0084667799727" x2="602.0084667799727" y1="0" y2="270" stroke-width="1" stroke-opacity="0.12156862745098039" stroke="#000000"></line><line x1="622.9545215931473" x2="622.9545215931473" y1="0" y2="270" stroke-width="1" stroke-opacity="0.12156862745098039" stroke="#000000"></line><line x1="643.900576406322" x2="643.900576406322" y1="0" y2="270" stroke-width="1" stroke-opacity="0.12156862745098039" stroke="#000000"></line><line x1="664.8466312194967" x2="664.8466312194967" y1="0" y2="270" stroke-width="1" stroke-opacity="0.12156862745098039" stroke="#000000"></line><line x1="685.7926860326714" x2="685.7926860326714" y1="0" y2="270" stroke-width="1" stroke-opacity="0.12156862745098039" stroke="#000000"></line><line x1="706.7387408458461" x2="706.7387408458461" y1="0" y2="270" stroke-width="1" stroke-opacity="0.12156862745098039" stroke="#000000"></line><line x1="727.6847956590208" x2="727.6847956590208" y1="0" y2="270" stroke-width="1" stroke-opacity="0.12156862745098039" stroke="#000000"></line><line x1="748.6308504721956" x2="748.6308504721956" y1="0" y2="270" stroke-width="1" stroke-opacity="0.12156862745098039" stroke="#000000"></line><line x1="769.5769052853702" x2="769.5769052853702" y1="0" y2="270" stroke-width="1" stroke-opacity="0.25882352941176473" stroke="#000000"></line><line x1="790.5229600985449" x2="790.5229600985449" y1="0" y2="270" stroke-width="1" stroke-opacity="0.12156862745098039" stroke="#000000"></line><line x1="811.4690149117197" x2="811.4690149117197" y1="0" y2="270" stroke-width="1" stroke-opacity="0.12156862745098039" stroke="#000000"></line><line x1="832.4150697248944" x2="832.4150697248944" y1="0" y2="270" stroke-width="1" stroke-opacity="0.12156862745098039" stroke="#000000"></line></g></g></g><g transform="translate(0 43)"><g transform="translate(0 0)"><defs><clipPath id="track-clip-volvox_inv_indels"><rect x="0" y="18" width="808" height="250"></rect></clipPath></defs><g clip-path="url(#track-clip-volvox_inv_indels)"><g transform="translate(0 18)"><defs><clipPath id="alignments-clip-t2-display"><rect x="0" y="0" width="808" height="250"></rect></clipPath></defs><g clip-path="url(#alignments-clip-t2-display)"><g><clipPath id="svgcanvas-clip-0"><path d="M0,0h808v250h-808Z"></path></clipPath><g clip-path="url(#svgcanvas-clip-0)"><clipPath id="svgcanvas-clip-1"><path d="M0,0h808v250h-808Z"></path></clipPath><g clip-path="url(#svgcanvas-clip-1)"><path d="M1010.4565356368794,0L29729.59228998072,0L29737.59228998072,3.5L29729.59228998072,7L1010.4565356368794,7Z" fill="rgb(236,139,139)" stroke="none"></path><path d="M-405.4967697337307,0L250.1147459186376,0L258.1147459186376,3.5L250.1147459186376,7L-405.4967697337307,7Z" fill="rgb(236,139,139)" stroke="none"></path><path d="M1010.4565356368794,8L268.9661952504948,8L260.9661952504948,11.5L268.9661952504948,15L1010.4565356368794,15Z" fill="rgb(143,143,216)" stroke="none"></path></g></g></g></g></g></g><text x="0" y="5" fill="#000000" font-size="13" dominant-baseline="hanging">volvox_inv_indels</text></g></g><g transform="translate(0 43)"><defs><clipPath id="highlight-clip-view2"><rect x="0" y="0" width="808" height="270"></rect></clipPath></defs><g clip-path="url(#highlight-clip-view2)"></g></g></g></g></g></svg>