<svg width="908" height="320" xmlns="http://www.w3.org/2000/svg" xmlns:xlink="http://www.w3.org/1999/xlink" viewBox="0 0 908 320"><rect width="908" height="320" fill="#ffffff"></rect><g transform="translate(50 0)"><g transform="translate(0)"><g id="header"><text x="0" y="0" dominant-baseline="hanging" font-size="13" fill="#000000">volvox</text><g transform="translate(0 13)"><line x1="0" x2="808" y1="10" y2="10" stroke="#000000"></line><line x1="0" x2="0" y1="5" y2="15" stroke="#000000"></line><line x1="808" x2="808" y1="5" y2="15" stroke="#000000"></line><text x="404" y="13" text-anchor="middle" dominant-baseline="hanging" font-size="13" fill="#000000">4.04Kbp</text></g><g transform="translate(0 50)"><g><defs><clipPath id="clip-volvox:ctgA:0:4040:0"><rect x="0" y="0" width="808" height="100"></rect></clipPath></defs><g transform="translate(0 0)"><g clip-path="url(#clip-volvox:ctgA:0:4040:0)"><text x="4" y="13" font-size="13" fill="#000000">ctgA</text><g transform="translate(0 20)"><line x1="-20.2" x2="-20.2" y1="0" y2="4" stroke-width="1" stroke="#000000"></line><line x1="-0.2" x2="-0.2" y1="0" y2="6" stroke-width="1" stroke="#000000"></line><line x1="19.8" x2="19.8" y1="0" y2="4" stroke-width="1" stroke="#000000"></line><line x1="39.8" x2="39.8" y1="0" y2="4" stroke-width="1" stroke="#000000"></line><line x1="59.8" x2="59.8" y1="0" y2="4" stroke-width="1" stroke="#000000"></line><line x1="79.8" x2="79.8" y1="0" y2="4" stroke-width="1" stroke="#000000"></line><line x1="99.8" x2="99.8" y1="0" y2="4" stroke-width="1" stroke="#000000"></line><line x1="119.8" x2="119.8" y1="0" y2="4" stroke-width="1" stroke="#000000"></line><line x1="139.8" x2="139.8" y1="0" y2="4" stroke-width="1" stroke="#000000"></line><line x1="159.8" x2="159.8" y1="0" y2="4" stroke-width="1" stroke="#000000"></line><line x1="179.8" x2="179.8" y1="0" y2="4" stroke-width="1" stroke="#000000"></line><line x1="199.8" x2="199.8" y1="0" y2="6" stroke-width="1" stroke="#000000"></line><line x1="219.8" x2="219.8" y1="0" y2="4" stroke-width="1" stroke="#000000"></line><line x1="239.8" x2="239.8" y1="0" y2="4" stroke-width="1" stroke="#000000"></line><line x1="259.8" x2="259.8" y1="0" y2="4" stroke-width="1" stroke="#000000"></line><line x1="279.8" x2="279.8" y1="0" y2="4" stroke-width="1" stroke="#000000"></line><line x1="299.8" x2="299.8" y1="0" y2="4" stroke-width="1" stroke="#000000"></line><line x1="319.8" x2="319.8" y1="0" y2="4" stroke-width="1" stroke="#000000"></line><line x1="339.8" x2="339.8" y1="0" y2="4" stroke-width="1" stroke="#000000"></line><line x1="359.8" x2="359.8" y1="0" y2="4" stroke-width="1" stroke="#000000"></line><line x1="379.8" x2="379.8" y1="0" y2="4" stroke-width="1" stroke="#000000"></line><line x1="399.8" x2="399.8" y1="0" y2="6" stroke-width="1" stroke="#000000"></line><line x1="419.8" x2="419.8" y1="0" y2="4" stroke-width="1" stroke="#000000"></line><line x1="439.8" x2="439.8" y1="0" y2="4" stroke-width="1" stroke="#000000"></line><line x1="459.8" x2="459.8" y1="0" y2="4" stroke-width="1" stroke="#000000"></line><line x1="479.8" x2="479.8" y1="0" y2="4" stroke-width="1" stroke="#000000"></line><line x1="499.8" x2="499.8" y1="0" y2="4" stroke-width="1" stroke="#000000"></line><line x1="519.8" x2="519.8" y1="0" y2="4" stroke-width="1" stroke="#000000"></line><line x1="539.8" x2="539.8" y1="0" y2="4" stroke-width="1" stroke="#000000"></line><line x1="559.8" x2="559.8" y1="0" y2="4" stroke-width="1" stroke="#000000"></line><line x1="579.8" x2="579.8" y1="0" y2="4" stroke-width="1" stroke="#000000"></line><line x1="599.8" x2="599.8" y1="0" y2="6" stroke-width="1" stroke="#000000"></line><line x1="619.8" x2="619.8" y1="0" y2="4" stroke-width="1" stroke="#000000"></line><line x1="639.8" x2="639.8" y1="0" y2="4" stroke-width="1" stroke="#000000"></line><line x1="659.8" x2="659.8" y1="0" y2="4" stroke-width="1" stroke="#000000"></line><line x1="679.8" x2="679.8" y1="0" y2="4" stroke-width="1" stroke="#000000"></line><line x1="699.8" x2="699.8" y1="0" y2="4" stroke-width="1" stroke="#000000"></line><line x1="719.8" x2="719.8" y1="0" y2="4" stroke-width="1" stroke="#000000"></line><line x1="739.8" x2="739.8" y1="0" y2="4" stroke-width="1" stroke="#000000"></line><line x1="759.8" x2="759.8" y1="0" y2="4" stroke-width="1" stroke="#000000"></line><line x1="779.8" x2="779.8" y1="0" y2="4" stroke-width="1" stroke="#000000"></line><line x1="799.8" x2="799.8" y1="0" y2="6" stroke-width="1" stroke="#000000"></line><line x1="819.8" x2="819.8" y1="0" y2="4" stroke-width="1" stroke="#000000"></line><line x1="839.8" x2="839.8" y1="0" y2="4" stroke-width="1" stroke="#000000"></line><text x="196.8" y="18" font-size="11" fill="#000000">1,000</text><text x="396.8" y="18" font-size="11" fill="#000000">2,000</text><text x="596.8" y="18" font-size="11" fill="#000000">3,000</text></g></g></g></g></g></g></g><g transform="translate(0 100)"><g transform="translate(0 0)"><defs><clipPath id="track-clip-volvox_microarray"><rect x="-50" y="18" width="858" height="100"></rect></clipPath></defs><g clip-path="url(#track-clip-volvox_microarray)"><g transform="translate(0 18)"><defs><clipPath id="wiggle-clip-5GfQp_z8Ji"><rect x="0" y="0" width="808" height="100"></rect></clipPath></defs><g clip-path="url(#wiggle-clip-5GfQp_z8Ji)"><g transform="translate(0,5)"><g><clipPath id="svgcanvas-clip-0"><path d="M0,0h808v90h-808Z"></path></clipPath><g clip-path="url(#svgcanvas-clip-0)"><rect x="0" y="5.699999999999992" width="20.8" height="84.30000000000001" fill="rgb(0,104,209)"></rect><rect x="20" y="35.1" width="20.8" height="54.9" fill="rgb(0,104,209)"></rect><rect x="40" y="26.099999999999994" width="20.8" height="63.900000000000006" fill="rgb(0,104,209)"></rect><rect x="60" y="32.699999999999996" width="20.8" height="57.300000000000004" fill="rgb(0,104,209)"></rect><rect x="80" y="3.5999999999999934" width="20.8" height="86.4" fill="rgb(0,104,209)"></rect><rect x="100" y="34.8" width="20.8" height="55.2" fill="rgb(0,104,209)"></rect><rect x="120" y="12.59999999999999" width="20.8" height="77.4" fill="rgb(0,104,209)"></rect><rect x="140" y="38.1" width="20.8" height="51.9" fill="rgb(0,104,209)"></rect><rect x="160" y="7.79999999999999" width="20.8" height="82.20000000000002" fill="rgb(0,104,209)"></rect><rect x="180" y="2.3999999999999955" width="20.8" height="87.60000000000001" fill="rgb(0,104,209)"></rect><rect x="200" y="21.899999999999995" width="20.80000000000003" height="68.10000000000001" fill="rgb(0,104,209)"></rect><rect x="220.00000000000003" y="27.3" width="20.799999999999972" height="62.7" fill="rgb(0,104,209)"></rect><rect x="240" y="6.8999999999999995" width="20.8" height="83.1" fill="rgb(0,104,209)"></rect><rect x="260" y="36.89999999999999" width="20.8" height="53.10000000000001" fill="rgb(0,104,209)"></rect><rect x="280" y="30.3" width="20.8" height="59.7" fill="rgb(0,104,209)"></rect><rect x="300" y="40.49999999999999" width="20.8" height="49.50000000000001" fill="rgb(0,104,209)"></rect><rect x="320" y="38.699999999999996" width="20.8" height="51.300000000000004" fill="rgb(0,104,209)"></rect><rect x="340" y="49.50000000000001" width="20.8" height="40.49999999999999" fill="rgb(0,104,209)"></rect><rect x="360" y="30.599999999999998" width="20.8" height="59.400000000000006" fill="rgb(0,104,209)"></rect><rect x="380" y="32.4" width="20.8" height="57.6" fill="rgb(0,104,209)"></rect><rect x="400" y="55.8" width="20.8" height="34.2" fill="rgb(0,104,209)"></rect><rect x="420" y="2.3999999999999955" width="20.800000000000058" height="87.60000000000001" fill="rgb(0,104,209)"></rect><rect x="440.00000000000006" y="17.999999999999996" width="20.799999999999887" height="72" fill="rgb(0,104,209)"></rect><rect x="459.99999999999994" y="32.699999999999996" width="20.800000000000058" height="57.300000000000004" fill="rgb(0,104,209)"></rect><rect x="480" y="9.599999999999993" width="20.8" height="80.4" fill="rgb(0,104,209)"></rect><rect x="500" y="45.9" width="20.8" height="44.1" fill="rgb(0,104,209)"></rect><rect x="520" y="53.099999999999994" width="20.8" height="36.900000000000006" fill="rgb(0,104,209)"></rect><rect x="540" y="21.899999999999995" width="20.8" height="68.10000000000001" fill="rgb(0,104,209)"></rect><rect x="560" y="19.199999999999992" width="20.8" height="70.80000000000001" fill="rgb(0,104,209)"></rect><rect x="580" y="26.099999999999994" width="20.8" height="63.900000000000006" fill="rgb(0,104,209)"></rect><rect x="600" y="5.699999999999992" width="20.8" height="84.30000000000001" fill="rgb(0,104,209)"></rect><rect x="620" y="4.799999999999991" width="20.8" height="85.2" fill="rgb(0,104,209)"></rect><rect x="640" y="49.199999999999996" width="20.8" height="40.800000000000004" fill="rgb(0,104,209)"></rect><rect x="660" y="8.69999999999999" width="20.8" height="81.30000000000001" fill="rgb(0,104,209)"></rect><rect x="680" y="58.8" width="20.8" height="31.200000000000003" fill="rgb(0,104,209)"></rect><rect x="700" y="56.69999999999999" width="20.8" height="33.30000000000001" fill="rgb(0,104,209)"></rect><rect x="720" y="23.39999999999999" width="20.8" height="66.60000000000001" fill="rgb(0,104,209)"></rect><rect x="740" y="13.799999999999999" width="20.8" height="76.2" fill="rgb(0,104,209)"></rect><rect x="760" y="58.2" width="20.8" height="31.799999999999997" fill="rgb(0,104,209)"></rect><rect x="780" y="36.599999999999994" width="20.8" height="53.400000000000006" fill="rgb(0,104,209)"></rect><rect x="800" y="60" width="20.8" height="30" fill="rgb(0,104,209)"></rect><rect x="820" y="46.49999999999999" width="20.8" height="43.50000000000001" fill="rgb(0,104,209)"></rect><rect x="840" y="24.29999999999999" width="20.8" height="65.70000000000002" fill="rgb(0,104,209)"></rect><rect x="860" y="12.899999999999999" width="20.800000000000114" height="77.1" fill="rgb(0,104,209)"></rect><rect x="880.0000000000001" y="0.29999999999999694" width="20.8" height="89.7" fill="rgb(0,104,209)"></rect><rect x="900.0000000000001" y="9.599999999999993" width="20.799999999999773" height="80.4" fill="rgb(0,104,209)"></rect><rect x="919.9999999999999" y="34.5" width="20.8" height="55.5" fill="rgb(0,104,209)"></rect><rect x="939.9999999999999" y="20.999999999999996" width="20.800000000000114" height="69" fill="rgb(0,104,209)"></rect><rect x="960" y="28.799999999999997" width="20.8" height="61.2" fill="rgb(0,104,209)"></rect><rect x="980" y="22.5" width="20.8" height="67.5" fill="rgb(0,104,209)"></rect><rect x="1000" y="55.8" width="20.8" height="34.2" fill="rgb(0,104,209)"></rect><rect x="1020" y="50.69999999999999" width="20.8" height="39.30000000000001" fill="rgb(0,104,209)"></rect><rect x="1040" y="2.0999999999999988" width="20.8" height="87.9" fill="rgb(0,104,209)"></rect><rect x="1060" y="26.999999999999993" width="20.8" height="63.00000000000001" fill="rgb(0,104,209)"></rect><rect x="1080" y="32.4" width="20.8" height="57.6" fill="rgb(0,104,209)"></rect><rect x="1100" y="48.3" width="20.8" height="41.7" fill="rgb(0,104,209)"></rect><rect x="1120" y="32.99999999999999" width="20.8" height="57.00000000000001" fill="rgb(0,104,209)"></rect><rect x="1140" y="21.299999999999994" width="20.8" height="68.7" fill="rgb(0,104,209)"></rect><rect x="1160" y="42.9" width="20.8" height="47.1" fill="rgb(0,104,209)"></rect><rect x="1180" y="16.799999999999997" width="20.8" height="73.2" fill="rgb(0,104,209)"></rect><rect x="1200" y="4.499999999999994" width="20.8" height="85.5" fill="rgb(0,104,209)"></rect></g></g></g></g><g transform="translate(0)"><g font-size="10" font-family="sans-serif" text-anchor="end" stroke="rgb(0, 0, 0)" stroke-width="1"><path fill="none" d="M-6 5.5H0.5V94.5H-6"></path><g transform="translate(0,94)"><line x2="-6" y1="0.5" y2="0.5"></line><text stroke="#fff" stroke-width="2.5" paint-order="stroke" fill="rgb(0, 0, 0)" dy="0.32em" x="-9" y="0.5">0</text></g><g transform="translate(0,64.33333333333334)"><line x2="-6" y1="0.5" y2="0.5"></line><text stroke="#fff" stroke-width="2.5" paint-order="stroke" fill="rgb(0, 0, 0)" dy="0.32em" x="-9" y="0.5">100</text></g><g transform="translate(0,34.66666666666667)"><line x2="-6" y1="0.5" y2="0.5"></line><text stroke="#fff" stroke-width="2.5" paint-order="stroke" fill="rgb(0, 0, 0)" dy="0.32em" x="-9" y="0.5">200</text></g><g transform="translate(0,5)"><line x2="-6" y1="0.5" y2="0.5"></line><text stroke="#fff" stroke-width="2.5" paint-order="stroke" fill="rgb(0, 0, 0)" dy="0.32em" x="-9" y="0.5">300</text></g></g></g></g></g><text x="0" y="5" fill="#000000" font-size="13" dominant-baseline="hanging">wiggle_track xyplot</text></g></g></g></svg>