<?xml version="1.0" encoding="UTF-8"?>
<svg width="452px" height="328px" viewBox="0 0 452 328" version="1.1" xmlns="http://www.w3.org/2000/svg" xmlns:xlink="http://www.w3.org/1999/xlink">
    <!-- Generator: Sketch 63.1 (92452) - https://sketch.com -->
    <title>logo</title>
    <desc>Created with Sketch.</desc>
    <g id="Page-1" stroke="none" stroke-width="1" fill="none" fill-rule="evenodd">
        <g id="logo" transform="translate(-7.000000, -4.000000)">
            <path d="M199.8,40.1 L199.8,4.5 C199.6,4.5 199.4,4.5 199.3,4.5 C190.8,4.5 182.5,5.1 174.3,6.1 L178.9,41.4 C185.6,40.5 192.5,40 199.5,40 C199.6,40.1 199.7,40.1 199.8,40.1" id="Path" fill="#5CB323" fill-rule="nonzero"></path>
            <path d="M80.6,180.3 L115.4,184.9 C115.9,181.2 116.6,177.6 117.5,174.1 C118.4,170.5 119.6,167.1 121,163.7 L88.6,150.2 L55.4,136.4 C52.8,142.6 50.7,149 48.9,155.6 L14.1,146.3 C12,154.3 10.3,162.5 9.2,170.9 L45,175.6 L80.6,180.3 Z" id="Path" fill="#5CB323" fill-rule="nonzero"></path>
            <path d="M249.4,11.1 L240.1,45.4 C246.7,47.2 253.2,49.4 259.4,52 L273.1,19.2 C265.5,16 257.5,13.3 249.4,11.1" id="Path" fill="#5CB323" fill-rule="nonzero"></path>
            <path d="M126.5,290.9 C122.3,287.7 118.4,284.3 114.7,280.6 L89.3,306 C94.1,310.8 99.2,315.3 104.6,319.4 L126.5,290.9 Z" id="Path" fill="#5CB323" fill-rule="nonzero"></path>
            <path d="M83.7,227 L117.6,218 C116.7,214.5 115.9,210.9 115.4,207.2 C114.9,203.5 114.6,199.8 114.6,196 L79.5,196 C79.5,201.3 79.9,206.6 80.6,211.7 L45,216.3 C44.1,209.7 43.7,202.9 43.7,196 L7.6,196 L7.6,196.1 C7.6,204.5 8.1,212.8 9.2,221 C10.3,229.4 11.9,237.6 14,245.6 L49,236.3 L83.7,227 Z" id="Path" fill="#5CB323" fill-rule="nonzero"></path>
            <path d="M132.2,247.4 C130,244.5 127.9,241.4 126.1,238.2 C124.3,235 122.6,231.8 121.2,228.4 L88.8,241.8 C90.8,246.6 93.1,251.3 95.7,255.8 L64.6,273.8 L33.2,291.9 C37.4,299.2 42.1,306.1 47.1,312.7 C52.2,319.3 57.7,325.6 63.6,331.6 L89.3,306 C84.5,301.2 80,296.1 75.9,290.7 L104.4,268.8 L132.2,247.4 Z" id="Path" fill="#5CB323" fill-rule="nonzero"></path>
            <path d="M221.6,113.9 C225.2,114.9 228.7,116 232,117.5 L245.5,85.1 C240.7,83.1 235.8,81.4 230.7,80.1 L221.6,113.9 Z" id="Path" fill="#5CB323" fill-rule="nonzero"></path>
            <path d="M183.5,77 L178.9,41.4 C172.1,42.3 165.4,43.6 158.9,45.4 L149.7,10.9 C141.6,13.1 133.6,15.8 125.9,19 L139.6,52 L153.3,85.2 C148.5,87.2 143.8,89.6 139.3,92.2 L156.9,122.5 C160.1,120.7 163.4,119 166.8,117.6 C170.2,116.2 173.7,115 177.2,114 C180.7,113 184.4,112.3 188.1,111.8 C191.8,111.3 195.7,111 199.5,111 C199.6,111 199.7,111 199.9,111 L199.9,75.9 C199.8,75.9 199.7,75.9 199.5,75.9 C194,76 188.7,76.3 183.5,77" id="Path" fill="#5CB323" fill-rule="nonzero"></path>
            <path d="M199.8,76 C205.1,76 210.3,76.4 215.4,77.1 L220.2,41.5 C213.5,40.6 206.8,40.2 199.9,40.1 L199.8,76 Z" id="Path" fill="#5CB323" fill-rule="nonzero"></path>
            <path d="M104.4,72.4 L82.6,44 C76,49.1 69.7,54.6 63.7,60.5 L89.1,85.9 L114.5,111.3 C118.2,107.6 122.1,104.1 126.3,100.9 C130.4,97.7 134.8,94.8 139.3,92.1 L121.3,61 C115.4,64.5 109.8,68.3 104.4,72.4" id="Path" fill="#5CB323" fill-rule="nonzero"></path>
            <path d="M131.9,144.5 C134.2,141.5 136.6,138.7 139.2,136.1 L114.4,111.3 C110.7,115 107.3,119 104.1,123.2 L131.9,144.5 Z" id="Path" fill="#5CB323" fill-rule="nonzero"></path>
            <path d="M47.2,79.4 C42.1,86 37.4,93 33.2,100.2 L64.3,118.2 L95.4,136.2 C98,131.6 100.9,127.3 104.1,123.1 L75.6,101.2 L47.2,79.4 Z" id="Path" fill="#5CB323" fill-rule="nonzero"></path>
            <path d="M295.5,30.4 L277.6,61.1 L259.5,92.1 C264.1,94.7 268.4,97.7 272.6,100.9 L294.6,72.5 L316.3,44.4 C309.7,39.3 302.8,34.6 295.5,30.4" id="Path" fill="#5CB323" fill-rule="nonzero"></path>
            <path d="M277.7,61.1 C271.8,57.7 265.7,54.7 259.4,52 L245.5,85.1 C250.4,87.1 255,89.5 259.5,92.1 L277.7,61.1 Z" id="Path" fill="#000000" fill-rule="nonzero"></path>
            <path d="M215.4,77 L210.8,111.7 C214.5,112.2 218.1,112.9 221.6,113.9 L230.8,80.1 C225.7,78.8 220.6,77.7 215.4,77" id="Path" fill="#000000" fill-rule="nonzero"></path>
            <path d="M199.5,40.1 C192.5,40.1 185.6,40.6 178.9,41.5 L183.5,77.1 C188.7,76.4 194.1,76 199.5,76 C199.6,76 199.7,76 199.9,76 L199.9,40.1 C199.7,40.1 199.6,40.1 199.5,40.1" id="Path" fill="#000000" fill-rule="nonzero"></path>
            <path d="M55.4,136.5 L88.6,150.3 C90.6,145.5 92.9,140.8 95.5,136.3 L64.4,118.3 C61,124.1 58,130.2 55.4,136.5" id="Path" fill="#000000" fill-rule="nonzero"></path>
            <path d="M89.2,305.9 L114.6,280.5 C110.9,276.8 107.5,272.8 104.3,268.7 L75.8,290.6 C80,296 84.5,301.1 89.2,305.9" id="Path" fill="#000000" fill-rule="nonzero"></path>
            <path d="M95.5,136.2 L125.8,153.8 C127.6,150.6 129.7,147.5 131.9,144.5 L104.1,123.1 C101,127.3 98.1,131.7 95.5,136.2" id="Path" fill="#000000" fill-rule="nonzero"></path>
            <path d="M79.6,195.8 C79.6,195.9 79.6,195.9 79.6,196 L114.7,196 C114.7,195.9 114.7,195.9 114.7,195.8 C114.7,192.1 115,188.5 115.4,184.9 L80.6,180.3 C80,185.4 79.6,190.6 79.6,195.8" id="Path" fill="#000000" fill-rule="nonzero"></path>
            <path d="M55.5,255.5 L88.7,241.8 C86.7,237 85,232.1 83.7,227.1 L49,236.3 C50.8,242.9 53,249.3 55.5,255.5" id="Path" fill="#000000" fill-rule="nonzero"></path>
            <path d="M126.3,100.9 L147.7,128.7 C150.6,126.4 153.7,124.3 156.9,122.5 L139.3,92.2 C134.8,94.8 130.4,97.7 126.3,100.9" id="Path" fill="#000000" fill-rule="nonzero"></path>
            <path d="M168.7,282.7 C166.9,282.7 165.3,282.4 163.8,281.8 C162.3,281.2 161,280.3 160,279.2 C158.9,278.1 158.1,276.8 157.5,275.3 C156.9,273.8 156.6,272.2 156.6,270.4 C156.6,268.6 156.9,267 157.5,265.5 C158.1,264 158.9,262.7 160,261.6 C161.1,260.5 162.3,259.6 163.8,259 C165.3,258.4 166.9,258.1 168.7,258.1 C170.5,258.1 172.1,258.4 173.6,259 C175.1,259.6 176.4,260.5 177.4,261.6 C178.5,262.7 179.3,264 179.9,265.5 C180.5,267 180.8,268.6 180.8,270.4 C180.8,272.2 180.5,273.8 179.9,275.3 C179.3,276.8 178.5,278.1 177.4,279.2 C176.3,280.3 175.1,281.2 173.6,281.8 C172.1,282.4 170.4,282.7 168.7,282.7 M168.7,279.8 C170,279.8 171.3,279.6 172.3,279.1 C173.4,278.6 174.3,277.9 175.1,277.1 C175.9,276.3 176.5,275.3 176.9,274.1 C177.3,273 177.5,271.8 177.5,270.5 C177.5,269.2 177.3,268 176.9,266.9 C176.5,265.8 175.9,264.8 175.1,263.9 C174.3,263.1 173.4,262.4 172.3,261.9 C171.2,261.4 170,261.2 168.7,261.2 C167.4,261.2 166.1,261.4 165.1,261.9 C164,262.4 163.1,263.1 162.3,263.9 C161.5,264.7 160.9,265.7 160.5,266.9 C160.1,268 159.9,269.2 159.9,270.5 C159.9,271.8 160.1,273 160.5,274.1 C160.9,275.2 161.5,276.2 162.3,277.1 C163.1,277.9 164,278.6 165.1,279.1 C166.1,279.5 167.3,279.8 168.7,279.8" id="Shape" fill="#000000" fill-rule="nonzero"></path>
            <path d="M184.8,266.5 L187.8,266.5 L187.8,268.9 L187.9,268.9 C188.3,268.1 188.9,267.4 189.8,266.9 C190.7,266.4 191.8,266.1 193,266.1 C193.7,266.1 194.5,266.2 195.2,266.4 C195.9,266.6 196.5,267 197,267.5 C197.5,268 197.9,268.6 198.2,269.4 C198.5,270.2 198.7,271.1 198.7,272.1 L198.7,282.2 L195.7,282.2 L195.7,273 C195.7,272.3 195.6,271.7 195.4,271.1 C195.2,270.5 194.9,270.2 194.6,269.8 C194.3,269.5 193.9,269.3 193.5,269.1 C193.1,269 192.6,268.9 192.2,268.9 C191.6,268.9 191,269 190.5,269.2 C190,269.4 189.5,269.7 189.1,270.1 C188.7,270.5 188.4,271.1 188.2,271.7 C188,272.4 187.9,273.1 187.9,274 L187.9,282.1 L184.9,282.1 L184.9,266.5 L184.8,266.5 Z" id="Path" fill="#000000" fill-rule="nonzero"></path>
            <path d="M211.7,269.1 L207.4,269.1 L207.4,276.2 C207.4,276.6 207.4,277.1 207.4,277.5 C207.4,277.9 207.5,278.3 207.6,278.7 C207.7,279 208,279.3 208.3,279.5 C208.6,279.7 209,279.8 209.6,279.8 C210,279.8 210.3,279.8 210.7,279.7 C211.1,279.6 211.4,279.5 211.7,279.3 L211.7,282 C211.3,282.2 210.9,282.3 210.3,282.4 C209.7,282.5 209.3,282.5 209,282.5 C207.9,282.5 207,282.3 206.3,282 C205.7,281.7 205.2,281.3 204.9,280.8 C204.6,280.3 204.4,279.7 204.4,279.1 C204.3,278.5 204.3,277.8 204.3,277.2 L204.3,269 L201,269 L201,266.4 L204.4,266.4 L204.4,262 L207.4,262 L207.4,266.4 L211.7,266.4 L211.7,269.1 Z" id="Path" fill="#000000" fill-rule="nonzero"></path>
            <path d="M215.5,268.4 C216.3,267.6 217.3,267.1 218.4,266.7 C219.5,266.3 220.6,266.1 221.7,266.1 C222.8,266.1 223.8,266.2 224.7,266.5 C225.5,266.8 226.2,267.2 226.7,267.7 C227.2,268.2 227.6,268.7 227.9,269.4 C228.2,270 228.3,270.7 228.3,271.4 L228.3,279.4 C228.3,280 228.3,280.5 228.3,280.9 C228.3,281.4 228.4,281.8 228.4,282.2 L225.8,282.2 C225.7,281.4 225.7,280.6 225.7,279.8 L225.6,279.8 C224.9,280.8 224.2,281.5 223.3,281.9 C222.4,282.3 221.4,282.5 220.2,282.5 C219.5,282.5 218.8,282.4 218.1,282.2 C217.4,282 216.9,281.7 216.4,281.3 C215.9,280.9 215.5,280.4 215.2,279.8 C214.9,279.2 214.8,278.5 214.8,277.8 C214.8,276.8 215,275.9 215.5,275.3 C216,274.6 216.6,274.1 217.3,273.6 C218.1,273.2 219,272.9 220,272.7 C221,272.5 222.2,272.4 223.3,272.4 L225.5,272.4 L225.5,271.7 C225.5,271.3 225.4,270.9 225.3,270.5 C225.1,270.1 224.9,269.7 224.6,269.4 C224.3,269.1 223.9,268.8 223.4,268.6 C222.9,268.4 222.4,268.3 221.7,268.3 C221.1,268.3 220.6,268.4 220.2,268.5 C219.8,268.6 219.4,268.7 219,268.9 C218.6,269.1 218.3,269.3 218,269.5 C217.7,269.7 217.4,269.9 217.2,270.1 L215.5,268.4 Z M223.8,274.6 C223.1,274.6 222.4,274.6 221.6,274.7 C220.9,274.8 220.2,274.9 219.6,275.1 C219,275.3 218.5,275.6 218.1,276 C217.7,276.4 217.5,276.9 217.5,277.5 C217.5,278.4 217.8,279.1 218.4,279.4 C219,279.8 219.8,280 220.9,280 C221.7,280 222.4,279.9 223,279.6 C223.6,279.3 224,279 224.4,278.5 C224.8,278.1 225,277.6 225.2,277 C225.4,276.5 225.4,275.9 225.4,275.4 L225.4,274.4 L223.8,274.4 L223.8,274.6 Z" id="Shape" fill="#000000" fill-rule="nonzero"></path>
            <path d="M232.6,266.5 L235.6,266.5 L235.6,268.9 L235.7,268.9 C235.9,268.5 236.2,268.1 236.5,267.8 C236.8,267.5 237.2,267.2 237.6,266.9 C238,266.7 238.5,266.5 238.9,266.3 C239.4,266.2 239.9,266.1 240.4,266.1 C240.9,266.1 241.3,266.2 241.7,266.3 L241.6,269.5 C241.4,269.4 241.1,269.4 240.9,269.3 C240.7,269.3 240.4,269.2 240.2,269.2 C238.7,269.2 237.6,269.6 236.9,270.4 C236.1,271.2 235.7,272.5 235.7,274.2 L235.7,282.1 L232.7,282.1 L232.7,266.5 L232.6,266.5 Z" id="Path" fill="#000000" fill-rule="nonzero"></path>
            <path d="M244.1,260.9 C244.1,260.3 244.3,259.8 244.7,259.4 C245.1,259 245.6,258.8 246.2,258.8 C246.8,258.8 247.3,259 247.7,259.4 C248.1,259.8 248.3,260.3 248.3,260.9 C248.3,261.5 248.1,262 247.7,262.4 C247.3,262.8 246.8,263 246.2,263 C245.6,263 245.1,262.8 244.7,262.4 C244.3,262 244.1,261.5 244.1,260.9 M244.8,266.5 L247.8,266.5 L247.8,282.1 L244.8,282.1 L244.8,266.5 Z" id="Shape" fill="#000000" fill-rule="nonzero"></path>
            <path d="M251.4,274.3 C251.4,273.2 251.6,272.1 252,271.1 C252.4,270.1 253,269.2 253.8,268.5 C254.5,267.8 255.4,267.2 256.4,266.7 C257.4,266.3 258.5,266.1 259.7,266.1 C260.9,266.1 262,266.3 263,266.7 C264,267.1 264.9,267.7 265.6,268.5 C266.3,269.2 266.9,270.1 267.4,271.1 C267.8,272.1 268,273.2 268,274.3 C268,275.4 267.8,276.5 267.4,277.5 C267,278.5 266.4,279.4 265.6,280.1 C264.9,280.8 264,281.4 263,281.8 C262,282.2 260.9,282.4 259.7,282.4 C258.5,282.4 257.4,282.2 256.4,281.8 C255.4,281.4 254.5,280.8 253.8,280.1 C253.1,279.4 252.5,278.5 252,277.5 C251.6,276.5 251.4,275.5 251.4,274.3 M254.6,274.3 C254.6,275.1 254.7,275.8 255,276.5 C255.2,277.2 255.6,277.7 256,278.2 C256.4,278.7 257,279 257.6,279.3 C258.2,279.6 259,279.7 259.7,279.7 C260.4,279.7 261.2,279.6 261.8,279.3 C262.4,279 263,278.7 263.4,278.2 C263.8,277.7 264.2,277.2 264.4,276.5 C264.6,275.8 264.8,275.1 264.8,274.3 C264.8,273.5 264.7,272.8 264.4,272.1 C264.2,271.4 263.8,270.9 263.4,270.4 C263,269.9 262.4,269.6 261.8,269.3 C261.2,269 260.4,268.9 259.7,268.9 C259,268.9 258.2,269 257.6,269.3 C257,269.6 256.4,270 256,270.4 C255.6,270.9 255.2,271.4 255,272.1 C254.7,272.8 254.6,273.5 254.6,274.3" id="Shape" fill="#000000" fill-rule="nonzero"></path>
            <rect id="Rectangle" fill="#000000" fill-rule="nonzero" x="282.1" y="258.8" width="3.2" height="23.4"></rect>
            <path d="M290.4,266.5 L293.4,266.5 L293.4,268.9 L293.5,268.9 C293.9,268.1 294.5,267.4 295.4,266.9 C296.3,266.4 297.4,266.1 298.6,266.1 C299.3,266.1 300.1,266.2 300.8,266.4 C301.5,266.6 302.1,267 302.6,267.5 C303.1,268 303.5,268.6 303.8,269.4 C304.1,270.2 304.3,271.1 304.3,272.1 L304.3,282.2 L301.3,282.2 L301.3,273 C301.3,272.3 301.2,271.7 301,271.1 C300.8,270.5 300.5,270.2 300.2,269.8 C299.9,269.5 299.5,269.3 299.1,269.1 C298.7,269 298.2,268.9 297.8,268.9 C297.2,268.9 296.6,269 296.1,269.2 C295.6,269.4 295.1,269.7 294.7,270.1 C294.3,270.5 294,271.1 293.8,271.7 C293.6,272.4 293.5,273.1 293.5,274 L293.5,282.1 L290.5,282.1 L290.5,266.5 L290.4,266.5 Z" id="Path" fill="#000000" fill-rule="nonzero"></path>
            <path d="M317,270.4 C316.6,270 316.2,269.6 315.7,269.3 C315.2,269 314.5,268.9 313.8,268.9 C313.1,268.9 312.5,269 312,269.3 C311.5,269.6 311.2,270 311.2,270.6 C311.2,271.1 311.3,271.4 311.6,271.7 C311.9,272 312.2,272.2 312.7,272.4 C313.1,272.6 313.5,272.7 314,272.8 C314.5,272.9 314.9,273 315.2,273 C315.8,273.2 316.4,273.3 317,273.6 C317.6,273.8 318,274.1 318.5,274.5 C318.9,274.9 319.2,275.3 319.5,275.8 C319.7,276.3 319.8,276.9 319.8,277.6 C319.8,278.5 319.6,279.2 319.2,279.9 C318.8,280.5 318.3,281 317.7,281.4 C317.1,281.8 316.4,282.1 315.7,282.3 C314.9,282.5 314.2,282.6 313.4,282.6 C312.1,282.6 311,282.4 310,282 C309,281.6 308.1,280.9 307.4,279.8 L309.6,278 C310.1,278.5 310.6,278.9 311.2,279.3 C311.8,279.7 312.5,279.9 313.4,279.9 C313.8,279.9 314.2,279.9 314.5,279.8 C314.9,279.7 315.2,279.6 315.5,279.4 C315.8,279.2 316,279 316.2,278.8 C316.4,278.5 316.5,278.3 316.5,277.9 C316.5,277.5 316.4,277.1 316.1,276.8 C315.8,276.5 315.5,276.3 315.1,276.1 C314.7,275.9 314.3,275.8 313.9,275.7 C313.5,275.6 313.1,275.5 312.8,275.5 C312.2,275.3 311.6,275.2 311,275 C310.4,274.8 309.9,274.5 309.5,274.2 C309.1,273.9 308.7,273.5 308.4,272.9 C308.1,272.4 308,271.8 308,271 C308,270.2 308.2,269.5 308.5,268.9 C308.8,268.3 309.3,267.8 309.9,267.4 C310.5,267 311.1,266.7 311.8,266.5 C312.5,266.3 313.2,266.2 314,266.2 C315.1,266.2 316.1,266.4 317,266.8 C318,267.2 318.7,267.9 319.3,268.8 L317,270.4 Z" id="Path" fill="#000000" fill-rule="nonzero"></path>
            <path d="M332.3,269.1 L328,269.1 L328,276.2 C328,276.6 328,277.1 328,277.5 C328,277.9 328.1,278.3 328.2,278.7 C328.3,279 328.6,279.3 328.9,279.5 C329.2,279.7 329.6,279.8 330.2,279.8 C330.6,279.8 330.9,279.8 331.3,279.7 C331.7,279.6 332,279.5 332.3,279.3 L332.3,282 C331.9,282.2 331.5,282.3 330.9,282.4 C330.3,282.5 329.9,282.5 329.6,282.5 C328.5,282.5 327.6,282.3 326.9,282 C326.3,281.7 325.8,281.3 325.5,280.8 C325.2,280.3 325,279.7 325,279.1 C324.9,278.5 324.9,277.8 324.9,277.2 L324.9,269 L321.5,269 L321.5,266.4 L324.9,266.4 L324.9,262 L327.9,262 L327.9,266.4 L332.2,266.4 L332.2,269.1 L332.3,269.1 Z" id="Path" fill="#000000" fill-rule="nonzero"></path>
            <path d="M335,260.9 C335,260.3 335.2,259.8 335.6,259.4 C336,259 336.5,258.8 337.1,258.8 C337.7,258.8 338.2,259 338.6,259.4 C339,259.8 339.2,260.3 339.2,260.9 C339.2,261.5 339,262 338.6,262.4 C338.2,262.8 337.7,263 337.1,263 C336.5,263 336,262.8 335.6,262.4 C335.3,262 335,261.5 335,260.9 M335.7,266.5 L338.7,266.5 L338.7,282.1 L335.7,282.1 L335.7,266.5 Z" id="Shape" fill="#000000" fill-rule="nonzero"></path>
            <path d="M352,269.1 L347.7,269.1 L347.7,276.2 C347.7,276.6 347.7,277.1 347.7,277.5 C347.7,277.9 347.8,278.3 347.9,278.7 C348,279 348.3,279.3 348.6,279.5 C348.9,279.7 349.3,279.8 349.9,279.8 C350.3,279.8 350.6,279.8 351,279.7 C351.4,279.6 351.7,279.5 352,279.3 L352,282 C351.6,282.2 351.2,282.3 350.6,282.4 C350,282.5 349.6,282.5 349.3,282.5 C348.2,282.5 347.3,282.3 346.6,282 C346,281.7 345.5,281.3 345.2,280.8 C344.9,280.3 344.7,279.7 344.7,279.1 C344.6,278.5 344.6,277.8 344.6,277.2 L344.6,269 L341.2,269 L341.2,266.4 L344.6,266.4 L344.6,262 L347.6,262 L347.6,266.4 L351.9,266.4 L351.9,269.1 L352,269.1 Z" id="Path" fill="#000000" fill-rule="nonzero"></path>
            <path d="M369.2,282.2 L366.2,282.2 L366.2,279.8 L366.1,279.8 C365.7,280.6 365.1,281.3 364.2,281.8 C363.3,282.3 362.2,282.6 361,282.6 C360.2,282.6 359.5,282.5 358.8,282.3 C358.1,282.1 357.5,281.7 357,281.2 C356.5,280.7 356.1,280.1 355.8,279.3 C355.5,278.5 355.3,277.6 355.3,276.6 L355.3,266.5 L358.3,266.5 L358.3,275.7 C358.3,276.4 358.4,277 358.6,277.6 C358.8,278.1 359.1,278.5 359.4,278.9 C359.7,279.2 360.1,279.5 360.5,279.6 C360.9,279.7 361.4,279.8 361.8,279.8 C362.4,279.8 363,279.7 363.5,279.5 C364,279.3 364.5,279 364.9,278.6 C365.3,278.2 365.6,277.6 365.8,277 C366,276.3 366.1,275.6 366.1,274.7 L366.1,266.6 L369.1,266.6 L369.1,282.2 L369.2,282.2 Z" id="Path" fill="#000000" fill-rule="nonzero"></path>
            <path d="M382.3,269.1 L378,269.1 L378,276.2 C378,276.6 378,277.1 378,277.5 C378,277.9 378.1,278.3 378.2,278.7 C378.3,279 378.6,279.3 378.9,279.5 C379.2,279.7 379.6,279.8 380.2,279.8 C380.6,279.8 380.9,279.8 381.3,279.7 C381.7,279.6 382,279.5 382.3,279.3 L382.3,282 C381.9,282.2 381.5,282.3 380.9,282.4 C380.3,282.5 379.9,282.5 379.6,282.5 C378.5,282.5 377.6,282.3 376.9,282 C376.3,281.7 375.8,281.3 375.5,280.8 C375.2,280.3 375,279.7 375,279.1 C374.9,278.5 374.9,277.8 374.9,277.2 L374.9,269 L371.5,269 L371.5,266.4 L374.9,266.4 L374.9,262 L377.9,262 L377.9,266.4 L382.2,266.4 L382.2,269.1 L382.3,269.1 Z" id="Path" fill="#000000" fill-rule="nonzero"></path>
            <path d="M387.8,275.4 C387.8,276.1 387.9,276.7 388.2,277.3 C388.5,277.9 388.9,278.3 389.4,278.7 C389.9,279.1 390.4,279.4 391.1,279.6 C391.7,279.8 392.4,279.9 393.1,279.9 C394,279.9 394.8,279.7 395.5,279.3 C396.2,278.9 396.8,278.3 397.4,277.6 L399.6,279.3 C397.9,281.4 395.6,282.5 392.7,282.5 C391.5,282.5 390.4,282.3 389.4,281.9 C388.4,281.5 387.6,280.9 386.9,280.2 C386.2,279.5 385.7,278.6 385.3,277.6 C384.9,276.6 384.7,275.5 384.7,274.4 C384.7,273.2 384.9,272.2 385.3,271.1 C385.7,270.1 386.3,269.2 387,268.5 C387.7,267.8 388.6,267.2 389.6,266.8 C390.6,266.4 391.7,266.2 392.8,266.2 C394.2,266.2 395.4,266.4 396.3,266.9 C397.3,267.4 398,268 398.7,268.8 C399.3,269.6 399.8,270.5 400,271.4 C400.3,272.4 400.4,273.4 400.4,274.4 L400.4,275.5 L387.8,275.5 L387.8,275.4 Z M397.2,273 C397.2,272.3 397.1,271.7 396.9,271.2 C396.7,270.7 396.4,270.2 396.1,269.8 C395.7,269.4 395.3,269.1 394.7,268.8 C394.1,268.6 393.5,268.5 392.7,268.5 C392,268.5 391.3,268.6 390.7,268.9 C390.1,269.2 389.6,269.5 389.2,270 C388.8,270.4 388.5,270.9 388.2,271.5 C388,272 387.9,272.6 387.9,273.1 L397.2,273.1 L397.2,273 Z" id="Shape" fill="#000000" fill-rule="nonzero"></path>
            <path d="M162.4,304.9 L159,304.9 L159,302.3 L162.4,302.3 L162.4,298.8 C162.4,296.7 162.8,295.2 163.6,294.1 C164.4,293 165.8,292.6 167.7,292.6 C168,292.6 168.4,292.6 168.7,292.6 C169.1,292.6 169.5,292.7 169.9,292.8 L169.6,295.4 C169.3,295.3 169,295.2 168.8,295.2 C168.5,295.2 168.3,295.1 167.9,295.1 C167.3,295.1 166.9,295.2 166.6,295.3 C166.3,295.5 166,295.7 165.8,296 C165.6,296.3 165.5,296.7 165.4,297.1 C165.3,297.5 165.3,298 165.3,298.6 L165.3,302.2 L168.8,302.2 L168.8,304.8 L165.2,304.8 L165.2,317.9 L162.2,317.9 L162.2,304.9 L162.4,304.9 Z" id="Path" fill="#000000" fill-rule="nonzero"></path>
            <path d="M170.9,310.1 C170.9,309 171.1,307.9 171.5,306.9 C171.9,305.9 172.5,305 173.3,304.3 C174,303.6 174.9,303 175.9,302.5 C176.9,302.1 178,301.9 179.2,301.9 C180.4,301.9 181.5,302.1 182.5,302.5 C183.5,302.9 184.4,303.5 185.1,304.3 C185.8,305 186.4,305.9 186.9,306.9 C187.3,307.9 187.5,309 187.5,310.1 C187.5,311.2 187.3,312.3 186.9,313.3 C186.5,314.3 185.9,315.2 185.1,315.9 C184.4,316.6 183.5,317.2 182.5,317.6 C181.5,318 180.4,318.2 179.2,318.2 C178,318.2 176.9,318 175.9,317.6 C174.9,317.2 174,316.6 173.3,315.9 C172.6,315.2 172,314.3 171.5,313.3 C171.1,312.3 170.9,311.3 170.9,310.1 M174,310.1 C174,310.9 174.1,311.6 174.4,312.3 C174.6,313 175,313.5 175.4,314 C175.8,314.5 176.4,314.8 177,315.1 C177.6,315.4 178.4,315.5 179.1,315.5 C179.9,315.5 180.6,315.4 181.2,315.1 C181.8,314.8 182.4,314.5 182.8,314 C183.2,313.5 183.6,313 183.8,312.3 C184,311.6 184.2,310.9 184.2,310.1 C184.2,309.3 184.1,308.6 183.8,307.9 C183.6,307.2 183.2,306.7 182.8,306.2 C182.4,305.7 181.8,305.4 181.2,305.1 C180.6,304.8 179.8,304.7 179.1,304.7 C178.3,304.7 177.6,304.8 177,305.1 C176.4,305.4 175.8,305.7 175.4,306.2 C175,306.7 174.6,307.2 174.4,307.9 C174.1,308.6 174,309.3 174,310.1" id="Shape" fill="#000000" fill-rule="nonzero"></path>
            <path d="M191.2,302.3 L194.2,302.3 L194.2,304.7 L194.3,304.7 C194.5,304.3 194.8,303.9 195.1,303.6 C195.4,303.3 195.8,303 196.2,302.7 C196.6,302.5 197.1,302.3 197.5,302.1 C198,302 198.5,301.9 199,301.9 C199.5,301.9 199.9,302 200.3,302.1 L200.2,305.3 C200,305.2 199.7,305.2 199.5,305.1 C199.3,305.1 199,305 198.8,305 C197.3,305 196.2,305.4 195.5,306.2 C194.7,307 194.3,308.3 194.3,310 L194.3,317.9 L191.3,317.9 L191.3,302.3 L191.2,302.3 Z" id="Path" fill="#000000" fill-rule="nonzero"></path>
            <path d="M229.9,299.6 C229.2,298.7 228.4,298.1 227.4,297.6 C226.4,297.1 225.3,296.9 224.3,296.9 C223,296.9 221.8,297.1 220.7,297.6 C219.6,298.1 218.7,298.8 218,299.6 C217.2,300.5 216.7,301.5 216.2,302.6 C215.8,303.8 215.6,305 215.6,306.3 C215.6,307.5 215.8,308.7 216.2,309.8 C216.6,310.9 217.2,311.9 217.9,312.7 C218.6,313.5 219.6,314.2 220.6,314.7 C221.7,315.2 222.9,315.4 224.3,315.4 C225.6,315.4 226.8,315.1 227.8,314.6 C228.8,314 229.7,313.3 230.4,312.3 L233.1,314.3 C232.9,314.5 232.6,314.9 232.2,315.3 C231.8,315.8 231.2,316.2 230.5,316.7 C229.8,317.2 228.9,317.5 227.9,317.9 C226.9,318.2 225.7,318.4 224.4,318.4 C222.6,318.4 220.9,318 219.4,317.3 C217.9,316.6 216.6,315.7 215.6,314.5 C214.6,313.4 213.8,312.1 213.2,310.6 C212.6,309.2 212.4,307.7 212.4,306.2 C212.4,304.4 212.7,302.7 213.3,301.2 C213.9,299.7 214.7,298.4 215.8,297.2 C216.9,296.1 218.1,295.2 219.6,294.6 C221.1,294 222.7,293.7 224.5,293.7 C226,293.7 227.6,294 229,294.6 C230.5,295.2 231.7,296.1 232.6,297.3 L229.9,299.6 Z" id="Path" fill="#000000" fill-rule="nonzero"></path>
            <path d="M236.5,304.2 C237.3,303.4 238.3,302.9 239.4,302.5 C240.5,302.1 241.6,301.9 242.7,301.9 C243.8,301.9 244.8,302 245.7,302.3 C246.5,302.6 247.2,303 247.7,303.5 C248.2,304 248.6,304.5 248.9,305.2 C249.2,305.8 249.3,306.5 249.3,307.2 L249.3,315.2 C249.3,315.8 249.3,316.3 249.3,316.7 C249.3,317.2 249.4,317.6 249.4,318 L246.8,318 C246.7,317.2 246.7,316.4 246.7,315.6 L246.6,315.6 C245.9,316.6 245.2,317.3 244.3,317.7 C243.4,318.1 242.4,318.3 241.2,318.3 C240.5,318.3 239.8,318.2 239.1,318 C238.4,317.8 237.9,317.5 237.4,317.1 C236.9,316.7 236.5,316.2 236.2,315.6 C235.9,315 235.8,314.3 235.8,313.6 C235.8,312.6 236,311.7 236.5,311.1 C237,310.4 237.6,309.9 238.3,309.4 C239.1,309 240,308.7 241,308.5 C242,308.3 243.2,308.2 244.3,308.2 L246.5,308.2 L246.5,307.5 C246.5,307.1 246.4,306.7 246.3,306.3 C246.1,305.9 245.9,305.5 245.6,305.2 C245.3,304.9 244.9,304.6 244.4,304.4 C243.9,304.2 243.4,304.1 242.7,304.1 C242.1,304.1 241.6,304.2 241.2,304.3 C240.8,304.4 240.4,304.5 240,304.7 C239.6,304.9 239.3,305.1 239,305.3 C238.7,305.5 238.4,305.7 238.2,305.9 L236.5,304.2 Z M244.9,310.4 C244.2,310.4 243.5,310.4 242.7,310.5 C242,310.6 241.3,310.7 240.7,310.9 C240.1,311.1 239.6,311.4 239.2,311.8 C238.8,312.2 238.6,312.7 238.6,313.3 C238.6,314.2 238.9,314.9 239.5,315.2 C240.1,315.6 240.9,315.8 242,315.8 C242.8,315.8 243.5,315.7 244.1,315.4 C244.7,315.1 245.1,314.8 245.5,314.3 C245.9,313.9 246.1,313.4 246.3,312.8 C246.5,312.3 246.5,311.7 246.5,311.2 L246.5,310.2 L244.9,310.2 L244.9,310.4 Z" id="Shape" fill="#000000" fill-rule="nonzero"></path>
            <path d="M253.6,302.3 L256.6,302.3 L256.6,304.7 L256.7,304.7 C257.1,303.9 257.7,303.2 258.6,302.7 C259.5,302.2 260.6,301.9 261.8,301.9 C262.5,301.9 263.3,302 264,302.2 C264.7,302.4 265.3,302.8 265.8,303.3 C266.3,303.8 266.7,304.4 267,305.2 C267.3,306 267.5,306.9 267.5,307.9 L267.5,318 L264.5,318 L264.5,308.8 C264.5,308.1 264.4,307.5 264.2,306.9 C264,306.3 263.7,306 263.4,305.6 C263.1,305.3 262.7,305.1 262.3,304.9 C261.9,304.8 261.4,304.7 261,304.7 C260.4,304.7 259.8,304.8 259.3,305 C258.8,305.2 258.3,305.5 257.9,305.9 C257.5,306.3 257.2,306.9 257,307.5 C256.8,308.2 256.7,308.9 256.7,309.8 L256.7,317.9 L253.7,317.9 L253.7,302.3 L253.6,302.3 Z" id="Path" fill="#000000" fill-rule="nonzero"></path>
            <path d="M283.1,306.5 C282.6,305.9 282,305.5 281.4,305.2 C280.8,304.9 280.1,304.8 279.2,304.8 C278.4,304.8 277.7,304.9 277.1,305.2 C276.5,305.5 276,305.9 275.6,306.4 C275.2,306.9 274.9,307.5 274.7,308.2 C274.5,308.9 274.4,309.6 274.4,310.3 C274.4,311 274.5,311.7 274.8,312.4 C275,313.1 275.4,313.6 275.8,314.1 C276.2,314.6 276.8,315 277.4,315.2 C278,315.5 278.7,315.6 279.5,315.6 C280.3,315.6 281.1,315.5 281.6,315.2 C282.2,314.9 282.7,314.5 283.2,313.9 L285.3,316 C284.5,316.9 283.6,317.5 282.6,317.8 C281.6,318.2 280.5,318.4 279.3,318.4 C278.1,318.4 277,318.2 276,317.8 C275,317.4 274.1,316.8 273.4,316.1 C272.7,315.4 272.1,314.5 271.7,313.5 C271.3,312.5 271.1,311.4 271.1,310.2 C271.1,309 271.3,307.9 271.7,306.9 C272.1,305.9 272.7,305 273.4,304.3 C274.1,303.6 275,303 276,302.6 C277,302.2 278.1,302 279.4,302 C280.5,302 281.6,302.2 282.7,302.6 C283.7,303 284.7,303.6 285.4,304.5 L283.1,306.5 Z" id="Path" fill="#000000" fill-rule="nonzero"></path>
            <path d="M290,311.2 C290,311.9 290.1,312.5 290.4,313.1 C290.7,313.7 291.1,314.1 291.6,314.5 C292.1,314.9 292.6,315.2 293.3,315.4 C293.9,315.6 294.6,315.7 295.3,315.7 C296.2,315.7 297,315.5 297.7,315.1 C298.4,314.7 299,314.1 299.6,313.4 L301.8,315.1 C300.1,317.2 297.8,318.3 294.9,318.3 C293.7,318.3 292.6,318.1 291.6,317.7 C290.6,317.3 289.8,316.7 289.1,316 C288.4,315.3 287.9,314.4 287.5,313.4 C287.1,312.4 286.9,311.3 286.9,310.2 C286.9,309.1 287.1,308 287.5,306.9 C287.9,305.9 288.5,305 289.2,304.3 C289.9,303.6 290.8,303 291.8,302.6 C292.8,302.2 293.9,302 295,302 C296.4,302 297.6,302.2 298.5,302.7 C299.5,303.2 300.2,303.8 300.9,304.6 C301.5,305.4 302,306.3 302.2,307.2 C302.4,308.1 302.6,309.2 302.6,310.2 L302.6,311.3 L290,311.3 L290,311.2 Z M299.4,308.8 C299.4,308.1 299.3,307.5 299.1,307 C298.9,306.5 298.6,306 298.3,305.6 C297.9,305.2 297.5,304.9 296.9,304.6 C296.3,304.4 295.7,304.3 294.9,304.3 C294.2,304.3 293.5,304.4 292.9,304.7 C292.3,305 291.8,305.3 291.4,305.8 C291,306.2 290.7,306.7 290.4,307.3 C290.2,307.8 290.1,308.4 290.1,308.9 L299.4,308.9 L299.4,308.8 Z" id="Shape" fill="#000000" fill-rule="nonzero"></path>
            <path d="M306.2,302.3 L309.2,302.3 L309.2,304.7 L309.3,304.7 C309.5,304.3 309.8,303.9 310.1,303.6 C310.4,303.3 310.8,303 311.2,302.7 C311.6,302.5 312.1,302.3 312.5,302.1 C313,302 313.5,301.9 314,301.9 C314.5,301.9 314.9,302 315.3,302.1 L315.2,305.3 C315,305.2 314.7,305.2 314.5,305.1 C314.3,305.1 314,305 313.8,305 C312.3,305 311.2,305.4 310.5,306.2 C309.7,307 309.3,308.3 309.3,310 L309.3,317.9 L306.3,317.9 L306.3,302.3 L306.2,302.3 Z" id="Path" fill="#000000" fill-rule="nonzero"></path>
            <path d="M328.7,294.6 L336.9,294.6 C338.4,294.6 339.6,294.8 340.6,295.2 C341.6,295.6 342.3,296.1 342.9,296.8 C343.5,297.4 343.9,298.1 344.1,298.9 C344.3,299.7 344.4,300.4 344.4,301.2 C344.4,301.9 344.3,302.7 344,303.4 C343.7,304.1 343.4,304.7 342.9,305.3 C342.4,305.9 341.8,306.3 341.1,306.7 C340.4,307.1 339.6,307.3 338.7,307.4 L345.3,318.1 L341.3,318.1 L335.4,307.8 L331.9,307.8 L331.9,318.1 L328.7,318.1 L328.7,294.6 L328.7,294.6 Z M331.8,304.9 L336,304.9 C336.6,304.9 337.2,304.9 337.8,304.8 C338.4,304.7 338.9,304.5 339.4,304.3 C339.9,304 340.3,303.7 340.5,303.2 C340.8,302.7 340.9,302.1 340.9,301.3 C340.9,300.5 340.8,299.9 340.5,299.4 C340.2,298.9 339.8,298.5 339.4,298.3 C338.9,298 338.4,297.9 337.8,297.8 C337.2,297.7 336.6,297.7 336,297.7 L331.8,297.7 L331.8,304.9 Z" id="Shape" fill="#000000" fill-rule="nonzero"></path>
            <path d="M350,311.2 C350,311.9 350.1,312.5 350.4,313.1 C350.7,313.7 351.1,314.1 351.6,314.5 C352.1,314.9 352.6,315.2 353.3,315.4 C353.9,315.6 354.6,315.7 355.3,315.7 C356.2,315.7 357,315.5 357.7,315.1 C358.4,314.7 359,314.1 359.6,313.4 L361.8,315.1 C360.1,317.2 357.8,318.3 354.9,318.3 C353.7,318.3 352.6,318.1 351.6,317.7 C350.6,317.3 349.8,316.7 349.1,316 C348.4,315.3 347.9,314.4 347.5,313.4 C347.1,312.4 346.9,311.3 346.9,310.2 C346.9,309.1 347.1,308 347.5,306.9 C347.9,305.9 348.5,305 349.2,304.3 C349.9,303.6 350.8,303 351.8,302.6 C352.8,302.2 353.9,302 355,302 C356.4,302 357.6,302.2 358.5,302.7 C359.5,303.2 360.2,303.8 360.9,304.6 C361.5,305.4 362,306.3 362.2,307.2 C362.5,308.2 362.6,309.2 362.6,310.2 L362.6,311.3 L350,311.3 L350,311.2 Z M359.4,308.8 C359.4,308.1 359.3,307.5 359.1,307 C358.9,306.5 358.6,306 358.3,305.6 C357.9,305.2 357.5,304.9 356.9,304.6 C356.3,304.4 355.7,304.3 354.9,304.3 C354.2,304.3 353.5,304.4 352.9,304.7 C352.3,305 351.8,305.3 351.4,305.8 C351,306.2 350.7,306.7 350.4,307.3 C350.2,307.8 350.1,308.4 350.1,308.9 L359.4,308.9 L359.4,308.8 Z" id="Shape" fill="#000000" fill-rule="nonzero"></path>
            <path d="M374.4,306.2 C374,305.8 373.6,305.4 373.1,305.1 C372.6,304.8 371.9,304.7 371.2,304.7 C370.5,304.7 369.9,304.8 369.4,305.1 C368.9,305.4 368.6,305.8 368.6,306.4 C368.6,306.9 368.7,307.2 369,307.5 C369.3,307.8 369.7,308 370.1,308.2 C370.5,308.4 370.9,308.5 371.4,308.6 C371.9,308.7 372.3,308.8 372.6,308.8 C373.2,309 373.8,309.1 374.4,309.4 C375,309.6 375.4,309.9 375.9,310.3 C376.3,310.7 376.6,311.1 376.9,311.6 C377.1,312.1 377.2,312.7 377.2,313.4 C377.2,314.3 377,315 376.6,315.7 C376.2,316.3 375.7,316.8 375.1,317.2 C374.5,317.6 373.8,317.9 373.1,318.1 C372.3,318.3 371.6,318.4 370.8,318.4 C369.5,318.4 368.4,318.2 367.4,317.8 C366.4,317.4 365.5,316.7 364.8,315.6 L367,313.8 C367.5,314.3 368,314.7 368.6,315.1 C369.2,315.5 369.9,315.7 370.8,315.7 C371.2,315.7 371.6,315.7 371.9,315.6 C372.3,315.5 372.6,315.4 372.9,315.2 C373.2,315 373.4,314.8 373.6,314.6 C373.8,314.3 373.9,314.1 373.9,313.7 C373.9,313.3 373.8,312.9 373.5,312.6 C373.2,312.3 372.9,312.1 372.5,311.9 C372.1,311.7 371.7,311.6 371.3,311.5 C370.9,311.4 370.5,311.3 370.2,311.3 C369.6,311.1 369,311 368.4,310.8 C367.8,310.6 367.3,310.3 366.9,310 C366.5,309.7 366.1,309.3 365.8,308.7 C365.5,308.2 365.4,307.6 365.4,306.8 C365.4,306 365.6,305.3 365.9,304.7 C366.2,304.1 366.7,303.6 367.3,303.2 C367.9,302.8 368.5,302.5 369.2,302.3 C369.9,302.1 370.6,302 371.4,302 C372.5,302 373.5,302.2 374.4,302.6 C375.4,303 376.1,303.7 376.7,304.6 L374.4,306.2 Z" id="Path" fill="#000000" fill-rule="nonzero"></path>
            <path d="M382.9,311.2 C382.9,311.9 383,312.5 383.3,313.1 C383.6,313.7 384,314.1 384.5,314.5 C385,314.9 385.5,315.2 386.2,315.4 C386.8,315.6 387.5,315.7 388.2,315.7 C389.1,315.7 389.9,315.5 390.6,315.1 C391.3,314.7 391.9,314.1 392.5,313.4 L394.7,315.1 C393,317.2 390.7,318.3 387.8,318.3 C386.6,318.3 385.5,318.1 384.5,317.7 C383.5,317.3 382.7,316.7 382,316 C381.3,315.3 380.8,314.4 380.4,313.4 C380,312.4 379.8,311.3 379.8,310.2 C379.8,309.1 380,308 380.4,306.9 C380.8,305.9 381.4,305 382.1,304.3 C382.8,303.6 383.7,303 384.7,302.6 C385.7,302.2 386.8,302 387.9,302 C389.3,302 390.5,302.2 391.4,302.7 C392.4,303.2 393.1,303.8 393.8,304.6 C394.4,305.4 394.9,306.3 395.1,307.2 C395.3,308.1 395.5,309.2 395.5,310.2 L395.5,311.3 L382.9,311.3 L382.9,311.2 Z M392.3,308.8 C392.3,308.1 392.2,307.5 392,307 C391.8,306.5 391.5,306 391.2,305.6 C390.8,305.2 390.4,304.9 389.8,304.6 C389.2,304.4 388.6,304.3 387.8,304.3 C387.1,304.3 386.4,304.4 385.8,304.7 C385.2,305 384.7,305.3 384.3,305.8 C383.9,306.2 383.6,306.7 383.3,307.3 C383.1,307.8 383,308.4 383,308.9 L392.3,308.9 L392.3,308.8 Z" id="Shape" fill="#000000" fill-rule="nonzero"></path>
            <path d="M398.9,304.2 C399.7,303.4 400.7,302.9 401.8,302.5 C402.9,302.1 404,301.9 405.1,301.9 C406.2,301.9 407.2,302 408.1,302.3 C408.9,302.6 409.6,303 410.1,303.5 C410.6,304 411,304.5 411.3,305.2 C411.6,305.8 411.7,306.5 411.7,307.2 L411.7,315.2 C411.7,315.8 411.7,316.3 411.7,316.7 C411.7,317.2 411.8,317.6 411.8,318 L409.2,318 C409.1,317.2 409.1,316.4 409.1,315.6 L409,315.6 C408.3,316.6 407.6,317.3 406.7,317.7 C405.8,318.1 404.8,318.3 403.6,318.3 C402.9,318.3 402.2,318.2 401.5,318 C400.8,317.8 400.3,317.5 399.8,317.1 C399.3,316.7 398.9,316.2 398.6,315.6 C398.3,315 398.2,314.3 398.2,313.6 C398.2,312.6 398.4,311.7 398.9,311.1 C399.4,310.4 400,309.9 400.7,309.4 C401.5,309 402.4,308.7 403.4,308.5 C404.4,308.3 405.6,308.2 406.7,308.2 L408.9,308.2 L408.9,307.5 C408.9,307.1 408.8,306.7 408.7,306.3 C408.5,305.9 408.3,305.5 408,305.2 C407.7,304.9 407.3,304.6 406.8,304.4 C406.3,304.2 405.8,304.1 405.1,304.1 C404.5,304.1 404,304.2 403.6,304.3 C403.2,304.4 402.8,304.5 402.4,304.7 C402,304.9 401.7,305.1 401.4,305.3 C401.1,305.5 400.8,305.7 400.6,305.9 L398.9,304.2 Z M407.3,310.4 C406.6,310.4 405.9,310.4 405.1,310.5 C404.4,310.6 403.7,310.7 403.1,310.9 C402.5,311.1 402,311.4 401.6,311.8 C401.2,312.2 401,312.7 401,313.3 C401,314.2 401.3,314.9 401.9,315.2 C402.5,315.6 403.3,315.8 404.4,315.8 C405.2,315.8 405.9,315.7 406.5,315.4 C407.1,315.1 407.5,314.8 407.9,314.3 C408.3,313.9 408.5,313.4 408.7,312.8 C408.9,312.3 408.9,311.7 408.9,311.2 L408.9,310.2 L407.3,310.2 L407.3,310.4 Z" id="Shape" fill="#000000" fill-rule="nonzero"></path>
            <path d="M416.6,302.3 L419.6,302.3 L419.6,304.7 L419.7,304.7 C419.9,304.3 420.2,303.9 420.5,303.6 C420.8,303.3 421.2,303 421.6,302.7 C422,302.5 422.5,302.3 422.9,302.1 C423.4,302 423.9,301.9 424.4,301.9 C424.9,301.9 425.3,302 425.7,302.1 L425.6,305.3 C425.4,305.2 425.1,305.2 424.9,305.1 C424.7,305.1 424.4,305 424.2,305 C422.7,305 421.6,305.4 420.9,306.2 C420.1,307 419.7,308.3 419.7,310 L419.7,317.9 L416.7,317.9 L416.7,302.3 L416.6,302.3 Z" id="Path" fill="#000000" fill-rule="nonzero"></path>
            <path d="M439,306.5 C438.5,305.9 437.9,305.5 437.3,305.2 C436.7,304.9 436,304.8 435.1,304.8 C434.3,304.8 433.6,304.9 433,305.2 C432.4,305.5 431.9,305.9 431.5,306.4 C431.1,306.9 430.8,307.5 430.6,308.2 C430.4,308.9 430.3,309.6 430.3,310.3 C430.3,311 430.4,311.7 430.7,312.4 C430.9,313.1 431.3,313.6 431.7,314.1 C432.1,314.6 432.7,315 433.3,315.2 C433.9,315.5 434.6,315.6 435.4,315.6 C436.2,315.6 437,315.5 437.5,315.2 C438.1,314.9 438.6,314.5 439.2,313.9 L441.3,316 C440.5,316.9 439.6,317.5 438.6,317.8 C437.6,318.2 436.5,318.4 435.3,318.4 C434.1,318.4 433,318.2 432,317.8 C431,317.4 430.1,316.8 429.4,316.1 C428.7,315.4 428.1,314.5 427.7,313.5 C427.3,312.5 427.1,311.4 427.1,310.2 C427.1,309 427.3,307.9 427.7,306.9 C428.1,305.9 428.7,305 429.4,304.3 C430.1,303.6 431,303 432,302.6 C433,302.2 434.1,302 435.4,302 C436.5,302 437.6,302.2 438.7,302.6 C439.7,303 440.7,303.6 441.4,304.5 L439,306.5 Z" id="Path" fill="#000000" fill-rule="nonzero"></path>
            <path d="M444,293 L447,293 L447,304.7 L447.1,304.7 C447.5,303.9 448.1,303.2 449,302.7 C449.9,302.2 451,301.9 452.2,301.9 C452.9,301.9 453.7,302 454.4,302.2 C455.1,302.4 455.7,302.8 456.2,303.3 C456.7,303.8 457.1,304.4 457.4,305.2 C457.7,306 457.9,306.9 457.9,307.9 L457.9,318 L454.9,318 L454.9,308.8 C454.9,308.1 454.8,307.5 454.6,306.9 C454.4,306.4 454.1,306 453.8,305.6 C453.5,305.3 453.1,305.1 452.7,304.9 C452.3,304.8 451.8,304.7 451.4,304.7 C450.8,304.7 450.2,304.8 449.7,305 C449.2,305.2 448.7,305.5 448.3,305.9 C447.9,306.3 447.6,306.9 447.4,307.5 C447.2,308.2 447.1,308.9 447.1,309.8 L447.1,317.9 L444.1,317.9 L444.1,293 L444,293 Z" id="Path" fill="#000000" fill-rule="nonzero"></path>
            <path d="M198.7,148.3 C171.2,148.3 151.8,169.4 151.8,194.6 L151.8,194.9 C151.8,220.1 171,240.9 198.4,240.9 C225.9,240.9 245.3,219.8 245.3,194.6 L245.3,194.3 C245.3,169.1 226.2,148.3 198.7,148.3 M228.8,194.8 C228.8,212.2 216.4,226.4 198.6,226.4 C180.8,226.4 168.2,212 168.2,194.6 L168.2,194.3 C168.2,176.9 180.6,162.7 198.4,162.7 C216.2,162.7 228.8,177.1 228.8,194.5 L228.8,194.8 Z" id="Shape" fill="#000000" fill-rule="nonzero"></path>
            <rect id="Rectangle" fill="#000000" fill-rule="nonzero" x="258.9" y="149.8" width="15.7" height="89.4"></rect>
            <path d="M334.1,226.4 C317,226.4 304.6,212.1 304.6,194.6 L304.6,194.3 C304.6,176.8 317,162.7 334.1,162.7 C344.3,162.7 352,167.2 359.1,173.8 L369.2,162.2 C360.6,154 350.7,148.3 334.2,148.3 C307.1,148.3 288.1,169.1 288.1,194.6 L288.1,194.9 C288.1,220.6 307.5,240.9 333.6,240.9 C350.3,240.9 360.6,234.8 369.9,225.1 L359.8,214.9 C352.1,221.9 345.1,226.4 334.1,226.4" id="Path" fill="#000000" fill-rule="nonzero"></path>
            <path d="M434.3,205.4 C446.8,201.8 455.6,193 455.6,178.3 L455.6,178 C455.6,170.2 452.9,163.6 448.2,158.7 C442.5,153.1 433.6,149.8 422.4,149.8 L382.5,149.8 L382.5,239.2 L398.2,239.2 L398.2,208 L417.6,208 L417.9,208 L439.9,239.2 L458.4,239.2 L434.3,205.4 Z M398.3,194.2 L398.3,164.2 L421.2,164.2 C432.8,164.2 439.7,169.4 439.7,179 L439.7,179.3 C439.7,188.4 432.5,194.3 421.3,194.3 L398.3,194.3 L398.3,194.2 Z" id="Shape" fill="#000000" fill-rule="nonzero"></path>
            <rect id="Rectangle" x="0.6" y="0.7" width="464.8" height="334.7"></rect>
        </g>
    </g>
</svg>