<svg xmlns="http://www.w3.org/2000/svg" width="1100" height="1212" font-family="sans-serif">
<rect width="1100" height="1212" fill="white"/>
<text x="90" y="30" font-size="20" font-weight="bold">JS bytes over the wire: boot LGV + open gene track (volvox)</text>
<text x="90" y="48" font-size="12" fill="#555">green = track rendered, red = render not detected. Raw (uncompressed) JS encodedDataLength.</text>
<text x="82" y="77" text-anchor="end" font-size="13" font-family="monospace">v1.6.9</text>
<rect x="90" y="60" width="920.0" height="26" fill="#2e7d32" rx="3"/>
<text x="1016" y="77" font-size="12" font-family="monospace">2598 KB</text>
<text x="82" y="111" text-anchor="end" font-size="13" font-family="monospace">v1.7.11</text>
<rect x="90" y="94" width="895.5" height="26" fill="#2e7d32" rx="3"/>
<text x="991.5116513586644" y="111" font-size="12" font-family="monospace">2529 KB</text>
<text x="82" y="145" text-anchor="end" font-size="13" font-family="monospace">v2.0.1</text>
<rect x="90" y="128" width="676.3" height="26" fill="#2e7d32" rx="3"/>
<text x="772.2672954993834" y="145" font-size="12" font-family="monospace">1910 KB</text>
<text x="82" y="179" text-anchor="end" font-size="13" font-family="monospace">v2.1.7</text>
<rect x="90" y="162" width="732.1" height="26" fill="#2e7d32" rx="3"/>
<text x="828.1369274721293" y="179" font-size="12" font-family="monospace">2068 KB</text>
<text x="82" y="213" text-anchor="end" font-size="13" font-family="monospace">v2.2.2</text>
<rect x="90" y="196" width="702.5" height="26" fill="#2e7d32" rx="3"/>
<text x="798.5132837027562" y="213" font-size="12" font-family="monospace">1984 KB</text>
<text x="82" y="247" text-anchor="end" font-size="13" font-family="monospace">v2.3.4</text>
<rect x="90" y="230" width="709.0" height="26" fill="#2e7d32" rx="3"/>
<text x="804.9750209633875" y="247" font-size="12" font-family="monospace">2002 KB</text>
<text x="82" y="281" text-anchor="end" font-size="13" font-family="monospace">v2.4.2</text>
<rect x="90" y="264" width="779.7" height="26" fill="#2e7d32" rx="3"/>
<text x="875.7384265375625" y="281" font-size="12" font-family="monospace">2202 KB</text>
<text x="82" y="315" text-anchor="end" font-size="13" font-family="monospace">v2.5.0</text>
<rect x="90" y="298" width="741.8" height="26" fill="#2e7d32" rx="3"/>
<text x="837.8473414365454" y="315" font-size="12" font-family="monospace">2095 KB</text>
<text x="82" y="349" text-anchor="end" font-size="13" font-family="monospace">v2.6.3</text>
<rect x="90" y="332" width="715.0" height="26" fill="#2e7d32" rx="3"/>
<text x="810.9644120422869" y="349" font-size="12" font-family="monospace">2019 KB</text>
<text x="82" y="383" text-anchor="end" font-size="13" font-family="monospace">v2.7.2</text>
<rect x="90" y="366" width="747.0" height="26" fill="#2e7d32" rx="3"/>
<text x="842.9892065334355" y="383" font-size="12" font-family="monospace">2110 KB</text>
<text x="82" y="417" text-anchor="end" font-size="13" font-family="monospace">v2.8.0</text>
<rect x="90" y="400" width="656.0" height="26" fill="#2e7d32" rx="3"/>
<text x="751.986493226505" y="417" font-size="12" font-family="monospace">1853 KB</text>
<text x="82" y="451" text-anchor="end" font-size="13" font-family="monospace">v2.9.0</text>
<rect x="90" y="434" width="644.4" height="26" fill="#2e7d32" rx="3"/>
<text x="740.363872538094" y="451" font-size="12" font-family="monospace">1820 KB</text>
<text x="82" y="485" text-anchor="end" font-size="13" font-family="monospace">v2.10.3</text>
<rect x="90" y="468" width="636.2" height="26" fill="#2e7d32" rx="3"/>
<text x="732.2105411917879" y="485" font-size="12" font-family="monospace">1797 KB</text>
<text x="82" y="519" text-anchor="end" font-size="13" font-family="monospace">v2.11.2</text>
<rect x="90" y="502" width="643.5" height="26" fill="#2e7d32" rx="3"/>
<text x="739.4713941376183" y="519" font-size="12" font-family="monospace">1817 KB</text>
<text x="82" y="553" text-anchor="end" font-size="13" font-family="monospace">v2.12.3</text>
<rect x="90" y="536" width="633.6" height="26" fill="#2e7d32" rx="3"/>
<text x="729.6351134014961" y="553" font-size="12" font-family="monospace">1789 KB</text>
<text x="82" y="587" text-anchor="end" font-size="13" font-family="monospace">v2.13.1</text>
<rect x="90" y="570" width="632.3" height="26" fill="#2e7d32" rx="3"/>
<text x="728.2557657302456" y="587" font-size="12" font-family="monospace">1786 KB</text>
<text x="82" y="621" text-anchor="end" font-size="13" font-family="monospace">v2.14.0</text>
<rect x="90" y="604" width="623.4" height="26" fill="#2e7d32" rx="3"/>
<text x="719.4347180757959" y="621" font-size="12" font-family="monospace">1761 KB</text>
<text x="82" y="655" text-anchor="end" font-size="13" font-family="monospace">v2.15.4</text>
<rect x="90" y="638" width="611.6" height="26" fill="#2e7d32" rx="3"/>
<text x="707.6073909894455" y="655" font-size="12" font-family="monospace">1727 KB</text>
<text x="82" y="689" text-anchor="end" font-size="13" font-family="monospace">v2.16.1</text>
<rect x="90" y="672" width="612.8" height="26" fill="#2e7d32" rx="3"/>
<text x="708.7827238384253" y="689" font-size="12" font-family="monospace">1731 KB</text>
<text x="82" y="723" text-anchor="end" font-size="13" font-family="monospace">v2.17.0</text>
<rect x="90" y="706" width="621.8" height="26" fill="#2e7d32" rx="3"/>
<text x="717.8306083122134" y="723" font-size="12" font-family="monospace">1756 KB</text>
<text x="82" y="757" text-anchor="end" font-size="13" font-family="monospace">v2.18.0</text>
<rect x="90" y="740" width="632.8" height="26" fill="#2e7d32" rx="3"/>
<text x="728.794503176174" y="757" font-size="12" font-family="monospace">1787 KB</text>
<text x="82" y="791" text-anchor="end" font-size="13" font-family="monospace">v3.0.5</text>
<rect x="90" y="774" width="651.9" height="26" fill="#2e7d32" rx="3"/>
<text x="747.8774963908395" y="791" font-size="12" font-family="monospace">1841 KB</text>
<text x="82" y="825" text-anchor="end" font-size="13" font-family="monospace">v3.1.0</text>
<rect x="90" y="808" width="655.3" height="26" fill="#2e7d32" rx="3"/>
<text x="751.2603387743551" y="825" font-size="12" font-family="monospace">1851 KB</text>
<text x="82" y="859" text-anchor="end" font-size="13" font-family="monospace">v3.2.0</text>
<rect x="90" y="842" width="657.8" height="26" fill="#2e7d32" rx="3"/>
<text x="753.7883936313399" y="859" font-size="12" font-family="monospace">1858 KB</text>
<text x="82" y="893" text-anchor="end" font-size="13" font-family="monospace">v3.3.0</text>
<rect x="90" y="876" width="661.8" height="26" fill="#2e7d32" rx="3"/>
<text x="757.7735984223054" y="893" font-size="12" font-family="monospace">1869 KB</text>
<text x="82" y="927" text-anchor="end" font-size="13" font-family="monospace">v3.4.0</text>
<rect x="90" y="910" width="664.6" height="26" fill="#2e7d32" rx="3"/>
<text x="760.6059465735244" y="927" font-size="12" font-family="monospace">1877 KB</text>
<text x="82" y="961" text-anchor="end" font-size="13" font-family="monospace">v3.5.1</text>
<rect x="90" y="944" width="673.4" height="26" fill="#2e7d32" rx="3"/>
<text x="769.371668174477" y="961" font-size="12" font-family="monospace">1902 KB</text>
<text x="82" y="995" text-anchor="end" font-size="13" font-family="monospace">v3.6.5</text>
<rect x="90" y="978" width="671.3" height="26" fill="#2e7d32" rx="3"/>
<text x="767.2633997484018" y="995" font-size="12" font-family="monospace">1896 KB</text>
<text x="82" y="1029" text-anchor="end" font-size="13" font-family="monospace">v3.7.0</text>
<rect x="90" y="1012" width="694.0" height="26" fill="#2e7d32" rx="3"/>
<text x="789.9809688899948" y="1029" font-size="12" font-family="monospace">1960 KB</text>
<text x="82" y="1063" text-anchor="end" font-size="13" font-family="monospace">v4.0.4</text>
<rect x="90" y="1046" width="612.8" height="26" fill="#2e7d32" rx="3"/>
<text x="708.8041626841555" y="1063" font-size="12" font-family="monospace">1731 KB</text>
<text x="82" y="1097" text-anchor="end" font-size="13" font-family="monospace">v4.1.15</text>
<rect x="90" y="1080" width="629.9" height="26" fill="#2e7d32" rx="3"/>
<text x="725.898184275599" y="1097" font-size="12" font-family="monospace">1779 KB</text>
<text x="82" y="1131" text-anchor="end" font-size="13" font-family="monospace">v4.2.1</text>
<rect x="90" y="1114" width="632.8" height="26" fill="#2e7d32" rx="3"/>
<text x="728.843950836487" y="1131" font-size="12" font-family="monospace">1787 KB</text>
<text x="82" y="1165" text-anchor="end" font-size="13" font-family="monospace">v4.3.0</text>
<rect x="90" y="1148" width="634.8" height="26" fill="#2e7d32" rx="3"/>
<text x="730.7661854076782" y="1165" font-size="12" font-family="monospace">1793 KB</text>
</svg>