<?xml version="1.0" encoding="UTF-8" standalone="no"?>
<!DOCTYPE svg PUBLIC "-//W3C//DTD SVG 1.1//EN"
 "http://www.w3.org/Graphics/SVG/1.1/DTD/svg11.dtd">
<!-- Generated by graphviz version 15.1.1 (20260805.0921)
 -->
<!-- Title: read_colour Pages: 1 -->
<svg width="1700pt" height="797pt"
 viewBox="0.00 0.00 1700.00 797.00" xmlns="http://www.w3.org/2000/svg" xmlns:xlink="http://www.w3.org/1999/xlink">
<g id="graph0" class="graph" transform="scale(1 1) rotate(0) translate(4 793)">
<title>read_colour</title>
<polygon fill="white" stroke="none" points="-4,4 -4,-793 1696,-793 1696,4 -4,4"/>
<!-- supp -->
<g id="node1" class="node">
<title>supp</title>
<polygon fill="none" stroke="black" points="1511,-716 1345,-682.5 1511,-649 1677,-682.5 1511,-716"/>
<text xml:space="preserve" text-anchor="middle" x="1511" y="-685.75" font-family="monospace" font-size="10.00">a supplementary chain,</text>
<text xml:space="preserve" text-anchor="middle" x="1511" y="-673" font-family="monospace" font-size="10.00">and chain colouring is on</text>
</g>
<!-- frame -->
<g id="node2" class="node">
<title>frame</title>
<polygon fill="none" stroke="black" points="1378,-601.75 1176,-555.5 1378,-509.25 1580,-555.5 1378,-601.75"/>
<text xml:space="preserve" text-anchor="middle" x="1378" y="-565.12" font-family="monospace" font-size="10.00">an unpaired chain with</text>
<text xml:space="preserve" text-anchor="middle" x="1378" y="-552.38" font-family="monospace" font-size="10.00">strand framing on, and a scheme</text>
<text xml:space="preserve" text-anchor="middle" x="1378" y="-539.62" font-family="monospace" font-size="10.00">that does not fill from data</text>
</g>
<!-- supp&#45;&gt;frame -->
<g id="edge3" class="edge">
<title>supp&#45;&gt;frame</title>
<path fill="none" stroke="black" d="M1482.14,-654.38C1465.5,-638.74 1444.18,-618.7 1425.16,-600.83"/>
<polygon fill="black" stroke="black" points="1427.68,-598.39 1418,-594.09 1422.89,-603.49 1427.68,-598.39"/>
<text xml:space="preserve" text-anchor="middle" x="1464.29" y="-622.45" font-family="monospace" font-size="9.00"> no</text>
</g>
<!-- suppcol -->
<g id="node8" class="node">
<title>suppcol</title>
<polygon fill="none" stroke="black" points="1692,-573.5 1598,-573.5 1598,-537.5 1692,-537.5 1692,-573.5"/>
<text xml:space="preserve" text-anchor="middle" x="1645" y="-552.38" font-family="monospace" font-size="10.00">supplementary</text>
</g>
<!-- supp&#45;&gt;suppcol -->
<g id="edge2" class="edge">
<title>supp&#45;&gt;suppcol</title>
<path fill="none" stroke="black" d="M1540.08,-654.38C1563.28,-632.73 1595.54,-602.64 1618.14,-581.55"/>
<polygon fill="black" stroke="black" points="1620.26,-584.36 1625.19,-574.98 1615.49,-579.24 1620.26,-584.36"/>
<text xml:space="preserve" text-anchor="middle" x="1584.48" y="-622.45" font-family="monospace" font-size="9.00"> yes</text>
</g>
<!-- split -->
<g id="node3" class="node">
<title>split</title>
<polygon fill="none" stroke="black" points="1242,-462 1082,-428.5 1242,-395 1402,-428.5 1242,-462"/>
<text xml:space="preserve" text-anchor="middle" x="1242" y="-431.75" font-family="monospace" font-size="10.00">a paired chain under an</text>
<text xml:space="preserve" text-anchor="middle" x="1242" y="-419" font-family="monospace" font-size="10.00">orientation&#45;aware scheme</text>
</g>
<!-- frame&#45;&gt;split -->
<g id="edge5" class="edge">
<title>frame&#45;&gt;split</title>
<path fill="none" stroke="black" d="M1338.3,-518.01C1319.67,-500.89 1297.59,-480.59 1279.28,-463.76"/>
<polygon fill="black" stroke="black" points="1282,-461.51 1272.27,-457.32 1277.26,-466.66 1282,-461.51"/>
<text xml:space="preserve" text-anchor="middle" x="1313.8" y="-482.7" font-family="monospace" font-size="9.00"> no</text>
</g>
<!-- framecol -->
<g id="node9" class="node">
<title>framecol</title>
<polygon fill="none" stroke="black" points="1610,-446.5 1420,-446.5 1420,-410.5 1610,-410.5 1610,-446.5"/>
<text xml:space="preserve" text-anchor="middle" x="1515" y="-431.75" font-family="monospace" font-size="10.00">forward or reverse strand,</text>
<text xml:space="preserve" text-anchor="middle" x="1515" y="-419" font-family="monospace" font-size="10.00">relative to the chain&#39;s frame</text>
</g>
<!-- frame&#45;&gt;framecol -->
<g id="edge4" class="edge">
<title>frame&#45;&gt;framecol</title>
<path fill="none" stroke="black" d="M1417.99,-518.01C1440.42,-497.55 1467.81,-472.55 1487.76,-454.35"/>
<polygon fill="black" stroke="black" points="1489.94,-457.1 1494.97,-447.77 1485.22,-451.93 1489.94,-457.1"/>
<text xml:space="preserve" text-anchor="middle" x="1469.27" y="-482.7" font-family="monospace" font-size="9.00"> yes</text>
</g>
<!-- unmapped -->
<g id="node4" class="node">
<title>unmapped</title>
<polygon fill="none" stroke="black" points="969,-347.75 767,-314.25 969,-280.75 1171,-314.25 969,-347.75"/>
<text xml:space="preserve" text-anchor="middle" x="969" y="-317.5" font-family="monospace" font-size="10.00">mate unmapped, under a</text>
<text xml:space="preserve" text-anchor="middle" x="969" y="-304.75" font-family="monospace" font-size="10.00">mate&#45;aware scheme or in a chain</text>
</g>
<!-- split&#45;&gt;unmapped -->
<g id="edge8" class="edge">
<title>split&#45;&gt;unmapped</title>
<path fill="none" stroke="black" d="M1189.04,-405.72C1145.5,-387.82 1083.55,-362.35 1036.46,-342.99"/>
<polygon fill="black" stroke="black" points="1038.03,-339.85 1027.45,-339.28 1035.37,-346.32 1038.03,-339.85"/>
<text xml:space="preserve" text-anchor="middle" x="1134.69" y="-368.45" font-family="monospace" font-size="9.00"> neither</text>
</g>
<!-- inv -->
<g id="node10" class="node">
<title>inv</title>
<polygon fill="none" stroke="black" points="1295,-332.25 1189,-332.25 1189,-296.25 1295,-296.25 1295,-332.25"/>
<text xml:space="preserve" text-anchor="middle" x="1242" y="-311.12" font-family="monospace" font-size="10.00">split inversion</text>
</g>
<!-- split&#45;&gt;inv -->
<g id="edge6" class="edge">
<title>split&#45;&gt;inv</title>
<path fill="none" stroke="black" d="M1242,-394.73C1242,-378.7 1242,-359.57 1242,-344.1"/>
<polygon fill="black" stroke="black" points="1245.5,-344.11 1242,-334.11 1238.5,-344.11 1245.5,-344.11"/>
<text xml:space="preserve" text-anchor="middle" x="1268.25" y="-368.45" font-family="monospace" font-size="9.00"> inversion</text>
</g>
<!-- del -->
<g id="node11" class="node">
<title>del</title>
<polygon fill="none" stroke="black" points="1413,-332.25 1313,-332.25 1313,-296.25 1413,-296.25 1413,-332.25"/>
<text xml:space="preserve" text-anchor="middle" x="1363" y="-311.12" font-family="monospace" font-size="10.00">split deletion</text>
</g>
<!-- split&#45;&gt;del -->
<g id="edge7" class="edge">
<title>split&#45;&gt;del</title>
<path fill="none" stroke="black" d="M1271.77,-400.91C1280.29,-393.24 1289.55,-384.83 1298,-377 1310.87,-365.09 1325,-351.7 1336.79,-340.45"/>
<polygon fill="black" stroke="black" points="1339.01,-343.17 1343.81,-333.72 1334.17,-338.11 1339.01,-343.17"/>
<text xml:space="preserve" text-anchor="middle" x="1332.36" y="-368.45" font-family="monospace" font-size="9.00"> deletion</text>
</g>
<!-- interchrom -->
<g id="node5" class="node">
<title>interchrom</title>
<polygon fill="none" stroke="black" points="848,-233.5 670,-200 848,-166.5 1026,-200 848,-233.5"/>
<text xml:space="preserve" text-anchor="middle" x="848" y="-203.25" font-family="monospace" font-size="10.00">mate on another chromosome,</text>
<text xml:space="preserve" text-anchor="middle" x="848" y="-190.5" font-family="monospace" font-size="10.00">under a mate&#45;aware scheme</text>
</g>
<!-- unmapped&#45;&gt;interchrom -->
<g id="edge10" class="edge">
<title>unmapped&#45;&gt;interchrom</title>
<path fill="none" stroke="black" d="M939.09,-285.5C922.97,-270.55 902.92,-251.95 885.74,-236.01"/>
<polygon fill="black" stroke="black" points="888.39,-233.69 878.68,-229.46 883.63,-238.82 888.39,-233.69"/>
<text xml:space="preserve" text-anchor="middle" x="920" y="-254.2" font-family="monospace" font-size="9.00"> no</text>
</g>
<!-- unmappedcol -->
<g id="node12" class="node">
<title>unmappedcol</title>
<polygon fill="none" stroke="black" points="1138,-218 1044,-218 1044,-182 1138,-182 1138,-218"/>
<text xml:space="preserve" text-anchor="middle" x="1091" y="-196.88" font-family="monospace" font-size="10.00">unmapped mate</text>
</g>
<!-- unmapped&#45;&gt;unmappedcol -->
<g id="edge9" class="edge">
<title>unmapped&#45;&gt;unmappedcol</title>
<path fill="none" stroke="black" d="M999.16,-285.5C1018.98,-267.26 1044.71,-243.59 1063.89,-225.95"/>
<polygon fill="black" stroke="black" points="1066.09,-228.68 1071.08,-219.33 1061.35,-223.52 1066.09,-228.68"/>
<text xml:space="preserve" text-anchor="middle" x="1044.16" y="-254.2" font-family="monospace" font-size="9.00"> yes</text>
</g>
<!-- scheme -->
<g id="node6" class="node">
<title>scheme</title>
<polygon fill="none" stroke="black" points="771,-119.25 689.66,-101.25 771,-83.25 852.34,-101.25 771,-119.25"/>
<text xml:space="preserve" text-anchor="middle" x="771" y="-98.12" font-family="monospace" font-size="10.00">colour scheme</text>
</g>
<!-- interchrom&#45;&gt;scheme -->
<g id="edge12" class="edge">
<title>interchrom&#45;&gt;scheme</title>
<path fill="none" stroke="black" d="M825.31,-170.5C814,-156.27 800.47,-139.28 789.75,-125.81"/>
<polygon fill="black" stroke="black" points="792.74,-123.95 783.78,-118.31 787.27,-128.31 792.74,-123.95"/>
<text xml:space="preserve" text-anchor="middle" x="815.07" y="-139.95" font-family="monospace" font-size="9.00"> no</text>
</g>
<!-- interchromcol -->
<g id="node13" class="node">
<title>interchromcol</title>
<polygon fill="none" stroke="black" points="982,-119.25 870,-119.25 870,-83.25 982,-83.25 982,-119.25"/>
<text xml:space="preserve" text-anchor="middle" x="926" y="-98.12" font-family="monospace" font-size="10.00">interchromosomal</text>
</g>
<!-- interchrom&#45;&gt;interchromcol -->
<g id="edge11" class="edge">
<title>interchrom&#45;&gt;interchromcol</title>
<path fill="none" stroke="black" d="M870.98,-170.5C881.68,-157.22 894.34,-141.53 904.81,-128.54"/>
<polygon fill="black" stroke="black" points="907.49,-130.79 911.04,-120.81 902.04,-126.4 907.49,-130.79"/>
<text xml:space="preserve" text-anchor="middle" x="906.78" y="-139.95" font-family="monospace" font-size="9.00"> yes</text>
</g>
<!-- plain -->
<g id="node14" class="node">
<title>plain</title>
<polygon fill="none" stroke="black" points="100,-36 0,-36 0,0 100,0 100,-36"/>
<text xml:space="preserve" text-anchor="middle" x="50" y="-14.88" font-family="monospace" font-size="10.00">the plain fill</text>
</g>
<!-- scheme&#45;&gt;plain -->
<g id="edge13" class="edge">
<title>scheme&#45;&gt;plain</title>
<path fill="none" stroke="black" d="M702.71,-97.96C583.94,-93.04 331.73,-78.4 111.51,-36.3"/>
<polygon fill="black" stroke="black" points="112.36,-32.9 101.87,-34.43 111.03,-39.77 112.36,-32.9"/>
<text xml:space="preserve" text-anchor="middle" x="307.62" y="-56.7" font-family="monospace" font-size="9.00"> normal</text>
</g>
<!-- strand -->
<g id="node15" class="node">
<title>strand</title>
<polygon fill="none" stroke="black" points="320,-36 118,-36 118,0 320,0 320,-36"/>
<text xml:space="preserve" text-anchor="middle" x="219" y="-14.88" font-family="monospace" font-size="10.00">forward, reverse, or unstranded</text>
</g>
<!-- scheme&#45;&gt;strand -->
<g id="edge14" class="edge">
<title>scheme&#45;&gt;strand</title>
<path fill="none" stroke="black" d="M718.7,-94.32C662.8,-87.83 571.63,-76.79 493.25,-65.25 438.62,-57.21 378.08,-47.12 327.8,-38.42"/>
<polygon fill="black" stroke="black" points="328.52,-34.99 318.07,-36.73 327.32,-41.89 328.52,-34.99"/>
<text xml:space="preserve" text-anchor="middle" x="511.62" y="-56.7" font-family="monospace" font-size="9.00"> strand</text>
</g>
<!-- mapq -->
<g id="node16" class="node">
<title>mapq</title>
<polygon fill="none" stroke="black" points="468,-36 338,-36 338,0 468,0 468,-36"/>
<text xml:space="preserve" text-anchor="middle" x="403" y="-21.25" font-family="monospace" font-size="10.00">a quality shade, or</text>
<text xml:space="preserve" text-anchor="middle" x="403" y="-8.5" font-family="monospace" font-size="10.00">quality&#45;unavailable</text>
</g>
<!-- scheme&#45;&gt;mapq -->
<g id="edge15" class="edge">
<title>scheme&#45;&gt;mapq</title>
<path fill="none" stroke="black" d="M724.93,-93.02C685.49,-86.58 627.28,-76.45 577,-65.25 543.16,-57.71 505.98,-48.02 474.7,-39.46"/>
<polygon fill="black" stroke="black" points="475.93,-36.17 465.36,-36.89 474.07,-42.92 475.93,-36.17"/>
<text xml:space="preserve" text-anchor="middle" x="619" y="-56.7" font-family="monospace" font-size="9.00"> mapping quality</text>
</g>
<!-- insert -->
<g id="node17" class="node">
<title>insert</title>
<polygon fill="none" stroke="black" points="676,-36 486,-36 486,0 676,0 676,-36"/>
<text xml:space="preserve" text-anchor="middle" x="581" y="-14.88" font-family="monospace" font-size="10.00">long, short, or normal insert</text>
</g>
<!-- scheme&#45;&gt;insert -->
<g id="edge16" class="edge">
<title>scheme&#45;&gt;insert</title>
<path fill="none" stroke="black" d="M744.18,-88.78C715.13,-76.36 668.11,-56.25 631.99,-40.8"/>
<polygon fill="black" stroke="black" points="633.6,-37.69 623.03,-36.97 630.85,-44.12 633.6,-37.69"/>
<text xml:space="preserve" text-anchor="middle" x="718.88" y="-56.7" font-family="monospace" font-size="9.00"> insert size</text>
</g>
<!-- firstpair -->
<g id="node18" class="node">
<title>firstpair</title>
<polygon fill="none" stroke="black" points="848,-36 694,-36 694,0 848,0 848,-36"/>
<text xml:space="preserve" text-anchor="middle" x="771" y="-14.88" font-family="monospace" font-size="10.00">the first mate&#39;s strand</text>
</g>
<!-- scheme&#45;&gt;firstpair -->
<g id="edge17" class="edge">
<title>scheme&#45;&gt;firstpair</title>
<path fill="none" stroke="black" d="M771,-83.02C771,-72.75 771,-59.45 771,-47.64"/>
<polygon fill="black" stroke="black" points="774.5,-48 771,-38 767.5,-48 774.5,-48"/>
<text xml:space="preserve" text-anchor="middle" x="826.12" y="-56.7" font-family="monospace" font-size="9.00"> first&#45;of&#45;pair strand</text>
</g>
<!-- orient -->
<g id="node19" class="node">
<title>orient</title>
<polygon fill="none" stroke="black" points="1068,-36 866,-36 866,0 1068,0 1068,-36"/>
<text xml:space="preserve" text-anchor="middle" x="967" y="-21.25" font-family="monospace" font-size="10.00">one fill per orientation class,</text>
<text xml:space="preserve" text-anchor="middle" x="967" y="-8.5" font-family="monospace" font-size="10.00">or non&#45;split</text>
</g>
<!-- scheme&#45;&gt;orient -->
<g id="edge18" class="edge">
<title>scheme&#45;&gt;orient</title>
<path fill="none" stroke="black" d="M808.17,-91.02C830.81,-84.87 860.08,-75.95 885,-65.25 900.23,-58.71 916.25,-50.1 930.06,-42.08"/>
<polygon fill="black" stroke="black" points="931.56,-45.26 938.38,-37.15 927.99,-39.24 931.56,-45.26"/>
<text xml:space="preserve" text-anchor="middle" x="952.92" y="-56.7" font-family="monospace" font-size="9.00"> pair orientation</text>
</g>
<!-- both -->
<g id="node20" class="node">
<title>both</title>
<polygon fill="none" stroke="black" points="1276,-36 1086,-36 1086,0 1276,0 1276,-36"/>
<text xml:space="preserve" text-anchor="middle" x="1181" y="-21.25" font-family="monospace" font-size="10.00">short insert wins, then</text>
<text xml:space="preserve" text-anchor="middle" x="1181" y="-8.5" font-family="monospace" font-size="10.00">orientation, then insert size</text>
</g>
<!-- scheme&#45;&gt;both -->
<g id="edge19" class="edge">
<title>scheme&#45;&gt;both</title>
<path fill="none" stroke="black" d="M812.13,-91.95C827.44,-89 844.98,-85.78 861,-83.25 923.4,-73.38 939.96,-77.18 1002,-65.25 1038.11,-58.31 1077.74,-48.32 1110.52,-39.4"/>
<polygon fill="black" stroke="black" points="1111.18,-42.85 1119.89,-36.82 1109.32,-36.1 1111.18,-42.85"/>
<text xml:space="preserve" text-anchor="middle" x="1125.1" y="-56.7" font-family="monospace" font-size="9.00"> insert size and orientation</text>
</g>
<!-- mods -->
<g id="node21" class="node">
<title>mods</title>
<polygon fill="none" stroke="black" points="1454,-36 1294,-36 1294,0 1454,0 1454,-36"/>
<text xml:space="preserve" text-anchor="middle" x="1374" y="-21.25" font-family="monospace" font-size="10.00">modification colours, by</text>
<text xml:space="preserve" text-anchor="middle" x="1374" y="-8.5" font-family="monospace" font-size="10.00">the read&#39;s own strand</text>
</g>
<!-- scheme&#45;&gt;mods -->
<g id="edge20" class="edge">
<title>scheme&#45;&gt;mods</title>
<path fill="none" stroke="black" d="M810.7,-91.56C826.3,-88.46 844.42,-85.24 861,-83.25 1012.12,-65.08 1052.69,-89.25 1203,-65.25 1239,-59.5 1278.32,-49.16 1310.17,-39.71"/>
<polygon fill="black" stroke="black" points="1311.09,-43.09 1319.65,-36.86 1309.07,-36.39 1311.09,-43.09"/>
<text xml:space="preserve" text-anchor="middle" x="1292.16" y="-56.7" font-family="monospace" font-size="9.00"> modifications</text>
</g>
<!-- tag -->
<g id="node22" class="node">
<title>tag</title>
<polygon fill="none" stroke="black" points="1608,-36 1472,-36 1472,0 1608,0 1608,-36"/>
<text xml:space="preserve" text-anchor="middle" x="1540" y="-21.25" font-family="monospace" font-size="10.00">the tag&#39;s colour, or</text>
<text xml:space="preserve" text-anchor="middle" x="1540" y="-8.5" font-family="monospace" font-size="10.00">no&#45;value</text>
</g>
<!-- scheme&#45;&gt;tag -->
<g id="edge21" class="edge">
<title>scheme&#45;&gt;tag</title>
<path fill="none" stroke="black" d="M810.24,-91.53C825.94,-88.38 844.25,-85.14 861,-83.25 1069.61,-59.7 1124.81,-92.25 1333,-65.25 1377.3,-59.5 1426.1,-48.82 1465.18,-39.17"/>
<polygon fill="black" stroke="black" points="1465.88,-42.6 1474.73,-36.78 1464.18,-35.81 1465.88,-42.6"/>
<text xml:space="preserve" text-anchor="middle" x="1406.69" y="-56.7" font-family="monospace" font-size="9.00"> tag</text>
</g>
<!-- start -->
<g id="node7" class="node">
<title>start</title>
<ellipse fill="none" stroke="black" cx="1511" cy="-771" rx="27" ry="18"/>
<text xml:space="preserve" text-anchor="middle" x="1511" y="-767.88" font-family="monospace" font-size="10.00">read</text>
</g>
<!-- start&#45;&gt;supp -->
<g id="edge1" class="edge">
<title>start&#45;&gt;supp</title>
<path fill="none" stroke="black" d="M1511,-752.91C1511,-745.57 1511,-736.62 1511,-727.62"/>
<polygon fill="black" stroke="black" points="1514.5,-727.83 1511,-717.83 1507.5,-727.83 1514.5,-727.83"/>
</g>
</g>
<!-- diagram-source-sha256 3d806dfd628d094a016247535e3f01d5bed5b19ccbae72072c2247f72d425a50 -->
</svg>
