<?xml version="1.0" encoding="UTF-8" standalone="no"?>
<!DOCTYPE svg PUBLIC "-//W3C//DTD SVG 1.1//EN"
 "http://www.w3.org/Graphics/SVG/1.1/DTD/svg11.dtd">
<!-- Generated by graphviz version 15.1.1 (20260805.0921)
 -->
<!-- Title: synteny_colour Pages: 1 -->
<svg width="1928pt" height="360pt"
 viewBox="0.00 0.00 1928.00 360.00" xmlns="http://www.w3.org/2000/svg" xmlns:xlink="http://www.w3.org/1999/xlink">
<g id="graph0" class="graph" transform="scale(1 1) rotate(0) translate(4 355.68)">
<title>synteny_colour</title>
<polygon fill="white" stroke="none" points="-4,4 -4,-355.68 1923.82,-355.68 1923.82,4 -4,4"/>
<!-- mode -->
<g id="node1" class="node">
<title>mode</title>
<polygon fill="none" stroke="black" points="215.27,-183.56 107.98,-165.56 215.27,-147.56 322.57,-165.56 215.27,-183.56"/>
<text xml:space="preserve" text-anchor="middle" x="215.27" y="-162.43" font-family="monospace" font-size="10.00">which kind of mode</text>
</g>
<!-- flat -->
<g id="node4" class="node">
<title>flat</title>
<polygon fill="none" stroke="black" points="1187.82,-308.56 985.82,-308.56 985.82,-272.56 1187.82,-272.56 1187.82,-308.56"/>
<text xml:space="preserve" text-anchor="middle" x="1086.82" y="-293.81" font-family="monospace" font-size="10.00">the match colour;</text>
<text xml:space="preserve" text-anchor="middle" x="1086.82" y="-281.06" font-family="monospace" font-size="10.00">the dotplot&#39;s flat point colour</text>
</g>
<!-- mode&#45;&gt;flat -->
<g id="edge2" class="edge">
<title>mode&#45;&gt;flat</title>
<path fill="none" stroke="black" d="M233.23,-181.02C255.81,-200.55 297.9,-233.32 340.57,-247.56 555.79,-319.37 825.17,-313.07 973.99,-301.91"/>
<polygon fill="black" stroke="black" points="974.16,-305.41 983.86,-301.15 973.62,-298.43 974.16,-305.41"/>
<text xml:space="preserve" text-anchor="middle" x="620.82" y="-311.26" font-family="Times,serif" font-size="14.00"> default</text>
</g>
<!-- strand -->
<g id="node5" class="node">
<title>strand</title>
<polygon fill="none" stroke="black" points="902.82,-264.56 778.82,-264.56 778.82,-228.56 902.82,-228.56 902.82,-264.56"/>
<text xml:space="preserve" text-anchor="middle" x="840.82" y="-243.43" font-family="monospace" font-size="10.00">forward or reverse</text>
</g>
<!-- mode&#45;&gt;strand -->
<g id="edge3" class="edge">
<title>mode&#45;&gt;strand</title>
<path fill="none" stroke="black" d="M250.97,-178.02C275.68,-186.51 309.83,-197.46 340.57,-204.56 489.55,-238.97 669.34,-245.92 767.38,-246.9"/>
<polygon fill="black" stroke="black" points="767.09,-250.4 777.12,-246.98 767.15,-243.4 767.09,-250.4"/>
<text xml:space="preserve" text-anchor="middle" x="407.7" y="-230.08" font-family="Times,serif" font-size="14.00"> strand</text>
</g>
<!-- chrom -->
<g id="node6" class="node">
<title>chrom</title>
<polygon fill="none" stroke="black" points="1412.82,-216.68 1258.82,-216.68 1258.82,-170.43 1412.82,-170.43 1412.82,-216.68"/>
<text xml:space="preserve" text-anchor="middle" x="1335.82" y="-203.18" font-family="monospace" font-size="10.00">the assembly&#39;s palette,</text>
<text xml:space="preserve" text-anchor="middle" x="1335.82" y="-190.43" font-family="monospace" font-size="10.00">handed out BY POSITION</text>
<text xml:space="preserve" text-anchor="middle" x="1335.82" y="-177.68" font-family="monospace" font-size="10.00">in the chromosome order</text>
</g>
<!-- mode&#45;&gt;chrom -->
<g id="edge4" class="edge">
<title>mode&#45;&gt;chrom</title>
<path fill="none" stroke="black" d="M284.27,-172.45C302.54,-174.07 322.29,-175.59 340.57,-176.56 675.05,-194.19 1073.62,-194.86 1247.01,-194.15"/>
<polygon fill="black" stroke="black" points="1246.86,-197.65 1256.84,-194.11 1246.83,-190.65 1246.86,-197.65"/>
<text xml:space="preserve" text-anchor="middle" x="620.82" y="-209.95" font-family="Times,serif" font-size="14.00"> query, target,</text>
<text xml:space="preserve" text-anchor="middle" x="620.82" y="-193.45" font-family="Times,serif" font-size="14.00"> reference</text>
</g>
<!-- preset -->
<g id="node7" class="node">
<title>preset</title>
<polygon fill="none" stroke="black" points="748.82,-154.68 492.82,-154.68 492.82,-108.43 748.82,-108.43 748.82,-154.68"/>
<text xml:space="preserve" text-anchor="middle" x="620.82" y="-141.18" font-family="monospace" font-size="10.00">a named ramp carrying domain knowledge:</text>
<text xml:space="preserve" text-anchor="middle" x="620.82" y="-128.43" font-family="monospace" font-size="10.00">identity is a fraction, MAPQ tops at 60,</text>
<text xml:space="preserve" text-anchor="middle" x="620.82" y="-115.68" font-family="monospace" font-size="10.00">dN/dS is read against 1</text>
</g>
<!-- mode&#45;&gt;preset -->
<g id="edge5" class="edge">
<title>mode&#45;&gt;preset</title>
<path fill="none" stroke="black" d="M264.76,-155.44C287.65,-151.06 315.41,-146.31 340.57,-143.56 386.15,-138.57 436.13,-135.62 481.05,-133.9"/>
<polygon fill="black" stroke="black" points="480.98,-137.4 490.84,-133.54 480.72,-130.41 480.98,-137.4"/>
<text xml:space="preserve" text-anchor="middle" x="407.7" y="-163.26" font-family="Times,serif" font-size="14.00"> identity, mean identity,</text>
<text xml:space="preserve" text-anchor="middle" x="407.7" y="-146.76" font-family="Times,serif" font-size="14.00"> mapping quality, dN/dS</text>
</g>
<!-- attr -->
<g id="node8" class="node">
<title>attr</title>
<polygon fill="none" stroke="black" points="733.82,-90.56 507.82,-90.56 507.82,-54.56 733.82,-54.56 733.82,-90.56"/>
<text xml:space="preserve" text-anchor="middle" x="620.82" y="-75.81" font-family="monospace" font-size="10.00">one generic ramp over the range</text>
<text xml:space="preserve" text-anchor="middle" x="620.82" y="-63.06" font-family="monospace" font-size="10.00">the fetched features actually cover</text>
</g>
<!-- mode&#45;&gt;attr -->
<g id="edge6" class="edge">
<title>mode&#45;&gt;attr</title>
<path fill="none" stroke="black" d="M243.72,-151.89C268.46,-140.13 306.13,-123.59 340.57,-114.06 390.64,-100.19 447.12,-90.69 496.12,-84.32"/>
<polygon fill="black" stroke="black" points="496.44,-87.81 505.92,-83.08 495.56,-80.87 496.44,-87.81"/>
<text xml:space="preserve" text-anchor="middle" x="407.7" y="-117.26" font-family="Times,serif" font-size="14.00"> attribute:&lt;name&gt;</text>
</g>
<!-- track -->
<g id="node9" class="node">
<title>track</title>
<polygon fill="none" stroke="black" points="914.82,-57.56 766.82,-57.56 766.82,-21.56 914.82,-21.56 914.82,-57.56"/>
<text xml:space="preserve" text-anchor="middle" x="840.82" y="-36.43" font-family="monospace" font-size="10.00">the track&#39;s own colour</text>
</g>
<!-- mode&#45;&gt;track -->
<g id="edge7" class="edge">
<title>mode&#45;&gt;track</title>
<path fill="none" stroke="black" d="M230.59,-149.83C252.08,-127.35 295.02,-86.59 340.57,-67.06 476.48,-8.76 652.6,-15.87 755.22,-27.16"/>
<polygon fill="black" stroke="black" points="754.61,-30.61 764.95,-28.27 755.41,-23.66 754.61,-30.61"/>
<text xml:space="preserve" text-anchor="middle" x="407.7" y="-70.26" font-family="Times,serif" font-size="14.00"> track</text>
</g>
<!-- present -->
<g id="node2" class="node">
<title>present</title>
<polygon fill="none" stroke="black" points="1086.82,-149.06 932.82,-115.56 1086.82,-82.06 1240.82,-115.56 1086.82,-149.06"/>
<text xml:space="preserve" text-anchor="middle" x="1086.82" y="-118.81" font-family="monospace" font-size="10.00">the feature has a value</text>
<text xml:space="preserve" text-anchor="middle" x="1086.82" y="-106.06" font-family="monospace" font-size="10.00">on this channel</text>
</g>
<!-- ramp -->
<g id="node10" class="node">
<title>ramp</title>
<polygon fill="none" stroke="black" points="1587.82,-173.56 1523.82,-173.56 1523.82,-137.56 1587.82,-137.56 1587.82,-173.56"/>
<text xml:space="preserve" text-anchor="middle" x="1555.82" y="-152.43" font-family="monospace" font-size="10.00">the ramp</text>
</g>
<!-- present&#45;&gt;ramp -->
<g id="edge10" class="edge">
<title>present&#45;&gt;ramp</title>
<path fill="none" stroke="black" d="M1199.09,-125.09C1299.57,-133.69 1442.11,-145.9 1512.34,-151.92"/>
<polygon fill="black" stroke="black" points="1512.01,-155.4 1522.28,-152.77 1512.61,-148.43 1512.01,-155.4"/>
<text xml:space="preserve" text-anchor="middle" x="1335.82" y="-145.82" font-family="Times,serif" font-size="14.00"> yes</text>
</g>
<!-- missing -->
<g id="node11" class="node">
<title>missing</title>
<polygon fill="none" stroke="black" points="1635.82,-119.56 1475.82,-119.56 1475.82,-83.56 1635.82,-83.56 1635.82,-119.56"/>
<text xml:space="preserve" text-anchor="middle" x="1555.82" y="-104.81" font-family="monospace" font-size="10.00">the missing&#45;data colour,</text>
<text xml:space="preserve" text-anchor="middle" x="1555.82" y="-92.06" font-family="monospace" font-size="10.00">never the ramp&#39;s bottom</text>
</g>
<!-- present&#45;&gt;missing -->
<g id="edge11" class="edge">
<title>present&#45;&gt;missing</title>
<path fill="none" stroke="black" d="M1222.7,-111.17C1234.92,-110.79 1247.09,-110.41 1258.82,-110.06 1327.59,-107.96 1405.35,-105.74 1463.91,-104.09"/>
<polygon fill="black" stroke="black" points="1463.95,-107.59 1473.84,-103.81 1463.75,-100.59 1463.95,-107.59"/>
<text xml:space="preserve" text-anchor="middle" x="1335.82" y="-113.26" font-family="Times,serif" font-size="14.00"> no</text>
</g>
<!-- colorby -->
<g id="node3" class="node">
<title>colorby</title>
<ellipse fill="none" stroke="black" cx="35.49" cy="-165.56" rx="35.49" ry="18"/>
<text xml:space="preserve" text-anchor="middle" x="35.49" y="-162.43" font-family="monospace" font-size="10.00">colorBy</text>
</g>
<!-- colorby&#45;&gt;mode -->
<g id="edge1" class="edge">
<title>colorby&#45;&gt;mode</title>
<path fill="none" stroke="black" d="M71.19,-165.56C78.06,-165.56 85.62,-165.56 93.58,-165.56"/>
<polygon fill="black" stroke="black" points="93.55,-169.06 103.55,-165.56 93.55,-162.06 93.55,-169.06"/>
</g>
<!-- out -->
<g id="node13" class="node">
<title>out</title>
<polygon fill="none" stroke="black" stroke-width="2" points="1919.82,-231.06 1717.82,-231.06 1717.82,-172.06 1919.82,-172.06 1919.82,-231.06"/>
<text xml:space="preserve" text-anchor="middle" x="1818.82" y="-217.56" font-family="monospace" font-size="10.00">one packed colour per instance,</text>
<text xml:space="preserve" text-anchor="middle" x="1818.82" y="-204.81" font-family="monospace" font-size="10.00">recomputed on the MAIN THREAD,</text>
<text xml:space="preserve" text-anchor="middle" x="1818.82" y="-192.06" font-family="monospace" font-size="10.00">so a colour change re&#45;uploads</text>
<text xml:space="preserve" text-anchor="middle" x="1818.82" y="-179.31" font-family="monospace" font-size="10.00">without a refetch</text>
</g>
<!-- flat&#45;&gt;out -->
<g id="edge12" class="edge">
<title>flat&#45;&gt;out</title>
<path fill="none" stroke="black" d="M1188.27,-295.24C1310.85,-298.51 1523.57,-296.26 1699.82,-253.56 1716.78,-249.45 1734.34,-243.02 1750.58,-236.07"/>
<polygon fill="black" stroke="black" points="1751.92,-239.3 1759.65,-232.06 1749.09,-232.9 1751.92,-239.3"/>
</g>
<!-- strand&#45;&gt;out -->
<g id="edge13" class="edge">
<title>strand&#45;&gt;out</title>
<path fill="none" stroke="black" d="M903.28,-245.59C1044.26,-243.07 1401.7,-234.93 1699.82,-213.56 1701.89,-213.41 1703.98,-213.25 1706.08,-213.09"/>
<polygon fill="black" stroke="black" points="1706.24,-216.59 1715.92,-212.3 1705.68,-209.61 1706.24,-216.59"/>
</g>
<!-- chrom&#45;&gt;out -->
<g id="edge14" class="edge">
<title>chrom&#45;&gt;out</title>
<path fill="none" stroke="black" d="M1413.3,-194.83C1492.23,-196.14 1616.17,-198.2 1706.08,-199.7"/>
<polygon fill="black" stroke="black" points="1705.85,-203.19 1715.91,-199.86 1705.96,-196.2 1705.85,-203.19"/>
</g>
<!-- preset&#45;&gt;present -->
<g id="edge8" class="edge">
<title>preset&#45;&gt;present</title>
<path fill="none" stroke="black" d="M749.23,-127.16C808.45,-125.12 879.18,-122.68 940.48,-120.57"/>
<polygon fill="black" stroke="black" points="940.43,-124.07 950.3,-120.23 940.19,-117.08 940.43,-124.07"/>
</g>
<!-- attr&#45;&gt;present -->
<g id="edge9" class="edge">
<title>attr&#45;&gt;present</title>
<path fill="none" stroke="black" d="M734.14,-82.97C804.16,-89.45 894.19,-97.8 965.63,-104.42"/>
<polygon fill="black" stroke="black" points="965.15,-107.89 975.43,-105.33 965.79,-100.92 965.15,-107.89"/>
</g>
<!-- track&#45;&gt;out -->
<g id="edge17" class="edge">
<title>track&#45;&gt;out</title>
<path fill="none" stroke="black" d="M915.3,-26.27C1065.82,-2.5 1417.21,35.23 1680.82,-74.56 1725.38,-93.11 1764.42,-133.01 1789.31,-163.16"/>
<polygon fill="black" stroke="black" points="1786.31,-165.02 1795.31,-170.6 1791.76,-160.62 1786.31,-165.02"/>
</g>
<!-- ramp&#45;&gt;out -->
<g id="edge15" class="edge">
<title>ramp&#45;&gt;out</title>
<path fill="none" stroke="black" d="M1588.3,-161.1C1617.74,-166.29 1663.48,-174.35 1706.4,-181.92"/>
<polygon fill="black" stroke="black" points="1705.59,-185.33 1716.05,-183.62 1706.81,-178.44 1705.59,-185.33"/>
</g>
<!-- missing&#45;&gt;out -->
<g id="edge16" class="edge">
<title>missing&#45;&gt;out</title>
<path fill="none" stroke="black" d="M1636.14,-115.42C1651.19,-119 1666.66,-123.35 1680.82,-128.56 1707.72,-138.43 1735.9,-152.7 1759.67,-166"/>
<polygon fill="black" stroke="black" points="1757.82,-168.98 1768.25,-170.88 1761.28,-162.89 1757.82,-168.98"/>
</g>
<!-- cigar -->
<g id="node12" class="node">
<title>cigar</title>
<polygon fill="none" stroke="black" points="1680.82,-351.68 1430.82,-351.68 1430.82,-305.43 1680.82,-305.43 1680.82,-351.68"/>
<text xml:space="preserve" text-anchor="middle" x="1555.82" y="-338.18" font-family="monospace" font-size="10.00">CIGAR sub&#45;instances keep their own</text>
<text xml:space="preserve" text-anchor="middle" x="1555.82" y="-325.43" font-family="monospace" font-size="10.00">operation colours: insertion, deletion,</text>
<text xml:space="preserve" text-anchor="middle" x="1555.82" y="-312.68" font-family="monospace" font-size="10.00">skip, mismatch</text>
</g>
<!-- cigar&#45;&gt;out -->
<g id="edge18" class="edge">
<title>cigar&#45;&gt;out</title>
<path fill="none" stroke="black" d="M1666.59,-304.99C1678.05,-301.11 1689.33,-296.66 1699.82,-291.56 1727.93,-277.9 1755.89,-256.98 1777.53,-238.74"/>
<polygon fill="black" stroke="black" points="1779.65,-241.54 1784.96,-232.37 1775.09,-236.23 1779.65,-241.54"/>
</g>
</g>
<!-- diagram-source-sha256 bd013da7303eefb4031f89233d715578ca282cd08e6703ad4a22f6625ad26946 -->
</svg>
