<?xml version="1.0" encoding="UTF-8" standalone="no"?>
<!DOCTYPE svg PUBLIC "-//W3C//DTD SVG 1.1//EN"
 "http://www.w3.org/Graphics/SVG/1.1/DTD/svg11.dtd">
<!-- Generated by graphviz version 14.1.2 (0)
 -->
<!-- Title: grammar_pipeline Pages: 1 -->
<svg width="1738pt" height="235pt"
 viewBox="0.00 0.00 1738.00 235.00" xmlns="http://www.w3.org/2000/svg" xmlns:xlink="http://www.w3.org/1999/xlink">
<g id="graph0" class="graph" transform="scale(1 1) rotate(0) translate(4 231)">
<title>grammar_pipeline</title>
<polygon fill="white" stroke="none" points="-4,4 -4,-231 1733.5,-231 1733.5,4 -4,4"/>
<g id="clust1" class="cluster">
<title>cluster_grammar</title>
<polygon fill="none" stroke="#7f7f7f" stroke-dasharray="5,2" points="8,-8 8,-81 1308.5,-81 1308.5,-8 8,-8"/>
<text xml:space="preserve" text-anchor="middle" x="658.25" y="-67.5" font-family="monospace" font-size="10.00"> &#160;the grammar&#39;s stages &#160;</text>
</g>
<g id="clust2" class="cluster">
<title>cluster_tree</title>
<polygon fill="none" stroke="#7f7f7f" stroke-dasharray="5,2" points="95,-112 95,-219 1721.5,-219 1721.5,-112 95,-112"/>
<text xml:space="preserve" text-anchor="middle" x="908.25" y="-205.5" font-family="monospace" font-size="10.00"> &#160;where the tree answers, and how far &#160;</text>
</g>
<!-- data -->
<g id="node1" class="node">
<title>data</title>
<polygon fill="none" stroke="black" points="70,-52 16,-52 16,-16 70,-16 70,-52"/>
<text xml:space="preserve" text-anchor="middle" x="43" y="-30.88" font-family="monospace" font-size="10.00">data</text>
</g>
<!-- transform -->
<g id="node2" class="node">
<title>transform</title>
<polygon fill="none" stroke="black" points="194,-52 124,-52 124,-16 194,-16 194,-52"/>
<text xml:space="preserve" text-anchor="middle" x="159" y="-30.88" font-family="monospace" font-size="10.00">transform</text>
</g>
<!-- data&#45;&gt;transform -->
<!-- adapter -->
<g id="node8" class="node">
<title>adapter</title>
<polygon fill="none" stroke="black" points="215,-169.12 103,-169.12 103,-122.88 215,-122.88 215,-169.12"/>
<text xml:space="preserve" text-anchor="middle" x="159" y="-155.62" font-family="monospace" font-size="10.00">feature adapter</text>
<text xml:space="preserve" text-anchor="middle" x="159" y="-142.88" font-family="monospace" font-size="10.00">getFeaturesArray</text>
<text xml:space="preserve" text-anchor="middle" x="159" y="-130.12" font-family="monospace" font-size="10.00">(any format)</text>
</g>
<!-- data&#45;&gt;adapter -->
<g id="edge16" class="edge">
<title>data&#45;&gt;adapter</title>
<path fill="none" stroke="#7f7f7f" stroke-dasharray="1,5" d="M61.79,-52.44C71.52,-62.45 83.83,-74.99 95,-86 104.57,-95.43 115.09,-105.55 124.76,-114.74"/>
<polygon fill="#7f7f7f" stroke="#7f7f7f" points="122.22,-117.16 131.88,-121.5 127.03,-112.08 122.22,-117.16"/>
</g>
<!-- scale -->
<g id="node3" class="node">
<title>scale</title>
<polygon fill="none" stroke="black" points="349,-52 295,-52 295,-16 349,-16 349,-52"/>
<text xml:space="preserve" text-anchor="middle" x="322" y="-30.88" font-family="monospace" font-size="10.00">scale</text>
</g>
<!-- transform&#45;&gt;scale -->
<!-- filters -->
<g id="node9" class="node">
<title>filters</title>
<polygon fill="none" stroke="black" stroke-width="2" points="396,-179.5 248,-179.5 248,-120.5 396,-120.5 396,-179.5"/>
<text xml:space="preserve" text-anchor="middle" x="322" y="-166" font-family="monospace" font-size="10.00">runTransforms</text>
<text xml:space="preserve" text-anchor="middle" x="322" y="-153.25" font-family="monospace" font-size="10.00">filter, formula, bin,</text>
<text xml:space="preserve" text-anchor="middle" x="322" y="-140.5" font-family="monospace" font-size="10.00">aggregate, coverage</text>
<text xml:space="preserve" text-anchor="middle" x="322" y="-127.75" font-family="monospace" font-size="10.00">shared, then per layer</text>
</g>
<!-- transform&#45;&gt;filters -->
<g id="edge17" class="edge">
<title>transform&#45;&gt;filters</title>
<path fill="none" stroke="#7f7f7f" stroke-dasharray="1,5" d="M185.51,-52.38C208.21,-68.74 242.1,-93.15 270.3,-113.47"/>
<polygon fill="#7f7f7f" stroke="#7f7f7f" points="268.23,-116.29 278.39,-119.3 272.32,-110.62 268.23,-116.29"/>
</g>
<!-- mark -->
<g id="node4" class="node">
<title>mark</title>
<polygon fill="none" stroke="black" points="554,-52 500,-52 500,-16 554,-16 554,-52"/>
<text xml:space="preserve" text-anchor="middle" x="527" y="-30.88" font-family="monospace" font-size="10.00">mark</text>
</g>
<!-- scale&#45;&gt;mark -->
<!-- encode -->
<g id="node10" class="node">
<title>encode</title>
<polygon fill="none" stroke="black" stroke-width="2" points="625,-179.5 429,-179.5 429,-120.5 625,-120.5 625,-179.5"/>
<text xml:space="preserve" text-anchor="middle" x="527" y="-166" font-family="monospace" font-size="10.00">encodeFeatures</text>
<text xml:space="preserve" text-anchor="middle" x="527" y="-153.25" font-family="monospace" font-size="10.00">field &#45;&gt; channel, one loop</text>
<text xml:space="preserve" text-anchor="middle" x="527" y="-140.5" font-family="monospace" font-size="10.00">colour + glyph scales resolved</text>
<text xml:space="preserve" text-anchor="middle" x="527" y="-127.75" font-family="monospace" font-size="10.00">in the worker, per region</text>
</g>
<!-- scale&#45;&gt;encode -->
<g id="edge18" class="edge">
<title>scale&#45;&gt;encode</title>
<path fill="none" stroke="#7f7f7f" stroke-dasharray="1,5" d="M349.12,-48.93C378.05,-65.46 425.68,-92.67 464.23,-114.7"/>
<polygon fill="#7f7f7f" stroke="#7f7f7f" points="462.09,-117.51 472.51,-119.43 465.56,-111.43 462.09,-117.51"/>
</g>
<!-- guide -->
<g id="node5" class="node">
<title>guide</title>
<polygon fill="none" stroke="black" points="831.5,-52 777.5,-52 777.5,-16 831.5,-16 831.5,-52"/>
<text xml:space="preserve" text-anchor="middle" x="804.5" y="-30.88" font-family="monospace" font-size="10.00">guide</text>
</g>
<!-- mark&#45;&gt;guide -->
<!-- marks -->
<g id="node12" class="node">
<title>marks</title>
<polygon fill="none" stroke="black" stroke-width="2" points="1116.5,-166.12 932.5,-166.12 932.5,-119.88 1116.5,-119.88 1116.5,-166.12"/>
<text xml:space="preserve" text-anchor="middle" x="1024.5" y="-152.62" font-family="monospace" font-size="10.00">defineMark list</text>
<text xml:space="preserve" text-anchor="middle" x="1024.5" y="-139.88" font-family="monospace" font-size="10.00">shape x lenses</text>
<text xml:space="preserve" text-anchor="middle" x="1024.5" y="-127.12" font-family="monospace" font-size="10.00">GPU, Canvas2D, SVG, hit test</text>
</g>
<!-- mark&#45;&gt;marks -->
<g id="edge19" class="edge">
<title>mark&#45;&gt;marks</title>
<path fill="none" stroke="#7f7f7f" stroke-dasharray="1,5" d="M554.29,-39.78C621.93,-54.66 804.84,-94.9 921.29,-120.52"/>
<polygon fill="#7f7f7f" stroke="#7f7f7f" points="920.35,-123.89 930.87,-122.62 921.85,-117.06 920.35,-123.89"/>
</g>
<!-- layer -->
<g id="node6" class="node">
<title>layer</title>
<polygon fill="none" stroke="black" points="1051.5,-52 997.5,-52 997.5,-16 1051.5,-16 1051.5,-52"/>
<text xml:space="preserve" text-anchor="middle" x="1024.5" y="-30.88" font-family="monospace" font-size="10.00">layer</text>
</g>
<!-- guide&#45;&gt;layer -->
<!-- legend -->
<g id="node13" class="node">
<title>legend</title>
<polygon fill="none" stroke="black" stroke-width="2" points="1369.5,-166.12 1149.5,-166.12 1149.5,-119.88 1369.5,-119.88 1369.5,-166.12"/>
<text xml:space="preserve" text-anchor="middle" x="1259.5" y="-152.62" font-family="monospace" font-size="10.00">colorScales &#45;&gt; legend</text>
<text xml:space="preserve" text-anchor="middle" x="1259.5" y="-139.88" font-family="monospace" font-size="10.00">valueScale &#45;&gt; axis, hatches, rules</text>
<text xml:space="preserve" text-anchor="middle" x="1259.5" y="-127.12" font-family="monospace" font-size="10.00">placed by the chrome</text>
</g>
<!-- guide&#45;&gt;legend -->
<g id="edge20" class="edge">
<title>guide&#45;&gt;legend</title>
<path fill="none" stroke="#7f7f7f" stroke-dasharray="1,5" d="M831.81,-40.33C892.36,-54.9 1044.43,-91.49 1149.63,-116.8"/>
<polygon fill="#7f7f7f" stroke="#7f7f7f" points="1148.6,-120.16 1159.14,-119.09 1150.24,-113.35 1148.6,-120.16"/>
</g>
<!-- coord -->
<g id="node7" class="node">
<title>coord</title>
<polygon fill="none" stroke="black" points="1300.5,-52 1218.5,-52 1218.5,-16 1300.5,-16 1300.5,-52"/>
<text xml:space="preserve" text-anchor="middle" x="1259.5" y="-30.88" font-family="monospace" font-size="10.00">coordinates</text>
</g>
<!-- layer&#45;&gt;coord -->
<!-- layers -->
<g id="node14" class="node">
<title>layers</title>
<polygon fill="none" stroke="black" stroke-width="2" points="1544.5,-166.12 1402.5,-166.12 1402.5,-119.88 1544.5,-119.88 1544.5,-166.12"/>
<text xml:space="preserve" text-anchor="middle" x="1473.5" y="-152.62" font-family="monospace" font-size="10.00">marks[] in draw order</text>
<text xml:space="preserve" text-anchor="middle" x="1473.5" y="-139.88" font-family="monospace" font-size="10.00">one y domain, shared</text>
<text xml:space="preserve" text-anchor="middle" x="1473.5" y="-127.12" font-family="monospace" font-size="10.00">a zoom range per mark</text>
</g>
<!-- layer&#45;&gt;layers -->
<g id="edge21" class="edge">
<title>layer&#45;&gt;layers</title>
<path fill="none" stroke="#7f7f7f" stroke-dasharray="1,5" d="M1051.59,-40.29C1076.65,-46.29 1115.61,-55.5 1149.5,-63 1247.03,-84.6 1273.03,-83.08 1369.5,-109 1377.47,-111.14 1385.72,-113.54 1393.94,-116.06"/>
<polygon fill="#7f7f7f" stroke="#7f7f7f" points="1392.65,-119.32 1403.23,-118.96 1394.73,-112.64 1392.65,-119.32"/>
</g>
<!-- genomic -->
<g id="node15" class="node">
<title>genomic</title>
<polygon fill="none" stroke="black" stroke-dasharray="5,2" points="1713.5,-166.12 1577.5,-166.12 1577.5,-119.88 1713.5,-119.88 1713.5,-166.12"/>
<text xml:space="preserve" text-anchor="middle" x="1645.5" y="-152.62" font-family="monospace" font-size="10.00">genomic x, fixed</text>
<text xml:space="preserve" text-anchor="middle" x="1645.5" y="-139.88" font-family="monospace" font-size="10.00">circular and dotplot</text>
<text xml:space="preserve" text-anchor="middle" x="1645.5" y="-127.12" font-family="monospace" font-size="10.00">are displays</text>
</g>
<!-- coord&#45;&gt;genomic -->
<g id="edge22" class="edge">
<title>coord&#45;&gt;genomic</title>
<path fill="none" stroke="#7f7f7f" stroke-dasharray="1,5" d="M1300.77,-42.2C1321.4,-46.56 1346.88,-52.22 1369.5,-58 1447.99,-78.05 1467.24,-84.62 1544.5,-109 1551.61,-111.24 1558.98,-113.63 1566.35,-116.06"/>
<polygon fill="#7f7f7f" stroke="#7f7f7f" points="1565.1,-119.33 1575.69,-119.16 1567.3,-112.69 1565.1,-119.33"/>
</g>
<!-- adapter&#45;&gt;filters -->
<g id="edge7" class="edge">
<title>adapter&#45;&gt;filters</title>
<path fill="none" stroke="black" d="M215.41,-147.38C222.13,-147.54 229.11,-147.72 236.14,-147.89"/>
<polygon fill="black" stroke="black" points="235.98,-151.39 246.07,-148.14 236.16,-144.39 235.98,-151.39"/>
</g>
<!-- filters&#45;&gt;encode -->
<g id="edge8" class="edge">
<title>filters&#45;&gt;encode</title>
<path fill="none" stroke="black" d="M396.29,-150C403.22,-150 410.34,-150 417.51,-150"/>
<polygon fill="black" stroke="black" points="417.28,-153.5 427.28,-150 417.28,-146.5 417.28,-153.5"/>
</g>
<!-- valueScale -->
<g id="node11" class="node">
<title>valueScale</title>
<polygon fill="none" stroke="black" stroke-width="2" points="899.5,-190.12 709.5,-190.12 709.5,-143.88 899.5,-143.88 899.5,-190.12"/>
<text xml:space="preserve" text-anchor="middle" x="804.5" y="-176.62" font-family="monospace" font-size="10.00">valueScale</text>
<text xml:space="preserve" text-anchor="middle" x="804.5" y="-163.88" font-family="monospace" font-size="10.00">on ScoreScaleMixin</text>
<text xml:space="preserve" text-anchor="middle" x="804.5" y="-151.12" font-family="monospace" font-size="10.00">domain &#45;&gt; uniform, on the GPU</text>
</g>
<!-- encode&#45;&gt;valueScale -->
<g id="edge13" class="edge">
<title>encode&#45;&gt;valueScale</title>
<path fill="none" stroke="black" stroke-dasharray="1,5" d="M625.13,-155.99C648.67,-157.45 673.94,-159.01 697.85,-160.48"/>
<polygon fill="black" stroke="black" points="697.39,-163.96 707.59,-161.08 697.82,-156.97 697.39,-163.96"/>
<text xml:space="preserve" text-anchor="middle" x="667.25" y="-162.72" font-family="monospace" font-size="9.00">y extremes</text>
</g>
<!-- encode&#45;&gt;marks -->
<g id="edge9" class="edge">
<title>encode&#45;&gt;marks</title>
<path fill="none" stroke="black" d="M625.37,-139.19C652.57,-136.63 682.15,-134.28 709.5,-133 793.85,-129.06 815.12,-129.6 899.5,-133 906.44,-133.28 913.59,-133.65 920.79,-134.07"/>
<polygon fill="black" stroke="black" points="920.42,-137.56 930.62,-134.7 920.86,-130.57 920.42,-137.56"/>
</g>
<!-- valueScale&#45;&gt;marks -->
<g id="edge14" class="edge">
<title>valueScale&#45;&gt;marks</title>
<path fill="none" stroke="black" stroke-dasharray="1,5" d="M899.85,-156.61C906.79,-155.85 913.81,-155.08 920.8,-154.31"/>
<polygon fill="black" stroke="black" points="921.05,-157.8 930.6,-153.23 920.28,-150.84 921.05,-157.8"/>
</g>
<!-- valueScale&#45;&gt;legend -->
<g id="edge15" class="edge">
<title>valueScale&#45;&gt;legend</title>
<path fill="none" stroke="black" stroke-dasharray="1,5" d="M899.77,-175.25C910.8,-175.97 921.89,-176.58 932.5,-177 1014.21,-180.21 1035.29,-186.59 1116.5,-177 1131.69,-175.21 1147.62,-172.37 1163.08,-169.08"/>
<polygon fill="black" stroke="black" points="1163.75,-172.51 1172.76,-166.94 1162.24,-165.68 1163.75,-172.51"/>
</g>
<!-- marks&#45;&gt;legend -->
<g id="edge10" class="edge">
<title>marks&#45;&gt;legend</title>
<path fill="none" stroke="black" d="M1116.92,-143C1123.78,-143 1130.76,-143 1137.77,-143"/>
<polygon fill="black" stroke="black" points="1137.65,-146.5 1147.65,-143 1137.65,-139.5 1137.65,-146.5"/>
</g>
<!-- legend&#45;&gt;layers -->
<g id="edge11" class="edge">
<title>legend&#45;&gt;layers</title>
<path fill="none" stroke="black" d="M1369.92,-143C1376.92,-143 1383.91,-143 1390.75,-143"/>
<polygon fill="black" stroke="black" points="1390.59,-146.5 1400.59,-143 1390.59,-139.5 1390.59,-146.5"/>
</g>
<!-- layers&#45;&gt;genomic -->
<g id="edge12" class="edge">
<title>layers&#45;&gt;genomic</title>
<path fill="none" stroke="black" d="M1544.63,-143C1551.63,-143 1558.76,-143 1565.84,-143"/>
<polygon fill="black" stroke="black" points="1565.76,-146.5 1575.76,-143 1565.76,-139.5 1565.76,-146.5"/>
</g>
</g>
<!-- diagram-source-sha256 d4b794961a464d9f04d24b43980c78695cdd4c20c5e88d68f6c9b25336cd8927 -->
</svg>
